<?xml version="1.0" encoding="UTF-8"?>
<svg id="Layer_1" data-name="Layer 1" xmlns="http://www.w3.org/2000/svg" viewBox="0 0 172 62">
  <defs>
    <style>
      .cls-1 {
        fill: #00a439;
      }

      .cls-2 {
        fill: #b1d6a0;
      }

      .cls-3 {
        fill: #007db9;
      }

      .cls-4 {
        fill: #81b9d9;
      }
    </style>
  </defs>
  <g>
    <path class="cls-4" d="M128.09,42.27c-.61.34-1.14.61-1.75.61-1.48,0-2.69-1.21-2.76-2.69l2.89-1.75,4.51,2.02-2.89,1.82h0Z"/>
    <path class="cls-2" d="M129.78,34.87l-2.15-.94c-.94-.4-1.88-.81-1.88-1.82,0-.54.13-.81.4-1.14l4.51,2.02-1.14.67c-.34.2-.54.34-.54.61.13.2.47.4.81.61h0Z"/>
    <path class="cls-4" d="M131.93,24.91l-2.22,1.35c-.2.13-.47.34-.47.61,0,.34.54.61.94.81l-2.76-1.21c-.81-.34-1.61-.74-1.61-1.75,0-.4.13-.74.34-1.01l5.92-3.63c.74.4,1.41,1.21,1.41,2.29,0,1.21-.54,2.02-1.55,2.56h0Z"/>
    <path class="cls-2" d="M136.57,29.28l-.54.34-4.51-2.02,5.25-3.16c.74.4,1.41,1.21,1.41,2.29,0,1.14-.61,1.88-1.61,2.56h0Z"/>
    <path class="cls-4" d="M132.74,33.12l2.69,1.21c1.01.47,1.35,1.01,1.35,1.61,0,.4-.2.74-.54,1.01l-4.51-2.02.74-.4c.67-.34.87-.61.87-.81,0-.27-.13-.4-.61-.61h0Z"/>
    <path class="cls-1" d="M137.51,43.08c-1.14-.87-2.35-1.48-3.83-2.15l-6.86-3.03c-1.75-.74-2.89-1.82-2.89-3.5s.81-2.49,1.88-3.16l.4-.27c-.27.27-.4.54-.4,1.14,0,1.08.87,1.41,1.88,1.82l7.94,3.5c1.41.61,2.62,1.61,2.62,3.36,0,.94-.34,1.82-.74,2.29h0Z"/>
    <path class="cls-3" d="M136.71,36.69l-.47.34c.34-.27.54-.67.54-1.01,0-.67-.34-1.21-1.35-1.61l-8.54-3.77c-1.75-.74-2.83-1.75-2.83-3.43,0-1.55.81-2.62,2.02-3.36-.2.27-.34.61-.34,1.01,0,1.01.81,1.41,1.61,1.75l8.28,3.63c1.48.67,2.76,1.68,2.76,3.5.07,1.28-.61,2.29-1.68,2.96h0Z"/>
  </g>
  <path class="cls-3" d="M46.01,29.96h-.61c-.4,0-.61-.27-.61-.67v-2.76h1.21v-.81h-1.21v-1.48h-.87v4.98c0,1.08.54,1.48,1.48,1.48h.61v-.74h0Z"/>
  <path class="cls-3" d="M37.53,28.48h0c0,1.82,1.48,2.49,2.83,2.49s2.69-.67,2.69-2.09-1.14-1.75-2.22-2.02l-.34-.07c-.94-.2-1.75-.4-1.75-1.08,0-1.01,1.01-1.14,1.48-1.14,1.01,0,1.55.47,1.61,1.35h.94v-.07c-.07-1.41-.94-2.15-2.56-2.15-1.21,0-2.49.61-2.49,2.02,0,1.21,1.01,1.55,2.22,1.82l.2.07c1.01.2,1.88.4,1.88,1.21,0,1.01-1.08,1.21-1.68,1.21-.54,0-1.01-.13-1.35-.4-.4-.27-.61-.67-.61-1.21v-.07h-.87v.13Z"/>
  <path class="cls-3" d="M51.26,29.96h0c-.13.07-.2.07-.27.07-.2,0-.2-.13-.2-.54v-2.56c0-.94-.61-1.41-1.88-1.41-.74,0-2.09.2-2.09,1.68v.07h.87v-.07c0-.61.4-.87,1.21-.87.74,0,1.08.27,1.08.81,0,.47-.47.54-1.08.61-.2,0-.34.07-.54.07-.87.13-1.68.4-1.68,1.55,0,.87.61,1.41,1.68,1.41.67,0,1.28-.27,1.68-.74.07.61.4.74.74.74.27,0,.47-.07.61-.13h0v-.67h-.13ZM48.43,30.09c-.27,0-.87-.07-.87-.67s.47-.74.94-.87c.13,0,.27-.07.47-.07.4-.07.74-.07.94-.27h0v.74c0,.47-.4,1.14-1.48,1.14h0Z"/>
  <path class="cls-3" d="M52.07,25.79v4.98h.87v-2.83c0-.94.54-1.48,1.41-1.48.61,0,.94.34.94.94v3.36h.87v-3.23c0-1.21-.54-1.82-1.75-1.82-.67,0-1.21.27-1.55.81v-.74h-.81Z"/>
  <path class="cls-3" d="M60.81,23.9v2.49c-.4-.54-1.08-.74-1.55-.74-1.41,0-2.29,1.01-2.29,2.56,0,.74.2,1.35.54,1.82.4.54,1.01.81,1.75.81s1.28-.27,1.55-.74v.61h.87v-6.86h-.87v.07h0ZM59.4,30.09c-1.01,0-1.48-.87-1.48-1.75,0-.54.13-1.88,1.41-1.88,1.41,0,1.48,1.41,1.48,1.82.07.87-.34,1.82-1.41,1.82h0Z"/>
  <path class="cls-3" d="M67.27,29.96h0c-.13.07-.2.07-.27.07-.2,0-.2-.13-.2-.54v-2.49c0-.94-.61-1.41-1.88-1.41-.74,0-2.09.2-2.09,1.68v.07h.87v-.07c0-.61.4-.87,1.21-.87.74,0,1.08.27,1.08.81,0,.47-.47.54-1.08.61-.2,0-.34.07-.54.07-.87.13-1.68.4-1.68,1.55,0,.87.61,1.41,1.68,1.41.67,0,1.28-.27,1.68-.74,0,.61.4.74.74.74.27,0,.47-.07.61-.13h0v-.74h-.13ZM64.45,30.09c-.27,0-.87-.07-.87-.67s.47-.74.94-.87c.13,0,.27-.07.47-.07.4-.07.74-.07.94-.27h0v.74c-.07.47-.4,1.14-1.48,1.14h0Z"/>
  <path class="cls-3" d="M70.7,25.58h0c-.87,0-1.41.27-1.82,1.08v-.94h-.81v4.98h.87v-2.22c0-1.35.54-1.95,1.75-1.95h.07l-.07-.94h0Z"/>
  <path class="cls-3" d="M74.61,23.9v2.49c-.4-.54-1.01-.74-1.55-.74-1.35,0-2.29,1.01-2.29,2.56,0,.74.2,1.35.61,1.82.4.54,1.01.81,1.75.81s1.28-.27,1.55-.74v.61h.87v-6.86h-.94v.07h0ZM73.19,30.09c-1.01,0-1.48-.87-1.48-1.75,0-.54.13-1.88,1.41-1.88,1.41,0,1.48,1.41,1.48,1.82.07.87-.34,1.82-1.41,1.82h0Z"/>
  <path class="cls-3" d="M83.49,28.14h0c-.07,1.21-.81,1.95-1.88,1.95-.74,0-1.35-.27-1.75-.81-.34-.47-.54-1.14-.54-1.95,0-.74.2-1.41.54-1.88.4-.54,1.01-.81,1.75-.81,1.01,0,1.68.54,1.88,1.41h.94v-.07c-.07-.67-.4-1.28-.94-1.68-.47-.4-1.14-.54-1.88-.54-1.01,0-1.82.34-2.42,1.08-.54.67-.81,1.55-.81,2.56,0,2.22,1.21,3.57,3.16,3.57.81,0,1.55-.27,2.09-.74s.81-1.14.87-2.02v-.07h-1.01Z"/>
  <path class="cls-3" d="M78.37,38.03h0c0,1.82,1.48,2.49,2.83,2.49s2.69-.67,2.69-2.09-1.14-1.75-2.22-2.02l-.34-.07c-.94-.2-1.75-.4-1.75-1.08,0-1.01,1.01-1.14,1.48-1.14,1.01,0,1.55.47,1.61,1.35h.94v-.07c-.07-1.41-.94-2.15-2.56-2.15-1.21,0-2.49.61-2.49,2.02,0,1.21,1.01,1.55,2.22,1.82l.2.07c1.01.2,1.88.4,1.88,1.21,0,1.01-1.08,1.21-1.68,1.21-.54,0-1.01-.13-1.35-.4-.4-.27-.61-.67-.61-1.21v-.07h-.87v.13h0Z"/>
  <path class="cls-3" d="M89.74,37.69h0c-.07,1.21-.81,1.95-1.88,1.95-.74,0-1.35-.27-1.75-.81-.34-.47-.54-1.14-.54-1.95,0-.74.2-1.41.54-1.88.4-.54,1.01-.81,1.75-.81,1.01,0,1.68.54,1.88,1.41h.94v-.07c-.07-.67-.4-1.28-.94-1.68-.47-.34-1.14-.54-1.88-.54-1.01,0-1.82.34-2.42,1.08-.54.67-.81,1.55-.81,2.56,0,2.22,1.21,3.57,3.16,3.57.87,0,1.55-.27,2.09-.74.47-.47.81-1.14.87-2.02v-.07h-1.01Z"/>
  <path class="cls-3" d="M85.3,23.9v6.86h.87v-2.83c0-.94.54-1.48,1.41-1.48.61,0,.94.34.94.94v3.36h.87v-3.3c0-1.21-.54-1.82-1.75-1.82-.54,0-1.21.2-1.55.74v-2.49h-.81Z"/>
  <path class="cls-3" d="M91.29,27.4h0c0-.67.4-.94,1.21-.94.74,0,1.08.27,1.08.81,0,.47-.47.54-1.08.61-.2,0-.34.07-.54.07-.87.13-1.68.4-1.68,1.55,0,.87.61,1.41,1.68,1.41.67,0,1.28-.27,1.68-.74,0,.61.4.74.74.74.27,0,.47-.07.61-.13h0v-.67h-.07c-.13.07-.2.07-.27.07-.2,0-.2-.13-.2-.54v-2.49c0-.94-.61-1.35-1.88-1.35-.74,0-2.09.2-2.09,1.68v.07h.81v-.13h0ZM92.03,30.09c-.27,0-.94-.07-.94-.67s.47-.74.94-.81c.13,0,.27-.07.4-.07.4-.07.74-.07,1.01-.27h0v.74c.07.4-.34,1.08-1.41,1.08h0Z"/>
  <path class="cls-3" d="M119.62,30.77v-6.86h-.87v2.49c-.4-.54-1.08-.74-1.55-.74-1.41,0-2.29,1.01-2.29,2.56,0,.74.2,1.35.61,1.82.4.54,1.01.81,1.75.81s1.28-.27,1.55-.74v.61h.81v.07h0ZM117.33,30.09c-1.01,0-1.48-.87-1.48-1.75,0-.54.13-1.88,1.41-1.88,1.41,0,1.48,1.41,1.48,1.82.07.87-.34,1.82-1.41,1.82h0Z"/>
  <path class="cls-3" d="M105.22,29.22c-.13.54-.61.87-1.21.87-.47,0-.81-.13-1.08-.4-.27-.27-.4-.67-.4-1.14h3.7v-.07c.07-.87-.27-1.75-.74-2.22-.4-.4-.87-.61-1.55-.61-1.35,0-2.35,1.08-2.35,2.56.07,1.68.94,2.62,2.35,2.62,1.14,0,1.88-.61,2.15-1.68h-.87v.07h0ZM103.87,26.46c.74,0,1.35.54,1.35,1.35h-2.76c.07-.67.54-1.35,1.41-1.35h0Z"/>
  <path class="cls-3" d="M113.36,29.22c-.13.54-.61.87-1.21.87-.47,0-.81-.13-1.08-.4-.27-.27-.4-.67-.4-1.14h3.7v-.07c.07-.87-.2-1.75-.74-2.22-.4-.4-.87-.61-1.55-.61-1.35,0-2.35,1.08-2.35,2.56.07,1.68.94,2.62,2.35,2.62,1.14,0,1.88-.61,2.15-1.61h-.87ZM112.01,26.46c.74,0,1.35.54,1.35,1.35h-2.76c.13-.67.61-1.35,1.41-1.35h0Z"/>
  <path class="cls-3" d="M96.54,30.77v-2.22c0-1.35.54-1.95,1.75-1.95h.07v-.94h0c-.81,0-1.35.27-1.82,1.08v-.94h-.81v4.98h.81Z"/>
  <path class="cls-3" d="M107.91,30.77v-2.22c0-1.35.54-1.95,1.75-1.95h.07v-.94h-.07c-.81,0-1.35.27-1.75,1.08v-.94h-.81v4.98h.81Z"/>
  <path class="cls-3" d="M101.11,29.96h-.61c-.4,0-.61-.27-.61-.67v-2.76h1.21v-.81h-1.21v-1.48h-.87v4.98c0,1.08.54,1.55,1.48,1.55h.61v-.81h0Z"/>
  <path class="cls-3" d="M93.11,34.87h-1.08v-.87h3.16v.87h-1.14v.2c0,.74.07,1.68.47,2.29.34.61.54.74.87,1.01l-.61.67c-.2-.2-.47-.47-.74-.81-.2-.27-.34-.54-.47-.81-.07.27-.2.54-.47.94-.27.4-.47.67-.81.94l-.74-.54c.4-.34.94-1.01,1.21-1.61.34-.74.4-1.35.4-2.09l-.07-.2h0ZM96.74,40.05h-.87v-3.5h-1.01v-.87h1.01v-2.35h.87v6.73ZM98.15,40.39h-.87v-7.33h.87v7.33Z"/>
  <path class="cls-3" d="M102.66,35.21c0,1.01-.87,1.68-1.82,1.68s-1.82-.67-1.82-1.68.87-1.68,1.82-1.68,1.82.67,1.82,1.68ZM101.72,35.21c0-.47-.47-.81-.94-.81s-.94.4-.94.81c0,.47.47.87.94.87.47-.07.94-.4.94-.87ZM105.08,40.39h-5.11v-1.88h3.97v-.47h-3.97v-.74h4.91v1.88h-3.97v.47h4.1v.74h.07ZM104.88,37.02h-.87v-3.7h.87v3.7Z"/>
  <path class="cls-3" d="M112.62,37.69h-6.8v-.81h6.8v.81ZM111.88,34.8c0,.87-1.01,1.55-2.62,1.55s-2.62-.61-2.62-1.55c0-.87,1.01-1.55,2.62-1.55,1.61.07,2.62.67,2.62,1.55ZM112.01,40.39h-5.32v-2.22h.94v1.35h4.37v.87ZM110.87,34.8c0-.4-.74-.74-1.68-.74s-1.68.34-1.68.74.67.74,1.68.74c1.08,0,1.68-.34,1.68-.74Z"/>
  <path class="cls-3" d="M116.86,35.14h-3.43v-.74h3.43v.74ZM116.79,36.55c0,.67-.67,1.14-1.68,1.14-.94,0-1.68-.47-1.68-1.21,0-.67.67-1.14,1.68-1.14,1.01,0,1.68.47,1.68,1.21ZM116.05,33.99h-1.82v-.74h1.82v.74ZM115.92,36.55c0-.27-.34-.47-.74-.47s-.81.2-.81.47.34.47.81.47c.4,0,.74-.2.74-.47ZM119.62,39.24c0,.74-.94,1.35-2.62,1.35s-2.62-.61-2.62-1.35c0-.81.94-1.28,2.69-1.28,1.68-.07,2.56.54,2.56,1.28ZM118.61,39.24c0-.4-.61-.61-1.61-.61s-1.61.2-1.61.61.67.61,1.61.61,1.61-.2,1.61-.61ZM119.62,37.83h-.81v-1.82h-.67v1.61h-.81v-4.17h.81v1.68h.67v-1.82h.81v4.51Z"/>
</svg>