<?xml version="1.0" encoding="UTF-8"?>
<svg id="Layer_1" data-name="Layer 1" xmlns="http://www.w3.org/2000/svg" viewBox="0 0 172 62">
  <defs>
    <style>
      .cls-1 {
        fill: #003668;
      }

      .cls-2 {
        fill: #58595b;
      }

      .cls-3 {
        fill: #e6002d;
      }
    </style>
  </defs>
  <g>
    <path class="cls-1" d="M59,30.63c-2.35-1.61-5.32-.94-6.93,1.48-1.35,2.02-3.3,2.22-4.04,2.22-2.49,0-4.24-1.75-4.71-3.57h0v-.13c-.2-.74-.27-1.14-.27-1.95,0-4.37,4.44-9.22,10.9-9.22s10.36,5.05,11.3,7.8q0-.07-.07-.13c-1.88-5.45-7.06-9.35-13.12-9.35-7.67,0-13.86,6.19-13.86,13.86,0,6.86,4.91,12.72,11.77,12.72,5.45,0,9.15-3.09,10.83-7.27.94-2.35.27-5.05-1.82-6.46Z"/>
    <path class="cls-3" d="M65.39,27.54c-.81-2.69-4.58-8.07-11.44-8.07-6.46,0-10.9,4.84-10.9,9.22,0,.81.07,1.14.27,1.95-.07-.34-.13-.67-.13-1.01,0-4.51,4.51-7.67,9.22-7.67,6.32,0,11.44,5.11,11.44,11.44,0,4.98-2.83,9.22-7,11.3h0c5.32-1.95,9.15-7.06,9.15-13.05,0-1.41-.2-2.69-.61-4.1Z"/>
  </g>
  <g>
    <path class="cls-2" d="M82.14,33.39v3.84h-1.35v-2.69h-7.33v-1.21h3.7v-1.61h-4.44v-1.14h10.16v1.21h-4.44v1.61h3.7ZM82.14,26.33v3.3h-1.35v-2.09h-7.2v-1.21h8.54Z"/>
    <path class="cls-2" d="M89.41,35.75h-1.35v-7.67h-4.1v-1.21h5.52v8.88h-.07ZM93.04,37.23h-1.35v-11.1h1.35v4.31h1.61v1.35h-1.61v5.45Z"/>
    <path class="cls-2" d="M105.89,35.14v1.21h-10.16v-1.21h4.37v-2.22h-3.57v-6.32h1.35v1.61h5.85v-1.61h1.35v6.32h-3.57v2.22h4.37ZM103.67,31.71v-2.35h-5.85v2.35h5.85Z"/>
    <path class="cls-2" d="M117.47,32.04v1.21h-4.37v1.55h-1.41v-1.55h-4.44v-1.21h10.23ZM116.79,26.86v1.21h-2.42c.13.13.2.27.27.47.13.27.2.61.2.87,0,.34-.07.61-.2.87s-.34.54-.54.74c-.2.2-.47.4-.81.47-.34.13-.61.2-1.01.2-.34,0-.67-.07-1.01-.2-.34-.13-.61-.27-.81-.47-.2-.2-.4-.4-.54-.74-.13-.27-.2-.54-.2-.87s.07-.61.2-.87c.07-.13.2-.34.27-.47h-2.35v-1.21h3.63v-1.21h1.61v1.21h3.7ZM109.53,34v1.82h7.27v1.21h-8.68v-3.03h1.41ZM113.56,29.35c0-.34-.13-.61-.34-.81-.27-.2-.54-.34-.87-.34s-.61.13-.87.34c-.27.2-.34.54-.34.81,0,.34.13.61.34.81.27.2.54.34.87.34s.61-.13.87-.34c.2-.2.34-.54.34-.81Z"/>
    <path class="cls-2" d="M121.64,27.2v-1.21h1.48v1.21h2.62v1.21h-2.83l3.09,6.86-1.14.54-2.49-5.72-2.49,5.79-1.14-.54,3.09-6.93h-2.96v-1.21h2.76ZM127.22,31.71h-2.02v-1.21h2.02v-4.37h1.35v11.1h-1.35v-5.52Z"/>
  </g>
</svg>