<?xml version="1.0" encoding="UTF-8"?>
<svg id="Layer_1" data-name="Layer 1" xmlns="http://www.w3.org/2000/svg" viewBox="0 0 172 62">
  <defs>
    <style>
      .cls-1 {
        fill: #b32572;
      }

      .cls-2 {
        fill: #7d7d7d;
      }

      .cls-3 {
        fill: #009877;
      }

      .cls-4 {
        fill: #e65300;
      }

      .cls-5 {
        fill: #ff9e18;
      }

      .cls-6 {
        fill: #002e6d;
      }
    </style>
  </defs>
  <g>
    <g>
      <polygon class="cls-2" points="85.91 26.41 85.18 26.41 85.18 22.19 85.18 21.58 81.99 21.58 81.99 22.19 82.77 22.19 82.77 36.49 85.18 36.49 85.18 27.98 85.91 27.98 85.91 36.49 88.32 36.49 88.32 21.58 85.91 21.58 85.91 26.41"/>
      <path class="cls-2" d="M102.98,31.54h-6.21v-1.69h-3.26v.6h.84v4.34c0,.72.54,1.57,1.63,1.57h9.47v-6.46h-2.47s0,1.63,0,1.63ZM102.98,34.74h-6.21v-1.63h6.21v1.63Z"/>
      <path class="cls-2" d="M99.79,28.82v-6.88h-2.47v1.87h-2.96v-1.87h-3.32v.6h.84v4.77c0,.72.54,1.57,1.63,1.57h6.28v-.06ZM94.36,25.38h2.96v1.87h-2.96v-1.87Z"/>
      <path class="cls-2" d="M112.76,34.74v-3.62h-3.26v.6h.78v2.9c0,.72.48,1.75,1.63,1.75h10.56v-1.63h-9.71Z"/>
      <path class="cls-2" d="M113.3,32.2h2.47v-3.32h4.28v1.15h-2.59v1.57h2.59v1.63h2.47v-11.65h-3.32v.6h.78v5.19h-2.41c.6-.6.97-1.45.97-2.29,0-1.15-.6-2.17-1.63-2.84-.72-.48-1.81-.66-2.78-.66s-2.05.24-2.78.66c-1.03.66-1.63,1.69-1.63,2.84,0,.84.36,1.69.97,2.29h-1.93v1.57h4.53v3.26h0ZM112.88,23.27c.36-.3.84-.42,1.27-.42s.97.12,1.27.42c.48.42.72,1.03.72,1.75s-.24,1.39-.72,1.75c-.36.3-.84.42-1.27.42s-.97-.12-1.27-.42c-.48-.42-.72-1.03-.72-1.75,0-.66.24-1.33.72-1.75Z"/>
      <path class="cls-2" d="M74.02,22.55v.6h.72v9.05c0,.66.54,1.51,1.63,1.51h7.36v-1.57h-6.52v-8.03h3.62v-1.57h-6.82Z"/>
      <polygon class="cls-2" points="102.14 21.58 102.14 22.19 102.98 22.19 102.98 24.42 100.69 24.42 100.69 25.99 102.98 25.99 102.98 29 105.46 29 105.46 21.58 105.34 21.58 102.14 21.58"/>
    </g>
    <g>
      <path class="cls-2" d="M74.62,41.8h.12c0,.42.24.84.6.84.24,0,.42-.12.42-.48,0-.66-1.09-.48-1.09-1.45,0-.6.36-.84.66-.84.18,0,.3.06.54.18v.66h-.12c-.06-.36-.24-.72-.54-.72-.18,0-.3.18-.3.42,0,.6,1.09.36,1.09,1.45,0,.48-.3.84-.72.84-.24,0-.42-.06-.66-.18v-.72Z"/>
      <path class="cls-2" d="M76.43,39.92h.97v.12h-.3v1.99c0,.42.24.6.48.6.3,0,.54-.18.54-.66v-1.93h-.3v-.12h.66v.12h-.24v1.87c0,.66-.3.84-.72.84-.54,0-.84-.12-.84-.78v-1.93h-.24v-.12Z"/>
      <path class="cls-2" d="M79.63,40.05h.24c.3,0,.42.18.42.66s-.06.66-.42.66h-.24v-1.33ZM78.91,42.7h1.03v-.12h-.3v-1.15h.3c.36,0,.78-.06.78-.78,0-.78-.48-.78-.72-.78h-1.09v.12h.24v2.53h-.24v.18Z"/>
      <path class="cls-2" d="M81.87,40.05h.12c.3,0,.42.12.42.6s-.12.6-.36.6h-.18s0-1.21,0-1.21ZM82.17,42.7v-.12h-.3v-1.21h.18c.24,0,.42.06.42.6,0,.36,0,.78.42.78h.3v-.12c-.24,0-.24-.3-.24-.54,0-.6-.18-.72-.6-.78h0c.3-.06.48-.3.48-.72,0-.6-.42-.6-.72-.6h-.91v.12h.24v2.53h-.24v.12h.97v-.06Z"/>
      <path class="cls-2" d="M83.49,42.58h.24v-2.53h-.24v-.12h1.69v.91h-.06c-.06-.6-.36-.78-.72-.78h-.18v1.21c.3,0,.48-.18.48-.54h.06v1.27h-.06c0-.48-.18-.6-.48-.6v1.27h.3c.3,0,.66-.18.72-.84h.06v.97h-1.75v-.18h-.06Z"/>
      <path class="cls-2" d="M85.73,42.58h.3v-2.53h-.3v-.12h.72l.54,2.05.6-2.05h.72v.12h-.3v2.53h.3v.12h-.97v-.12h.3v-2.35h0l-.72,2.53h-.12l-.72-2.53h0v2.35h.3v.12h-.66s0-.12,0-.12Z"/>
      <path class="cls-2" d="M88.74,42.58h.24v-2.53h-.24v-.12h1.69v.91h-.06c-.06-.6-.36-.78-.72-.78h-.18v1.21c.3,0,.42-.18.42-.54h.06v1.27h-.06c0-.48-.18-.6-.42-.6v1.27h.3c.3,0,.66-.18.72-.84h.06v.97h-1.75v-.18h-.06Z"/>
      <path class="cls-2" d="M93.87,40.89h-.06c0-.48-.3-.91-.6-.91-.54,0-.6.78-.6,1.33,0,.48.06,1.33.6,1.33.3,0,.6-.42.66-.91h.06v.78c-.18.12-.48.24-.72.24-.6,0-1.03-.6-1.03-1.45s.42-1.45,1.03-1.45c.24,0,.48.06.72.24v.78h-.06Z"/>
      <path class="cls-2" d="M94.96,41.31c0-.48.06-1.33.54-1.33s.54.84.54,1.33-.06,1.33-.54,1.33c-.54,0-.54-.84-.54-1.33ZM94.48,41.31c0,.84.42,1.45,1.03,1.45s1.03-.6,1.03-1.45-.42-1.45-1.03-1.45c-.66,0-1.03.6-1.03,1.45Z"/>
      <path class="cls-2" d="M97.01,39.92h.97v.12h-.3v1.99c0,.42.24.6.48.6.3,0,.54-.18.54-.66v-1.93h-.3v-.12h.66v.12h-.24v1.87c0,.66-.3.84-.72.84-.54,0-.84-.12-.84-.78v-1.93h-.24v-.12Z"/>
      <path class="cls-2" d="M100.21,40.05h.12c.3,0,.42.12.42.6s-.12.6-.36.6h-.18s0-1.21,0-1.21ZM100.51,42.7v-.12h-.3v-1.21h.18c.24,0,.42.06.42.6,0,.36,0,.78.42.78h.3v-.12c-.24,0-.24-.3-.24-.54,0-.6-.18-.72-.6-.78h0c.3-.06.48-.3.48-.72,0-.6-.42-.6-.72-.6h-.91v.12h.24v2.53h-.24v.12h.97v-.06Z"/>
      <path class="cls-2" d="M102.32,42.58h.24v-2.53h-.12c-.42,0-.54.42-.54.84h-.06v-.97h1.93v.97h-.06c0-.42-.18-.84-.54-.84h-.12v2.53h.24v.12h-.97s0-.12,0-.12Z"/>
      <path class="cls-2" d="M105.82,41.31c0-.48.06-1.33.54-1.33s.54.84.54,1.33-.06,1.33-.54,1.33c-.54,0-.54-.84-.54-1.33ZM105.34,41.31c0,.84.42,1.45,1.03,1.45s1.03-.6,1.03-1.45-.42-1.45-1.03-1.45c-.66,0-1.03.6-1.03,1.45Z"/>
      <path class="cls-2" d="M109.56,40.83h-.06c-.06-.6-.36-.78-.72-.78h-.24v1.27c.3,0,.54-.06.54-.6h.06v1.33h-.06c0-.54-.18-.6-.54-.6v1.21h.3v.12h-.97v-.18h.24v-2.53h-.24v-.12h1.75v.91h-.06Z"/>
      <path class="cls-2" d="M111.01,42.58h.24v-2.53h-.24v-.12h.97v.12h-.24v1.15h.18l.6-1.15h-.3v-.12h.66v.12h-.3l-.42.78.78,1.75h.18v.12h-.97v-.12h.24l-.54-1.33h-.18v1.33h.24v.12h-.97v-.12h.06Z"/>
      <path class="cls-2" d="M114.03,41.31c0-.48.06-1.33.54-1.33s.54.84.54,1.33-.06,1.33-.54,1.33-.54-.84-.54-1.33ZM113.54,41.31c0,.84.42,1.45,1.03,1.45s1.03-.6,1.03-1.45-.42-1.45-1.03-1.45-1.03.6-1.03,1.45Z"/>
      <path class="cls-2" d="M116.8,40.05h.12c.3,0,.42.12.42.6s-.12.6-.36.6h-.18v-1.21h0ZM117.16,42.7v-.12h-.3v-1.21h.18c.24,0,.42.06.42.6,0,.36,0,.78.42.78h.3v-.12c-.24,0-.24-.3-.24-.54,0-.6-.18-.72-.6-.78h0c.3-.06.48-.3.48-.72,0-.6-.42-.6-.72-.6h-.97v.12h.24v2.53h-.24v.12h1.03v-.06Z"/>
      <path class="cls-2" d="M118.49,42.58h.24v-2.53h-.24v-.12h1.69v.91h-.06c-.06-.6-.36-.78-.72-.78h-.24v1.21c.3,0,.42-.18.42-.54h.06v1.27h-.06c0-.48-.18-.6-.42-.6v1.27h.3c.3,0,.66-.18.72-.84h.06v.97h-1.75v-.18h0Z"/>
      <path class="cls-2" d="M121.69,41.67h-.42l.24-.91h0l.18.91ZM120.72,42.7h.6v-.12h-.24l.18-.78h.48l.18.78h-.3v.12h.97v-.12h-.24l-.66-2.65h-.12l-.66,2.65h-.24v.12h.06Z"/>
    </g>
  </g>
  <g>
    <path class="cls-6" d="M41.98,39.32l-.06-.06c.24-.18.42-.6.24-.84-.12-.12-.3-.24-.54-.06-.48.36.24.97-.42,1.45-.42.3-.72.18-.91,0-.06-.12-.12-.24-.18-.48l.42-.36.06.06c-.24.24-.36.54-.18.72.06.12.24.12.42,0,.42-.3-.3-.91.42-1.45.36-.24.72-.24.91.06.12.12.18.3.18.54l-.36.42Z"/>
    <path class="cls-6" d="M39.21,38.05l-.36-.72.06-.06.12.24,1.51-.72c.36-.18.36-.36.24-.6s-.3-.36-.72-.18l-1.45.72.12.24-.06.06-.24-.48.06-.06.12.18,1.39-.72c.48-.24.78-.06.91.24.18.36.18.66-.24.91l-1.45.72.12.18-.12.06Z"/>
    <path class="cls-6" d="M37.82,34.25l-.06-.18c-.06-.24.06-.36.42-.48.36-.12.54-.06.6.18l.06.18-1.03.3ZM40.11,34.25l-.18-.78h-.12l.06.24-.91.24-.06-.24c-.06-.3-.24-.6-.78-.48-.6.18-.54.54-.48.72l.24.84h.12l-.06-.24,2.05-.48.06.24.06-.06Z"/>
    <path class="cls-6" d="M37.34,30.99v-.06c0-.24.06-.36.48-.36s.48.06.48.24v.12l-.97.06ZM39.57,30.69h-.12v.24h-1.03v-.12c0-.18.06-.36.48-.36.3,0,.66,0,.66-.36v-.24h-.12c0,.18-.24.18-.48.24-.48,0-.6.18-.66.48h0c-.06-.24-.24-.42-.6-.42-.48,0-.48.36-.48.6v.78h.12v-.24l2.11-.06v.24h.12v-.78Z"/>
    <path class="cls-6" d="M39.57,28.58l.06-.24-2.11-.42-.06.24h-.12l.3-1.39.72.12v.06c-.48-.06-.66.18-.72.48l-.06.18.97.18c.06-.24-.06-.42-.42-.48v-.06l1.03.18v.06c-.36-.06-.48.06-.54.3l1.03.18.06-.24c.06-.24-.06-.54-.54-.72v-.06l.78.12-.3,1.45-.06.06Z"/>
    <path class="cls-6" d="M40.23,25.81l.12-.18-1.93-.91-.12.18-.06-.06.24-.54,1.75.3-1.33-1.15.24-.54.06.06-.12.18,1.93.91.12-.18.06.06-.36.72-.06-.06.12-.24-1.81-.84h0l1.69,1.45-.06.12-2.17-.36h0l1.81.84.12-.24.06.06-.24.48-.06-.06Z"/>
    <path class="cls-6" d="M41.86,22.79l.12-.18-1.69-1.33-.12.18-.06-.06.84-1.09.6.48-.06.06c-.42-.24-.66-.18-.91.06l-.12.12.78.6c.12-.18.12-.36-.12-.6l.06-.06.84.66-.06.06c-.3-.24-.48-.18-.6,0l.84.66.12-.18c.18-.18.24-.54-.18-.91l.06-.06.6.48-.91,1.15-.06-.06Z"/>
    <path class="cls-6" d="M45.72,17.42h0c-.3-.3-.66-.48-.91-.36-.36.24-.06.84.18,1.21s.6.91.97.72c.24-.12.24-.54.06-.91l.06-.06.36.54c-.12.18-.24.36-.42.48-.42.3-.97,0-1.39-.6-.36-.6-.36-1.21.12-1.45.18-.12.36-.12.6-.18l.36.6Z"/>
    <path class="cls-6" d="M47.83,16.88c-.12-.36-.3-1.09.06-1.21.42-.12.66.54.78.91s.3,1.09-.06,1.21c-.42.12-.66-.54-.78-.91ZM47.47,17c.24.66.72,1.03,1.21.91.48-.18.66-.72.42-1.39-.24-.66-.72-1.03-1.21-.91-.48.12-.66.72-.42,1.39Z"/>
    <path class="cls-6" d="M50.55,14.94l.84-.06v.12h-.24l.12,1.63c.06.36.24.48.42.48.24,0,.42-.18.42-.6l-.12-1.57h-.24v-.12l.54-.06v.12h-.24l.12,1.57c.06.54-.24.72-.54.78-.42.06-.66-.06-.72-.6l-.12-1.63h-.24v-.06Z"/>
    <path class="cls-6" d="M54.65,15.07h.12c.24.06.3.12.24.54-.06.42-.18.48-.36.48h-.12l.12-1.03ZM54.59,17.3v-.12l-.24-.06.12-1.03h.12c.18,0,.3.12.24.54-.06.3-.06.66.24.72l.24.06v-.12c-.18,0-.18-.24-.12-.48.06-.48-.06-.6-.36-.72h0c.24-.06.42-.18.48-.54.06-.48-.3-.54-.54-.6l-.72-.12v.12h.24l-.3,2.11h-.24v.12l.84.12Z"/>
    <path class="cls-6" d="M57.07,17.78l.18.06.72-1.99h-.06c-.3-.12-.54.18-.66.48h-.06l.3-.72,1.51.54-.3.72h-.06c.12-.3.12-.72-.18-.78h-.06l-.72,1.99.18.06-.06.12-.78-.42.06-.06Z"/>
    <path class="cls-6" d="M62.01,19.35c.3-.3.78-.78,1.09-.54.3.3-.12.84-.42,1.15s-.78.78-1.09.54c-.3-.3.12-.84.42-1.15ZM61.71,19.05c-.48.54-.54,1.15-.18,1.45.36.36.97.18,1.45-.36.48-.54.54-1.15.18-1.45-.42-.3-.97-.18-1.45.36Z"/>
    <path class="cls-6" d="M65.27,22.31h0c.36-.36.3-.66.12-.91l-.12-.18-.84.6c.18.18.3.3.66.06l.06.06-.91.66-.06-.06c.36-.24.3-.42.12-.66l-.84.6.18.18-.06.06-.48-.66.06-.06.12.18,1.75-1.27-.12-.18.06-.06.84,1.15-.54.48Z"/>
    <path class="cls-6" d="M65.45,26.05l.06.24,2.05-.54-.06-.24h.12l.18.78h-.12l-.06-.24-.91.24.06.12,1.09.24-.06-.24h.12l.18.54h-.12l-.06-.24-.72-.18-1.27,1.03.06.18h-.12l-.24-.78h.12l.06.18.91-.72-.06-.12-1.03.3.06.24h-.12l-.18-.78h.06Z"/>
    <path class="cls-6" d="M67.14,29.43c.42,0,1.09,0,1.15.42,0,.42-.66.48-1.09.48s-1.09,0-1.15-.42c0-.42.72-.48,1.09-.48ZM67.14,29c-.72,0-1.21.36-1.21.91s.54.84,1.27.84,1.21-.36,1.15-.91c0-.54-.48-.84-1.21-.84Z"/>
    <path class="cls-6" d="M67.99,33.17v.06c-.06.24-.12.3-.54.24-.42-.06-.48-.18-.42-.36v-.12l.97.18ZM65.76,32.99h.12l.06-.24,1.03.18v.12c-.06.18-.12.3-.54.24-.3-.06-.66-.12-.72.18l-.06.24h.06c.06-.18.24-.18.48-.12.48.12.6-.06.72-.36h0c.06.24.12.48.48.54.48.12.6-.24.6-.48l.12-.72h-.12l-.06.24-2.11-.42.06-.24h-.12v.84Z"/>
    <path class="cls-6" d="M65.33,35.04l-.06.18,1.99.84.06-.18.06.06-.54,1.27-.66-.3v-.06c.48.18.72,0,.84-.3l.06-.18-.91-.42c-.12.24,0,.42.3.54v.06l-.97-.42v-.06c.36.18.48.06.6-.12l-.97-.42-.12.24c-.12.24-.06.54.42.84v.06l-.72-.3.6-1.33h0Z"/>
    <path class="cls-6" d="M64.19,38.66l.24-.3.48.6h0l-.72-.3ZM64.01,37.51l-.3.42.06.06.12-.18.42.54-.24.36-.66-.24.12-.18-.06-.06-.48.66.06.06.12-.18,2.17.84.06-.06-1.51-1.75.12-.12v-.18Z"/>
    <g>
      <g>
        <path class="cls-6" d="M56.4,31.06c-.48.06-2.23.06-2.23.06.24.78,1.99,1.15,3.08.18-.3-.97-1.33-3.14-1.33-3.14,0,0,.84,2.84.48,2.9Z"/>
        <path class="cls-6" d="M61.71,27.92s.84,2.78.42,2.84c-.48.06-2.23.06-2.23.06.24.78,1.99,1.15,3.08.18-.24-.91-1.27-3.08-1.27-3.08Z"/>
      </g>
      <g>
        <path class="cls-6" d="M46.33,36.06c1.21,2.23,2.78,3.44,4.83,5.01-1.69-.66-4.16-2.65-4.89-3.62v6.15c0,.42-1.39.78-1.81,1.09-.12.06.18.3.18.3.06,0,1.63-.12,2.78-.12.06-.91.42-2.23.78-3.74.72,1.21,1.81,2.72,2.96,3.86,6.03,0,8.27-2.9,9.84-4.89-1.03.24-5.85.78-8.39-2.65,2.41,1.09,5.07.72,6.82-.06-4.16-.18-7.6-1.63-8.63-3.98.91,1.03,3.08,1.93,4.83,1.57-1.21-.48-2.47-1.15-3.44-1.99-1.33-.24-2.96-.66-4.59-1.57-.54,1.39-.97,2.9-1.27,4.65Z"/>
        <path class="cls-6" d="M61.41,26.95h0c-.12-.3-1.57-.3-3.02-.18,0-.18-.06-3.14-.18-4.1.18,0,.42.06.6.06l1.39-.97c-2.9-.6-7.66,3.32-7.9,3.56h0c-1.57,1.27-2.96,2.84-3.98,4.83-.06.12-.12.18-.12.3.84.66,1.93,1.21,3.2,1.69-.12-.18-.24-.36-.36-.54-.54-1.09-.54-2.41.42-3.98.48-.42,1.33-.66,1.93-1.03,1.21-1.99,3.26-3.62,3.8-3.98.12,0,.48,0,.91.06,0,.78,0,3.26-.06,4.16-1.03.06-2.05.18-2.72.36,0,.06.06.12.18.18v.06c-.91,2.59-.97,2.96-1.15,3.56.48-1.03.91-1.75,1.15-2.47,0,.42.06,1.09.18,1.87.12-1.57.24-2.53.12-2.9,1.21.24,4.59-.24,5.49-.36v.06c-.91,2.59-.97,2.96-1.15,3.56.48-1.03.91-1.75,1.15-2.47,0,.42.06,1.09.18,1.87-.06-1.93.12-2.96-.06-3.2Z"/>
        <path class="cls-1" d="M43.07,26.53c-.48.06-.91.12-.97.12-.42.06-.54.6-.48,1.03l.91,4.65c.6-.06,2.23-.36,3.02-.42-.06.12-.12.66-.24,1.03.12,1.27.48,2.17,1.03,3.14.24-1.75.66-3.26,1.27-4.59-1.69-.97-3.38-2.47-4.53-4.95Z"/>
        <path class="cls-3" d="M48.08,30.39c.06-.12.12-.18.12-.3,1.09-1.99,2.41-3.62,3.98-4.83-.36.06-1.45.18-2.23.36-.12-.18-.12-.24-.24-.78,0,0,.42-.12.54-.18.24-.66.6-1.93.3-2.78-1.39,0-1.93.6-2.96,1.27,0,0,.24.84.78,1.33-.06.48-.06.78-.18,1.57,0,0-.91.3-1.45.54,0,0-.54.36-.97.78.48,1.27,1.27,2.23,2.29,3.02Z"/>
        <path class="cls-4" d="M47.71,31.18c-.06.12-.06.18-.12.3,1.57.91,3.2,1.33,4.59,1.57-.18-.18-.36-.3-.48-.48s-.24-.3-.36-.48c-1.27-.48-2.35-1.03-3.2-1.69-.18.3-.3.54-.42.78Z"/>
        <path class="cls-5" d="M47.59,31.48c.06-.12.06-.18.12-.3.12-.24.24-.54.36-.78-1.03-.78-1.81-1.75-2.23-2.96-.18-.6-.3-1.15-.3-1.15,0,0-1.45.12-2.41.24,1.09,2.47,2.78,3.98,4.47,4.95Z"/>
      </g>
    </g>
  </g>
</svg>