<?xml version="1.0" encoding="UTF-8"?>
<svg id="Layer_1" data-name="Layer 1" xmlns="http://www.w3.org/2000/svg" viewBox="0 0 172 62">
  <defs>
    <style>
      .cls-1 {
        fill: #231815;
      }

      .cls-2 {
        fill: #00933b;
      }

      .cls-3 {
        fill: #c2002f;
      }

      .cls-4 {
        fill: #0080c8;
      }
    </style>
  </defs>
  <g>
    <path class="cls-3" d="M50.22,19.65c.07.07.13.13.13.2.07.2.27.34.34.61,0,.07.13.13.13.13.07.07,0,.13.13.27.07,0,0,.13,0,.2.07,0,.13.07.13.07.47.74.54,1.55,0,2.35-.07.07-.2.2-.2.34-.07.07-.13.07-.2.13,0,.07.07.13.13.2-.2.07-.27.27-.4.4h-.2c-.13.13-.27.2-.4.27-.07.07,0,.13,0,.2-.2.2-.54.27-.87.27-.07,0-.07.13-.13.13h-.74c-.07,0-.13-.07-.27-.13h-.27c-.13-.13-.34-.13-.47-.2-.07,0-.27.07-.4,0-.34-.27-.61-.54-.81-.87-.13-.2-.34-.27-.4-.4,0-.07,0-.2-.07-.2-.2-.07-.13-.2-.13-.27-.07-.13-.07-.2-.2-.27-.07-.13,0-.27-.07-.4,0-.07.07-.07.07-.13-.07-.2.07-.47,0-.67,0-.13,0-.27.07-.4.13-.27.2-.54.47-.74v-.13q.07-.07.13-.07c.07-.2.13-.34.27-.54.2-.2.4-.4.67-.61.13-.13.34-.2.4-.4.07-.07.2,0,.27,0,.13-.13.34-.13.47-.2.13-.07.13.13.27.07.07,0,.13-.07.2-.07.13-.07.27.07.47.07.13,0,.27,0,.47.13s.67.07.74.34c0,0,.2.13.27.34Z"/>
    <path class="cls-4" d="M58.29,22.67c0-.13,0-.2-.07-.34,0-.13.07-.27.07-.4,0-.07-.07-.07-.07-.13.07-.27.07-.47.07-.74,0-.07-.07-.13-.07-.2s0-.13.07-.2c0-.2-.07-.4-.13-.61,0-.07-.07-.13-.07-.27,0-.07-.07-.07-.07-.13.07-.34-.07-.61-.13-.94-.07-.34-.4-.61-.54-.94,0-.07.13,0,.13,0,.27.27.54.54.61.87.07.13,0,.27.07.34.2.27.27.61.34,1.01,0,.07.07,0,.07.07v.13c.2.2.07.4.13.61,0,.07.07.13.07.2s-.07.13-.13.2c.13.2.2.4.13.67.13.07.07.27.13.47,0,.07.07.07.07.07.07-.07.07-.13.13-.2v-.87c-.07-.13-.07-.27,0-.34-.07,0-.07-.07-.13-.13-.13-.47-.2-1.01-.34-1.55,0,0,.07,0,.07-.07-.07-.4-.4-.87-.54-1.28,0-.07-.13-.2-.2-.27v-.07c.2,0,.27.2.4.34.2.27.4.54.4.81.07.27.2.54.27.74.07.13.13.27.2.4s0,.27,0,.34c.07.27.13.54.2.81.07.2.07.47,0,.61-.07.34.13.67.2.94.07.13,0,.27-.07.34,0,.07.07.07.07.13-.07.13,0,.27-.07.4-.07,0,.07.13,0,.2q-.07,0-.13.07c-.07.13,0,.2,0,.34-.13.2-.07.47-.27.61-.07,0-.07.07-.13.07.07,0,.07.07.07.07q-.07,0-.13.07c0,.07.13.13.13.2-.07.27-.27.54-.27.87,0,.07-.07.2-.07.27-.07.2-.2.34-.27.47,0,.07-.13.07-.13.13-.07.07-.07.27-.13.4-.07.07-.13.07-.2.13-.07.13-.07.27-.13.4-.13.2-.2.34-.34.54-.13.27-.34.47-.54.67,0,0-.13,0-.13.07-.13.2-.2.34-.47.47-.07,0-.07.13-.13.2-.13.13-.27.27-.47.34-.07,0-.13.07-.2-.07-.27.47-.61.81-.94,1.08-.2.13-.4.07-.54.2-.4.4-1.08.81-1.14.87l-.13.2h-.2s0,.2-.2.27c-.34.07-.47.47-.47.67,0,.07-.07,0-.13.07-.07.07,0,.07-.07.13-.13.07-.27.27-.4.4-.07.07-.07,0-.13,0-.07.07-.2.27-.27.47-.13.34-.34.67-.54.94-.07.07.13.27.13.4-.07.13-.13.13-.2.27-.07.27-.07.61-.13.87-.07.27,0,.47.07.74.07.2,0,.47,0,.74,0,.2.13.34.13.54,0,.27-.07.2,0,.4,0,.13-.07.27,0,.34,0,.13-.07.27-.07.47-.07.07-.13.13-.13.13,0,.4-.27.81-.61,1.08-.2.13-.34.27-.54.27-.13,0-.47.2-.54.27-.27.07-.54.07-.81.07-.34-.07-.54-.13-.81-.47-.13-.13-.34-.07-.47-.34,0-.07-.2-.13-.27-.2-.13-.13-.27-.34-.4-.54-.07-.2,0-.4-.13-.61-.13-.13-.13-.2-.27-.34-.13-.2,0-.4-.07-.61-.07-.07-.13-.13-.2-.2-.07-.2-.07-.4-.13-.61-.07-.2,0-1.01,0-1.21,0-.07-.13-.13-.13-.13,0-.34.13-.61.07-.94,0-.2,0-.34.2-.47,0,0-.07-.07-.07-.13.07-.27.07-.4.13-.67,0-.07.07-.07.13-.13-.07-.2-.07-.54,0-.74,0-.07.27-.2.27-.27s0-.13.07-.27c0-.07.07,0,.13-.07v-.13c0-.13.27-.2.27-.34.07-.27.2-.4.4-.67.07-.13.07-.2.13-.34q.07,0,.07-.07v-.13c.07-.07.2-.2.2-.27.07-.13.13-.27.2-.34.13-.13.34-.27.4-.4.07-.07.2-.07.27-.2.13-.13.13-.34.27-.47.2-.27.47-.4.67-.61.2-.13.47-.2.61-.34.2-.13.34-.4.54-.54.13-.07.27-.07.4-.2.13-.07.2-.27.4-.27.4-.13.13,0,.47-.13.2-.13.13-.2.34-.34.4-.2.61-.34.61-.34.07,0,.07-.07.07-.13.07-.13.61-.47.67-.47s.13.07.27,0c.07-.07-.07-.13,0-.2.13-.13.27-.27.34-.4h.2c.07,0,.07-.13.07-.13.07-.07-.07-.13,0-.2.07-.13.13-.2.2-.2.13-.07.27-.13.27-.2,0-.13.07-.27.27-.34v-.13c.07-.07.13-.13.27-.27.07-.13.07-.27.13-.4.2-.2.34-.34.4-.61,0-.13-.07-.27,0-.4.07-.07.2-.13.2-.2,0-.13-.07-.34-.07-.47s.13-.2.13-.34c0-.34,0-.61-.07-.94.13,0,.13-.07.13-.13,0-.27-.13-.47-.2-.67,0-.13.13-.27.13-.4s-.13-.27-.27-.34c-.13-.13-.07-.34-.07-.54s-.2-.34-.2-.61c0-.13-.13-.13-.2-.27-.07-.13-.07-.34-.07-.54,0-.07-.13-.07-.2-.13-.13-.2-.07-.67-.4-.74,0-.13-.13-.2-.13-.27.2,0,.34.07.4.27,0,.07.13.07.13.07.07.07.07.34.2.4.13.13.27.07.34.2.07.2.2.34.27.47,0,.07,0,.13.07.13.13.13.13.2.2.34.2.27.4.47.34.81-.07.13.13.13.2.2.13.2.07.54.27.74,0,.4.13.74.27,1.08-.2.27-.07.81.07,1.14,0,0,.13,0,.13-.07,0-.2.34-.27.34-.34-.07-.2-.2-.61-.2-.81v-.87c0-.07-.07-.07-.07-.13-.07-.13-.07-.34-.07-.54,0-.07-.07-.13-.13-.2v-.13c.07,0,.2.07.2.07.07.07,0,.13.07.2.13.2.27.27.27.47v.13c0,.27.13.4.2.61,0,.13-.07.27-.07.4.13.27.13.67.13,1.01,0,.13.13.27.13.34-.07.13,0,.13-.07.2,0,.07-.07.07-.07.07.07.2-.07.54-.07.74,0,.07.13.07.13-.07,0-.07.13-.07.2-.13.47,0,.54-.13.54-.27ZM59.03,23.41c0-.2.07-.34.07-.54-.07-.2-.2,0-.34,0,.07.27-.07.4-.13.61-.07.07-.07.27,0,.27.2,0,.4-.13.4-.34ZM58.7,24.42c.07-.07,0-.2-.07-.2-.07-.07-.2,0-.27.13-.07.13,0,.27.13.27.07-.07.2-.13.2-.2Z"/>
    <path class="cls-4" d="M56.75,18.1c.2.13.27.34.4.54v.07c-.27.2-.47-.13-.54-.34s-.2-.4-.4-.61v-.13c-.07-.07-.2-.2-.07-.27.07-.07.13.07.2.13.13.2.2.47.4.61Z"/>
    <path class="cls-4" d="M57.76,17.16c0,.07-.07.13-.07.13-.13-.13-.2-.2-.34-.4,0,0-.07,0-.13-.07v-.07c.13,0,.2.07.27.13h.13c.07.07.13.13.13.27Z"/>
    <path class="cls-2" d="M42.62,23.95s.07.07.13.13c.07.07.13.07.2,0,.07,0,.13.13.13.13.07.07.13.2.2.27s.13.07.13.13c.07.07.13.2.2.27s.13.07.2.07c.13.07.13.2.2.27,0,0,.07.07.07.13.07.07.13.07.2.13,0,0,0,.07.07.13.2.34.47.54.67.87v.07c.2.2.27.47.47.74.07.07.07.27.13.4.07.07.13.13.13.2.07.13.13.27.13.47,0,.07-.07.27-.13.13-.13-.13-.13-.34-.27-.4,0,0,0-.13-.07-.13-.07-.07-.13-.07-.2-.13,0-.07-.07-.13-.13-.2-.13-.2-.34-.27-.47-.47h-.07c0,.07-.13.13-.07.27.13.07.13.2.27.27.07.07.13.27.13.4.07.07.13.13.2.13.07.07.07.13.13.27,0,0,0,.07-.07.07.07.07.13.07.27.2.07-.07.13,0,.2.07-.07.07-.07.13-.13.27-.07.13.13.27.27.34.07,0,.07.13.13.2.07.07.2.13.27.27,0,.07-.07.07-.07.13s.13.13.13.13q.07.07.07.13c-.07,0-.27-.07-.34-.07s-.13-.13-.27-.13c-.07,0-.07.07-.13.07h-.13c-.07,0-.2-.13-.27-.2-.07,0-.13.13-.2.13q-.27-.07-.34-.07c-.07-.07-.2-.07-.27-.13-.07,0-.07-.13-.07-.13-.07,0-.13,0-.2-.07-.2-.13-.4-.4-.54-.47s-.2-.13-.34-.2c-.07-.07-.13-.13-.2-.13-.27-.07-.4-.2-.67-.34-.54-.13-.94.13-1.35.34h-.07c-.07.07-.2.13-.34.2-.13.13-.34.13-.47.2-.07,0-.07.13-.07.13-.07.07-.2.07-.27.07-.07.07-.07.13-.13.13-.13.07-.27.2-.4.27-.07.07-.87.2-1.01.2-.2,0-.34.13-.61.13-.47,0-.87,0-1.28-.27-.07-.07-.07-.27-.13-.27-.13-.13-.13-.34-.2-.47-.07-.07-.13-.07-.13-.13.07-.47.27-.87.54-1.21.07-.13.2-.2.2-.34,0,0,.27-.34.4-.47v-.2c.2-.47.67-.74,1.01-1.14.07-.07.13-.2.27-.2.07,0,.13,0,.13-.07.07-.13.2-.2.27-.27.34-.2.61-.54.94-.61.07,0,.07-.07.13-.13.07-.07.2,0,.2,0,.27-.13.54-.4.81-.4.07,0,.07-.07.13-.07.27,0,.54-.2.81,0,.4-.2.74-.2.87-.07ZM44.5,26.64v-.07c-.13-.07-.13-.27-.27-.27,0,0-.07,0-.07.07,0,.2.07.34.13.47,0-.13.13-.13.2,0v-.2Z"/>
  </g>
  <g>
    <path class="cls-1" d="M71.48,35.26l-1.28,1.35-3.57-3.43c-.47.81-1.01,1.55-1.68,2.09-.67.61-1.28,1.01-1.95,1.41l-1.21-1.41c.67-.34,1.28-.74,1.82-1.21.47-.47.87-.94,1.21-1.48.34-.54.54-1.01.67-1.55s.2-1.08.2-1.55v-2.42h1.95v2.09c0,.4,0,.81-.07,1.14-.07.4-.13.74-.2,1.08l4.1,3.9ZM75.52,41.31h-1.88v-9.35h-3.84v-1.75h3.84v-4.71h1.82v15.81h.07Z"/>
    <path class="cls-1" d="M92.2,34.38h-6.59v.87h3.3v4.1h-6.32v.81h6.73v1.75h-8.68v-4.24h6.32v-.67h-6.39v-1.68h3.16v-.87h-6.46v-1.75h14.94v1.68h0ZM88.77,28.73c0,.47-.13.94-.34,1.35s-.47.74-.87,1.08c-.4.27-.81.54-1.35.67s-1.08.27-1.61.27-1.08-.07-1.55-.2c-.47-.13-.94-.4-1.35-.67s-.67-.67-.87-1.08-.34-.87-.34-1.41.13-1.01.34-1.41.47-.81.87-1.08c.34-.27.81-.54,1.28-.67s1.01-.27,1.61-.27c.54,0,1.08.07,1.61.27.54.13.94.4,1.35.67s.67.67.87,1.08c.2.4.34.87.34,1.41ZM86.82,28.73c0-.54-.2-1.01-.67-1.28-.47-.34-.94-.47-1.55-.47s-1.14.13-1.55.47-.61.74-.61,1.28.2.94.61,1.28c.4.27.94.47,1.55.47s1.14-.13,1.55-.4c.47-.34.67-.81.67-1.35Z"/>
    <path class="cls-1" d="M107.95,35.46h-14.94v-1.75h14.94v1.75ZM104.72,41.85h-1.88v-3.63h-6.66v-1.75h8.54v5.38ZM104.65,32.83h-8.41v-6.86h8.34v1.75h-6.46v.74h6.26v1.75h-6.26v.81h6.59v1.82h-.07Z"/>
    <path class="cls-1" d="M116.29,33.51h-7.06v-7.27h1.82v2.09h3.36v-2.09h1.88v7.27ZM114.41,31.76v-1.61h-3.36v1.61h3.36ZM121.54,41.85h-8.54v-4.37h6.19v-.87h-6.32v-1.75h8.21v4.37h-6.19v.87h6.59v1.75h.07ZM121.67,34.31h-1.82v-1.68h-3.03v-1.75h3.03v-1.28h-3.03v-1.75h3.03v-2.49h1.82v8.95Z"/>
    <path class="cls-1" d="M133.04,35.32l-1.28,1.35-3.5-3.5c-.47.81-1.01,1.55-1.61,2.09-.67.61-1.28,1.08-1.95,1.41l-1.21-1.41c.74-.4,1.28-.81,1.82-1.28.47-.47.87-.94,1.21-1.48.27-.54.54-1.01.67-1.55s.2-1.01.2-1.55v-2.49h1.95v2.15c0,.4,0,.81-.07,1.14s-.13.74-.2,1.08l3.97,4.04ZM136.88,41.31h-1.88v-15.88h1.88v15.88Z"/>
  </g>
</svg>