<?xml version="1.0" encoding="UTF-8"?>
<svg id="Layer_1" data-name="Layer 1" xmlns="http://www.w3.org/2000/svg" viewBox="0 0 172 62">
  <defs>
    <style>
      .cls-1 {
        fill: #fff;
      }

      .cls-2 {
        fill: #7b868c;
      }

      .cls-3 {
        fill: #c7004e;
      }
    </style>
  </defs>
  <path class="cls-3" d="M43.23,18.03c-6.95,0-12.63,5.68-12.63,12.63s5.68,12.63,12.63,12.63,12.63-5.68,12.63-12.63-5.56-12.63-12.63-12.63Z"/>
  <polygon class="cls-1" points="42.85 25.3 42.85 36.03 46.2 36.03 46.2 35.09 43.8 35.09 43.8 25.3 42.85 25.3"/>
  <path class="cls-1" d="M39.38,28.2c.82,0,1.45-.63,1.45-1.45s-.69-1.45-1.45-1.45c-.82,0-1.45.63-1.45,1.45s.57,1.45,1.45,1.45Z"/>
  <path class="cls-1" d="M43.8,20.37h-.51c-5.68,0-10.29,4.61-10.29,10.29,0,2.78,1.07,5.31,3.03,7.26s4.55,3.03,7.26,3.03,5.31-1.07,7.26-3.03,3.03-4.55,3.03-7.26v-.44h-7.39v.95h6.38v.13c-.32,4.86-4.36,8.72-9.28,8.72-2.46,0-4.86-.95-6.57-2.72-1.77-1.77-2.72-4.11-2.72-6.63s.95-4.86,2.72-6.57c1.77-1.77,4.11-2.72,6.57-2.72h.51s0-1.01,0-1.01Z"/>
  <g>
    <path class="cls-2" d="M61.67,24.48h3.66v9.28h5.43v3.09h-9.09v-12.38Z"/>
    <path class="cls-2" d="M80.31,35.65c-.63,1.01-1.83,1.58-3.35,1.58-3.22,0-5.31-2.59-5.31-6.57s2.4-6.51,6.25-6.51c1.58,0,2.91.44,3.92,1.2,1.01.82,1.45,1.64,1.58,3.28h-3.85c-.13-.95-.82-1.58-1.77-1.58-1.45,0-2.34,1.39-2.34,3.66s.88,3.73,2.4,3.73c1.2,0,1.89-.63,2.15-2.15h-2.34v-2.59h5.75v7.26h-3.16l.06-1.33h0Z"/>
    <g>
      <path class="cls-2" d="M99.89,31.93c-.25,3.28-2.34,5.12-5.68,5.12-3.85,0-6-2.27-6-6.44s2.21-6.57,6-6.57c1.58,0,3.16.57,4.11,1.45s1.39,1.89,1.45,3.54h-3.73c0-1.2-.76-2.02-1.83-2.02-1.45,0-2.21,1.26-2.21,3.54,0,2.15.76,3.35,2.21,3.35,1.01,0,1.77-.76,1.89-2.08h3.79v.13h0Z"/>
      <path class="cls-2" d="M112.2,36.6h-4.74l-2.97-7.45v7.45h-3.09v-12h4.8l2.91,7.26v-7.26h3.09v12h0Z"/>
      <path class="cls-2" d="M117.44,32.75c.06,1.01.51,1.52,1.52,1.52.88,0,1.52-.38,1.52-1.07,0-.57-.44-.82-2.34-1.33-1.83-.44-2.59-.76-3.28-1.39-.69-.63-1.07-1.52-1.07-2.53,0-2.34,2.02-3.92,5.18-3.92,1.77,0,3.35.51,4.17,1.39.63.69.88,1.45.95,2.72h-3.85c-.06-.95-.44-1.39-1.33-1.39-.76,0-1.33.38-1.33.88,0,.32.19.57.51.76.38.19.44.19,1.89.57,1.64.44,2.53.82,3.22,1.39.69.69,1.14,1.58,1.14,2.59,0,2.46-2.08,3.98-5.43,3.98s-5.31-1.58-5.31-4.29h3.85v.13Z"/>
    </g>
  </g>
</svg>