<?xml version="1.0" encoding="UTF-8"?>
<svg id="Layer_1" data-name="Layer 1" xmlns="http://www.w3.org/2000/svg" viewBox="0 0 172 62">
  <defs>
    <style>
      .cls-1 {
        fill: #003668;
      }

      .cls-2 {
        fill: #58595b;
      }

      .cls-3 {
        fill: #e6002d;
      }
    </style>
  </defs>
  <g>
    <path class="cls-1" d="M59,30.03c-2.35-1.61-5.32-.94-6.93,1.48-1.35,2.02-3.3,2.22-4.04,2.22-2.49,0-4.24-1.75-4.71-3.57h0v-.13c-.2-.74-.27-1.14-.27-1.95,0-4.37,4.44-9.22,10.9-9.22s10.36,5.05,11.3,7.8q0-.07-.07-.13c-1.88-5.45-7.06-9.35-13.12-9.35-7.67,0-13.86,6.19-13.86,13.86,0,6.86,4.91,12.72,11.77,12.72,5.45,0,9.15-3.09,10.83-7.27.94-2.35.27-5.05-1.82-6.46Z"/>
    <path class="cls-3" d="M65.32,26.93c-.81-2.69-4.58-8.07-11.44-8.07-6.46,0-10.9,4.84-10.9,9.22,0,.81.07,1.14.27,1.95-.07-.34-.13-.67-.13-1.01,0-4.51,4.51-7.67,9.22-7.67,6.32,0,11.44,5.11,11.44,11.44,0,4.98-2.83,9.22-7,11.3h0c5.32-1.95,9.15-7.06,9.15-13.05,0-1.41-.2-2.69-.61-4.1Z"/>
  </g>
  <g>
    <path class="cls-2" d="M82.95,31.84h-10.16v-1.14h4.44v-.74h-3.57v-4.37h8.54v1.14h-7.2v.54h7.2v1.01h-7.2v.54h7.2v1.08h-3.63v.74h4.44v1.21h-.07ZM80.53,34.6c0,.34-.07.67-.2,1.01s-.34.54-.61.81c-.27.2-.54.4-.87.54-.34.13-.67.2-1.08.2s-.74-.07-1.08-.2c-.34-.13-.61-.34-.87-.54-.27-.2-.4-.47-.61-.81-.13-.34-.2-.61-.2-1.01,0-.34.07-.67.2-.94.13-.34.34-.54.61-.81.27-.2.54-.4.87-.54.34-.13.67-.2,1.08-.2s.74.07,1.08.2c.34.13.61.34.87.54.27.2.4.47.61.81.13.27.2.61.2.94ZM79.25,34.6c0-.4-.13-.67-.4-.94-.27-.27-.61-.4-.94-.4-.4,0-.67.13-1.01.4-.27.27-.4.61-.4.94,0,.4.13.67.4.94.27.27.61.4,1.01.4s.67-.13.94-.4c.27-.27.4-.61.4-.94Z"/>
    <path class="cls-2" d="M89.61,35.14h-1.35v-7.74h-3.43v-1.21h4.78v8.95ZM91.43,25.52h1.28v11.03h-1.28v-3.9h-1.28v-1.21h1.28v-1.88h-1.28v-1.21h1.28v-2.83ZM93.85,25.52h1.35v11.1h-1.35v-11.1Z"/>
    <path class="cls-2" d="M98.16,27.6v-1.14h2.62v-1.08h1.48v1.08h2.49v1.14h-2.69l2.83,2.83-.87.87-2.42-2.49-2.35,2.69-.94-.87,2.83-3.03h-2.96ZM106.97,34.26c0,.4-.07.74-.2,1.08-.13.34-.34.61-.61.87s-.54.47-.94.61c-.34.13-.74.2-1.14.2s-.74-.07-1.14-.2c-.34-.13-.67-.34-.94-.61s-.47-.54-.61-.87c-.13-.34-.2-.67-.2-1.08s.07-.74.2-1.08c.13-.34.34-.61.61-.87s.54-.47.94-.61c.34-.13.74-.2,1.14-.2s.74.07,1.14.2c.34.13.67.34.94.61s.47.54.61.87.2.67.2,1.08ZM105.63,34.26c0-.4-.13-.74-.47-1.08-.27-.27-.67-.47-1.08-.47s-.74.13-1.08.47c-.27.27-.47.67-.47,1.08s.13.81.47,1.08c.27.27.67.47,1.08.47s.81-.13,1.08-.47c.34-.34.47-.67.47-1.08ZM106.57,31.44v-2.15h-1.95v-1.21h1.95v-2.62h1.41v5.92h-1.41v.07Z"/>
  </g>
</svg>