<?xml version="1.0" encoding="UTF-8"?>
<svg id="Layer_1" data-name="Layer 1" xmlns="http://www.w3.org/2000/svg" viewBox="0 0 172 62">
  <defs>
    <style>
      .cls-1 {
        fill: #254aa5;
      }
    </style>
  </defs>
  <path class="cls-1" d="M25.1,29.58l6.02-3.97c-.36-.19-.72-.36-1.1-.5l-5.13,4.03c.08.14.15.29.21.44ZM25.59,30.99l6.8-4.52c-.29-.23-.6-.45-.92-.64l-6.02,4.67c.05.17.1.33.15.5h0ZM25.84,32.55l7.6-5.09c-.24-.27-.5-.53-.77-.76l-6.88,5.29c.02.19.04.37.06.56h0ZM25.77,34.33l8.52-5.73c-.19-.3-.4-.6-.63-.87l-7.83,5.99c-.01.21-.04.41-.07.62h0ZM25.17,36.48l9.78-6.61c-.14-.34-.3-.66-.48-.98l-9.04,6.88c-.08.24-.17.47-.27.7h0ZM24.39,28.33l5.17-3.36c-.44-.13-.89-.23-1.35-.29l-4.09,3.29c.09.12.18.24.26.37ZM22.29,40.16c1.36.93,3.01,1.47,4.78,1.47,4.7,0,8.51-3.81,8.51-8.51,0-.97-.16-1.94-.49-2.85l-12.8,9.89ZM23.47,27.2l4.1-2.59c-.16,0-.33-.01-.49-.01-.52,0-1.03.05-1.53.14l-2.39,2.16c.11.1.21.2.31.31h0ZM18.65,31.89l-8.52,5.74c.19.3.4.59.63.87l7.83-5.99c.01-.21.04-.42.07-.62h0ZM20.95,39.02l-4.1,2.59c.16,0,.33.01.49.01.53,0,1.04-.05,1.54-.14l2.38-2.15c-.11-.1-.21-.2-.31-.31ZM19.25,29.75l-9.78,6.61c.14.34.3.66.48.98l9.04-6.89c.08-.24.17-.47.26-.7h0ZM20.03,37.9l-5.17,3.36c.44.13.89.23,1.35.29l4.09-3.29c-.09-.12-.18-.24-.26-.37h0ZM18.58,33.68l-7.6,5.09c.24.27.5.53.77.76l6.88-5.3c-.02-.19-.04-.37-.06-.56h0ZM18.83,35.24l-6.8,4.53c.29.23.6.45.92.64l6.02-4.67c-.05-.17-.1-.33-.15-.5h0ZM19.33,36.64l-6.02,3.97c.36.19.72.36,1.1.5l5.13-4.03c-.08-.14-.15-.29-.22-.44ZM17.35,24.6c-4.7,0-8.51,3.81-8.51,8.51,0,.97.16,1.94.49,2.85l12.8-9.9c-1.36-.93-3.01-1.47-4.78-1.47Z"/>
  <path class="cls-1" d="M18.58,33.68c.01.19.03.37.06.56l3.57-2.75,2.88-1.9c-.07-.15-.14-.29-.21-.44l-2.67,2.1-3.63,2.43ZM18.83,35.24c.04.17.09.34.15.5l3.23-2.51,3.38-2.25c-.04-.17-.09-.34-.15-.5l-3.23,2.51-3.38,2.25ZM19.33,36.64c.07.15.14.29.22.44l2.67-2.1,3.63-2.43c-.01-.19-.03-.37-.06-.56l-3.57,2.75-2.89,1.9ZM18.65,31.89c-.03.21-.05.41-.07.62l3.63-2.78,2.17-1.41c-.08-.12-.17-.25-.26-.37l-1.91,1.53-3.56,2.4ZM22.21,27.99l1.26-.79c-.1-.1-.2-.21-.31-.31l-.95.86-2.96,2c-.1.23-.19.46-.26.7l3.22-2.45ZM20.03,37.9c.08.12.17.25.26.37l1.91-1.54,3.56-2.4c.03-.2.05-.41.07-.62l-3.63,2.77-2.18,1.41ZM22.21,38.23l-1.26.8c.1.11.21.21.31.31l.95-.86,2.96-2c.1-.23.19-.46.27-.7l-3.22,2.45ZM64.76,34.71c.68,0,1.24-.55,1.24-1.24s-.55-1.24-1.24-1.24-1.24.55-1.24,1.24.55,1.24,1.24,1.24Z"/>
  <path class="cls-1" d="M72.25,32.66v-1.88h-14.99v1.88h14.99ZM71.4,38.92h-2.28v-2.72l-.22-.06h-10.84v-1.88h11.32c1.12,0,2.02.85,2.02,1.9v2.76s0,0,0,0Z"/>
  <path class="cls-1" d="M71.4,31.71h-2.28v-2.41l-.22-.06h-10.84v-1.88h11.32c1.12,0,2.02.85,2.02,1.9v2.45s0,0,0,0ZM53.98,38.92v-11.98h-2.28v11.98h2.28Z"/>
  <path class="cls-1" d="M55,31.97c.72,0,1.3-.58,1.3-1.3s-.58-1.3-1.3-1.3-1.3.58-1.3,1.3.58,1.3,1.3,1.3h0ZM49.79,28.26h-9.99v1.88h9.99v-1.88Z"/>
  <path class="cls-1" d="M46.03,27.22c0-.68-.55-1.24-1.24-1.24s-1.24.55-1.24,1.24.55,1.24,1.24,1.24,1.24-.55,1.24-1.24Z"/>
  <path class="cls-1" d="M41.4,31.84c0-1.87,1.52-3.39,3.39-3.39s3.39,1.52,3.39,3.39-1.52,3.39-3.39,3.39-3.39-1.52-3.39-3.39M44.79,33.23c.77,0,1.4-.63,1.4-1.4s-.63-1.4-1.4-1.4-1.4.63-1.4,1.4.63,1.4,1.4,1.4h0ZM40.63,35.18h2.28v1.86h.22s10.84,0,10.84,0v1.88h-11.32c-1.12,0-2.02-.85-2.02-1.9v-1.84s0,0,0,0ZM136.67,29.24v-1.88h-9.99v1.88h9.99Z"/>
  <path class="cls-1" d="M134.44,33.9l-2.78-4.66c-.69-1.25-.24-2.17,2.5,0l2.78,4.66h-2.5Z"/>
  <path class="cls-1" d="M129.2,29.24l-2.8,4.67h2.5l2.8-4.67c.97-.34,3.04-1.99-2.5,0h0ZM138.59,38.92v-11.98h2.28v11.98h-2.28Z"/>
  <path class="cls-1" d="M137.58,31.78c-.72,0-1.3-.58-1.3-1.3s.58-1.3,1.3-1.3,1.3.58,1.3,1.3-.58,1.3-1.3,1.3ZM127.53,34.77h2.28v2.27h.22s10.84,0,10.84,0v1.88h-11.32c-1.12,0-2.02-.85-2.02-1.9v-2.25s0,0,0,0ZM123.32,36.66v-1.64h-13.35v1.64h13.35Z"/>
  <path class="cls-1" d="M121.44,32.75c1.04,0,1.88.79,1.88,1.76v1.98h-2.28v-2.09h-11.07v-1.65h11.47ZM111.85,38.92c-1.04,0-1.88-.79-1.88-1.76v-1.98s2.27,0,2.27,0v2.09h11.07v1.65h-11.47ZM111.02,32.08c-1.04,0-1.88-.79-1.88-1.76v-2.96s2.27,0,2.27,0v3.07h7.71v1.65h-8.11Z"/>
  <path class="cls-1" d="M123.32,35.97v-9.03h-2.28v9.03h2.28ZM119.13,31.5v-4.14h-2.28v4.14h2.28Z"/>
  <path class="cls-1" d="M124.34,31.97c.72,0,1.3-.58,1.3-1.3s-.58-1.3-1.3-1.3-1.3.58-1.3,1.3.58,1.3,1.3,1.3h0ZM119.07,28.03h-7.85v1.64h7.85v-1.64ZM164.08,39.34h-.63v-12.82h.63v12.82ZM145.7,39.34h-.63v-12.82h.63v12.82ZM153.44,38.92v-3.84h2.28v3.84h-2.28Z"/>
  <path class="cls-1" d="M162.07,34.26v1.88h-14.99v-1.88h14.99ZM161.24,27.36h-13.34v1.88h13.34v-1.88Z"/>
  <path class="cls-1" d="M153.06,27.73l-5.67,5.67h3.03l4.15-4.15-1.51-1.52ZM156.09,27.73l-1.51,1.52,4.15,4.15h3.03l-5.67-5.67Z"/>
  <path class="cls-1" d="M153.06,27.73l1.51,1.52,1.51-1.52h-3.03ZM92.39,27.36h2.28v4.15h.22s10.84,0,10.84,0v1.88h-11.31c-1.12,0-2.02-.85-2.02-1.9v-4.13s0,0,0,0Z"/>
  <path class="cls-1" d="M105.73,28.6h-11.71v1.88h11.71v-1.88ZM98.07,38.91v-3.84h2.27v3.84h-2.27Z"/>
  <path class="cls-1" d="M103.46,32.99v-5.62h2.27v5.62h-2.27ZM106.7,34.26v1.88h-14.99v-1.88h14.99ZM86.9,35.9v-1.88h-11.8v1.88h11.8Z"/>
  <path class="cls-1" d="M88.45,38.91v-11.97h-2.27v11.97h2.27Z"/>
  <path class="cls-1" d="M89.46,31.97c.72,0,1.3-.58,1.3-1.3s-.58-1.3-1.3-1.3-1.3.58-1.3,1.3.58,1.3,1.3,1.3h0ZM75.1,34.14h2.28v2.9h.22s10.84,0,10.84,0v1.88h-11.31c-1.12,0-2.02-.85-2.02-1.9v-2.88s0,0,0,0ZM74.27,27.36h2.28v3.28h.22s7.49,0,7.49,0v1.88h-7.96c-1.12,0-2.02-.85-2.02-1.9v-3.26s0,0,0,0Z"/>
</svg>