<?xml version="1.0" encoding="UTF-8"?>
<svg id="Layer_1" data-name="Layer 1" xmlns="http://www.w3.org/2000/svg" viewBox="0 0 172 62">
  <defs>
    <style>
      .cls-1 {
        fill: #244ba6;
      }

      .cls-2 {
        fill: #fff;
      }

      .cls-3 {
        fill: #ed192d;
      }

      .cls-4 {
        fill: none;
        stroke: #ed192d;
        stroke-miterlimit: 39.94;
        stroke-width: 8.29px;
      }
    </style>
  </defs>
  <path class="cls-1" d="M71.9,28.35c0-1.05-.91-1.91-2.04-1.91h-11.39s0,1.89,0,1.89h10.91l.22.06v1.5h-11.94v1.89h6.6c-.4.46-.4,1.14-.01,1.61h-5.78s0,1.89,0,1.89h10.91l.22.06v2.74h2.29v-2.77c0-1.06-.91-1.91-2.03-1.91h-3.69c.18-.22.29-.49.29-.8s-.11-.59-.3-.81h6.6v-1.89h-.86v-1.54Z"/>
  <path class="cls-1" d="M55.39,28.47c-.4,0-.78.18-1.02.5v-2.95h-2.29v10.16h-8.85v-1.87h-2.29v1.85c0,1.05.91,1.91,2.03,1.91h11.39s.01,0,.01,0v-7.48c.45.57,1.27.66,1.83.21.57-.45.66-1.27.21-1.83-.25-.31-.63-.5-1.03-.5"/>
  <path class="cls-1" d="M45.12,32.35c-.78,0-1.41-.63-1.41-1.41,0-.78.63-1.41,1.41-1.41h0c.78,0,1.41.63,1.41,1.41,0,.78-.63,1.41-1.41,1.41M41.71,30.95c0,1.89,1.53,3.42,3.41,3.42,1.89,0,3.42-1.53,3.42-3.41,0-.6-.16-1.19-.46-1.71h2.07v-1.89h-4.35c.58-.37.75-1.14.37-1.72-.37-.58-1.14-.75-1.72-.37-.58.37-.75,1.14-.37,1.72.1.15.22.28.37.37h-4.35v1.89h2.07c-.3.52-.46,1.11-.46,1.71"/>
  <path class="cls-1" d="M128.91,33.03l2.8-4.66,2.78,4.66h2.51l-2.8-4.69h2.52v-1.89h-10.05v1.89h2.54l-2.82,4.7h2.51Z"/>
  <path class="cls-1" d="M140.95,26.02h-2.29v2.75c-.45-.56-1.27-.66-1.83-.21s-.66,1.27-.21,1.83,1.27.66,1.83.21c.08-.06.15-.13.21-.21v5.78h-8.84v-2.28h-2.29v2.26c0,1.05.91,1.91,2.03,1.91h9.1s2.29,0,2.29,0v-12.05Z"/>
  <path class="cls-1" d="M103.98,28.55c-.45-.57-1.27-.66-1.83-.21-.57.45-.66,1.27-.21,1.83.45.57,1.27.66,1.83.21.08-.06.15-.13.21-.21v7.9h2.29v-12.05h-2.29v2.53Z"/>
  <path class="cls-1" d="M97.76,26.44h-2.52l-3.65,6.07h2.51l2.91-4.85,2.91,4.85h2.52l-3.65-6.07h-1.04Z"/>
  <path class="cls-1" d="M116.78,29.54h-5.47v-.77h5.47v.77ZM119.07,31.19v-.58h0v-4.17h-2.29v.68h-5.47v-.67h-2.29v2.98c0,.98.85,1.77,1.89,1.77h8.16Z"/>
  <path class="cls-1" d="M124.31,28.47c-.4,0-.77.18-1.02.5v-2.95h-2.29v5.85h-11.14v1.66h11.14v.62h-11.14v1.65h0v.51c0,.98.85,1.77,1.89,1.77h11.54v-1.66h-11.14v-.62h11.14v-.17h0v-2.01s0-3.03,0-3.03c.45.57,1.27.66,1.83.22.57-.45.66-1.27.22-1.83-.25-.31-.63-.5-1.03-.5"/>
  <path class="cls-1" d="M82.31,36.88c-.78,0-1.41-.63-1.41-1.41s.63-1.41,1.41-1.41,1.41.63,1.41,1.41-.63,1.41-1.41,1.41M83.45,31.27h5.57v-1.89h-11.13v-1.05h11.13v-1.89h-11.79s-1.64,0-1.64,0v2.92c0,1.05.91,1.91,2.04,1.91h3.53v.68h-6.39v1.89h4.54c-.9,1.66-.29,3.73,1.36,4.63,1.66.9,3.73.29,4.63-1.36.56-1.02.56-2.25,0-3.27h4.55v-1.89h-6.4v-.68Z"/>
  <path class="cls-1" d="M163.67,38.5h.64v-12.9h-.64v12.9ZM145.17,38.5h.64v-12.9h-.64v12.9Z"/>
  <path class="cls-1" d="M147.2,35.28h6.4v2.79h2.29v-2.79h6.4v-1.89h-15.09v1.89Z"/>
  <path class="cls-1" d="M150.56,32.52l4.18-4.18,4.18,4.18h3.05l-4.19-4.19h3.67v-1.89h-13.42v1.89h3.67l-4.19,4.19h3.05Z"/>
  <path class="cls-2" d="M27.32,22.99c-1.91,0-3.68.6-5.13,1.61-1.51-1.05-3.3-1.61-5.14-1.61-4.96,0-8.98,4.02-8.98,8.99s4.02,8.99,8.98,8.99c1.91,0,3.68-.6,5.14-1.61,1.51,1.05,3.3,1.61,5.13,1.61,4.96,0,8.98-4.02,8.98-8.99s-4.02-8.99-8.98-8.99"/>
  <path class="cls-3" d="M35.62,28.55c-.14-.35-.31-.7-.5-1.03l-9.53,7.26-3.4,2.59-1.33.84-4.32,2.73c.72.04,1.44,0,2.15-.13l2.51-2.27,1-.91,3.12-2.11,10.31-6.97Z"/>
  <path class="cls-3" d="M35.78,28.97l-13.5,10.44c1.49,1.01,3.24,1.55,5.04,1.55,4.96,0,8.98-4.02,8.98-8.98,0-1.05-.18-2.07-.52-3.01"/>
  <path class="cls-3" d="M17.06,22.99c-4.96,0-8.98,4.02-8.98,8.98,0,1.06.18,2.07.52,3.01l13.5-10.44c-1.49-1.01-3.24-1.55-5.04-1.55"/>
  <path class="cls-3" d="M22.19,30.26l3.04-2,6.35-4.18c-.37-.2-.76-.38-1.16-.52l-5.41,4.25-2.82,2.21-3.83,2.56-8.01,5.37c.25.28.53.55.81.81l7.26-5.59,3.77-2.9Z"/>
  <path class="cls-3" d="M22.19,32.1l3.56-2.37,7.17-4.77c-.31-.25-.63-.47-.97-.68l-6.35,4.92-3.41,2.64-3.56,2.37-7.17,4.77c.31.25.64.47.97.68l6.35-4.92,3.41-2.65Z"/>
  <path class="cls-3" d="M22.19,33.94l3.83-2.56,8.01-5.37c-.25-.29-.53-.55-.81-.81l-7.26,5.58-3.77,2.9-3.04,2.01-6.35,4.19c.38.2.76.38,1.16.52l5.41-4.25,2.82-2.21Z"/>
  <path class="cls-3" d="M22.19,28.41l2.29-1.49,5.45-3.54c-.46-.14-.93-.24-1.42-.31l-4.31,3.46-2.02,1.62-3.76,2.53-8.99,6.05c.2.32.42.63.66.92l8.25-6.32,3.83-2.93Z"/>
  <path class="cls-3" d="M22.19,26.57l1.33-.84,4.32-2.73c-.71-.04-1.43,0-2.13.13l-2.52,2.28-1,.9-3.12,2.11-10.31,6.97c.15.36.31.7.5,1.03l9.53-7.26,3.4-2.59Z"/>
  <path class="cls-3" d="M22.19,35.78l3.76-2.53,8.99-6.05c-.2-.32-.42-.63-.66-.92l-8.26,6.31-3.83,2.93-2.3,1.49-5.45,3.54c.46.14.94.25,1.42.31l4.31-3.47,2.02-1.62Z"/>
  <path class="cls-3" d="M13.92,31.93c0,1.42,1.15,2.58,2.58,2.58h2.82v-1.4h-2.69c-.39,0-.74-.19-.95-.48h3.65v-1.4h-3.65c.22-.3.57-.48.95-.48h2.72s0-1.4,0-1.4h-2.84c-1.42,0-2.58,1.15-2.58,2.58"/>
  <path class="cls-4" d="M13.92,31.93c0,1.42,1.15,2.58,2.58,2.58h2.82v-1.4h-2.69c-.39,0-.74-.19-.95-.48h3.65v-1.4h-3.65c.22-.3.57-.48.95-.48h2.72s0-1.4,0-1.4h-2.84c-1.42,0-2.58,1.15-2.58,2.58Z"/>
  <path class="cls-3" d="M29.64,29.36h-3.52v1.4h3.52c.27,0,.48.22.48.48s-.22.48-.48.48h-3.51v1.4h0v1.39h1.59v-1.39h1.92c1.04-.02,1.87-.88,1.85-1.91-.02-1.01-.83-1.83-1.85-1.85"/>
  <path class="cls-4" d="M29.64,29.36h-3.52v1.4h3.52c.27,0,.48.22.48.48s-.22.48-.48.48h-3.51v1.4h0v1.39h1.59v-1.39h1.92c1.04-.02,1.87-.88,1.85-1.91-.02-1.01-.83-1.83-1.85-1.85Z"/>
  <path class="cls-3" d="M24.39,32.71c-.01.27-.24.47-.51.46-.25-.01-.45-.21-.46-.46v-3.36h-1.4v3.36c0,.27-.22.48-.48.48s-.48-.22-.48-.48v-3.36h-1.4v3.36c0,1.04.84,1.88,1.88,1.88h0c.45,0,.86-.16,1.18-.42.33.27.75.42,1.18.42,1.04,0,1.88-.84,1.88-1.88v-3.36h-1.4v3.36Z"/>
  <path class="cls-4" d="M24.39,32.71c-.01.27-.24.47-.51.46-.25-.01-.45-.21-.46-.46v-3.36h-1.4v3.36c0,.27-.22.48-.48.48s-.48-.22-.48-.48v-3.36h-1.4v3.36c0,1.04.84,1.88,1.88,1.88h0c.45,0,.86-.16,1.18-.42.33.27.75.42,1.18.42,1.04,0,1.88-.84,1.88-1.88v-3.36h-1.4v3.36Z"/>
  <path class="cls-2" d="M13.92,31.93c0,1.42,1.15,2.58,2.58,2.58h2.82v-1.4h-2.69c-.39,0-.74-.19-.95-.48h3.65v-1.4h-3.65c.22-.3.57-.48.95-.48h2.72s0-1.4,0-1.4h-2.84c-1.42,0-2.58,1.15-2.58,2.58"/>
  <path class="cls-2" d="M29.64,29.36h-3.52v1.4h3.52c.27,0,.48.22.48.48s-.22.48-.48.48h-3.51v1.4h0v1.39h1.59v-1.39h1.92c1.04-.02,1.87-.88,1.85-1.91-.02-1.01-.83-1.83-1.85-1.85"/>
  <path class="cls-2" d="M24.39,32.71c-.01.27-.24.47-.51.46-.25-.01-.45-.21-.46-.46v-3.36h-1.4v3.36c0,.27-.22.48-.48.48s-.48-.22-.48-.48v-3.36h-1.4v3.36c0,1.04.84,1.88,1.88,1.88h0c.45,0,.86-.16,1.18-.42.33.27.75.42,1.18.42,1.04,0,1.88-.84,1.88-1.88v-3.36h-1.4v3.36Z"/>
</svg>