<?xml version="1.0" encoding="UTF-8"?>
<svg id="Layer_1" data-name="Layer 1" xmlns="http://www.w3.org/2000/svg" viewBox="0 0 172 62">
  <defs>
    <style>
      .cls-1 {
        fill: #d71820;
      }

      .cls-2 {
        fill: #655b4e;
      }
    </style>
  </defs>
  <g>
    <path class="cls-1" d="M81.67,28.32h1.08c.07,0,.13-.07.13-.13v-1.88c0-.07-.07-.13-.13-.13h-1.48c-1.75,0-2.62.54-3.16,1.61l-3.23,7.47c-.2.47-.47.67-1.01.67v-9.62c0-.07-.07-.13-.13-.13h-2.35c-.07,0-.13.07-.13.13v11.51c0,.13.07.2.2.2h2.69c1.75,0,2.49-.54,3.03-1.61l3.16-7.33c.34-.54.67-.74,1.35-.74Z"/>
    <path class="cls-1" d="M52.74,32.09c.94-.4,1.75-1.21,1.75-2.62,0-2.09-1.88-3.3-4.17-3.3h-7c-.07,0-.13.07-.13.13v1.88c0,.07.07.13.13.13h6.53c1.08,0,1.75.61,1.75,1.35s-.74,1.35-1.75,1.35h-3.9v-1.41c0-.07-.07-.13-.13-.13h-2.56c-.07,0-.13.07-.13.13v8.28c0,.07.07.13.13.13h6.93c2.56,0,4.44-1.14,4.44-3.43.07-1.14-.67-2.15-1.88-2.49ZM49.98,35.92h-4.04v-2.76h4.04c1.08,0,1.82.61,1.82,1.41-.07.67-.74,1.35-1.82,1.35Z"/>
    <path class="cls-1" d="M84.23,37.81l-4.04-4.91h-.07l-1.08,2.49v.07l1.75,2.22c.13.13.27.2.47.2l2.96-.07c0,.13.07.13,0,0Z"/>
    <path class="cls-1" d="M59.13,29.4h-2.35c-.07,0-.13.07-.13.13v8.28c0,.07.07.13.13.13h2.35c.07,0,.13-.07.13-.13v-8.28s-.13-.13-.13-.13Z"/>
    <path class="cls-1" d="M68.89,26.17h-2.35c-.07,0-.13.07-.13.13v9.62c-.54,0-.81-.2-1.01-.67l-3.23-7.47c-.54-1.08-1.41-1.61-3.16-1.61h-2.22c-.07,0-.13.07-.13.13v1.88c0,.07.07.13.13.13h1.82c.74,0,1.14.2,1.35.74l3.16,7.33c.54,1.08,1.28,1.61,3.03,1.61h2.69c.13,0,.2-.07.2-.2v-11.51c0-.13-.13-.13-.13-.13Z"/>
  </g>
  <path class="cls-2" d="M105.22,36.39v-2.62h-1.95v3.03c0,.67.4,1.21,1.55,1.21h6.66v-1.35h-5.99c-.27-.07-.27-.2-.27-.27ZM132.47,30c0-.81-.34-1.48-.94-1.95h1.08v-1.21h-2.02v-1.08h-1.88v1.08h-2.02v1.21h1.14c-.61.47-.94,1.14-.94,1.95,0,1.41,1.21,2.56,2.83,2.56,1.41,0,2.76-1.14,2.76-2.56ZM129.64,31.35c-.81,0-1.35-.61-1.35-1.35s.54-1.35,1.35-1.35,1.35.61,1.35,1.35c-.07.74-.61,1.35-1.35,1.35ZM117.67,36.39v-2.02h-1.95v2.42c0,.67.4,1.21,1.55,1.21h7.13v-1.35h-6.53c-.2-.07-.2-.2-.2-.27ZM113.83,33.43h11.84v-1.41h-11.84v1.41ZM119.68,31.08c2.02,0,3.63-1.28,3.63-2.83s-1.61-2.83-3.63-2.83-3.63,1.28-3.63,2.83c.07,1.61,1.61,2.83,3.63,2.83ZM119.68,26.84c1.01,0,1.82.67,1.82,1.48s-.81,1.48-1.82,1.48-1.82-.67-1.88-1.48c.13-.81.87-1.48,1.88-1.48ZM135.7,25.7v2.35h-.81v-2.35h-1.68v6.26h.94c.47,0,.74-.34.74-.74v-1.75h.81v2.42h.94c.47,0,.74-.34.74-.74v-5.58h-1.68v.13ZM133.61,32.56c-1.95,0-3.57,1.28-3.57,2.83s1.61,2.83,3.57,2.83,3.57-1.28,3.57-2.83-1.55-2.83-3.57-2.83ZM133.61,36.8c-1.01,0-1.75-.67-1.75-1.48s.81-1.48,1.75-1.48c1.01,0,1.75.67,1.75,1.48.07.81-.74,1.48-1.75,1.48ZM111.14,25.7h-1.82v8.34h1.08c.47,0,.74-.34.74-.74v-3.7h1.68v-1.55h-1.68v-2.35h0ZM90.96,31.21h5.38c1.08,0,1.55-.54,1.55-1.21v-4.31h-1.75v1.21h-4.98v-1.21h-1.75v4.31c0,.74.47,1.21,1.55,1.21ZM91.22,28.32h4.91v1.35c0,.13-.13.2-.27.2h-4.44c-.13,0-.27-.13-.27-.2v-1.35h.07ZM87.19,33.9h5.45v3.97h1.21c.54,0,.81-.34.81-.87v-3.09h5.05v-1.41h-12.51v1.41ZM107.37,32.56h0l.87-1.08-.07-.07c-1.55-1.01-2.69-2.49-2.69-4.24v-1.21h-2.02v1.21c0,1.82-1.41,3.57-2.76,4.37h-.07l.81,1.08h.07c1.01-.54,2.35-1.88,2.89-2.89.47,1.01,1.82,2.29,2.96,2.83Z"/>
</svg>