<?xml version="1.0" encoding="UTF-8"?>
<svg id="Layer_1" data-name="Layer 1" xmlns="http://www.w3.org/2000/svg" viewBox="0 0 172 62">
  <defs>
    <style>
      .cls-1 {
        fill: #005386;
      }
    </style>
  </defs>
  <path class="cls-1" d="M108.22,32.58c-1.05,2.98-3.56,4.79-6.83,4.79-4.03,0-7.12-3.03-7.12-7.12s3.15-7.12,7.12-7.12c3.33,0,6.07,2.1,7,5.02.18.82-.06.88-.53.99-.47.06-1.17,0-1.58-.23-.47-.23-1.17-1.23-1.17-1.23-.76-1.34-2.16-2.1-3.74-2.1-2.51,0-4.61,2.16-4.61,4.73s2.1,4.67,4.61,4.67c1.75,0,3.15-.93,4.03-2.33,0,0,.41-.76,1.46-1.05,1.17-.23,1.4.06,1.4.06,0,0,.29,0-.06.93h0Z"/>
  <path class="cls-1" d="M71.16,25.51c2.57,0,4.61,2.16,4.61,4.73s-2.1,4.67-4.61,4.67v2.45c4.03,0,7.12-3.03,7.12-7.12s-3.09-7.12-7.12-7.12v2.39ZM71.16,25.51h0ZM71.16,34.91c-2.51,0-4.61-2.16-4.61-4.67s2.1-4.73,4.61-4.73v-2.45c-4.03,0-7.12,3.03-7.12,7.12s3.15,7.12,7.12,7.12v-2.39h0ZM71.16,25.51h0Z"/>
  <path class="cls-1" d="M117.03,25.51c2.51,0,4.61,2.16,4.61,4.73s-2.1,4.67-4.61,4.67v2.45c4.03,0,7.12-3.03,7.12-7.12s-3.15-7.12-7.12-7.12v2.39ZM117.03,25.51h0v-2.45h0c-4.03,0-7.12,3.03-7.12,7.12s3.09,7.12,7.12,7.12h0v-2.45h0c-2.57,0-4.61-2.16-4.61-4.67,0-2.51,2.04-4.67,4.61-4.67h0Z"/>
  <path class="cls-1" d="M89.49,31.53c.88.06,1.05.47.82,1.17-.53,1.34-2.33,2.33-4.03,2.33-1.93,0-2.86-.93-3.68-1.75-.7-.76-2.1-.88-2.57-.7-.41.18-.23.88-.06,1.23,1.23,2.28,3.74,3.56,6.19,3.56,2.63.06,4.84-1.23,6.24-3.39,1.34-2.16.76-4.9-2.33-4.9l-7-.06c-1.05,0-1.17-.58-.88-1.34.7-1.28,2.28-2.28,4.2-2.28,1.81,0,2.8,1.17,3.39,1.75.7.58,1.98.76,2.63.53.35-.18.23-.58,0-1.11-1.17-2.22-3.68-3.5-6.19-3.5-2.22,0-4.61.93-6.13,3.21-1.23,1.93-1.11,5.14,3.21,5.14l6.19.12Z"/>
  <path class="cls-1" d="M55.4,37.36c4.03,0,7.12-3.03,7.12-7.12s-3.15-7.12-7.12-7.12v2.45c2.51,0,4.61,2.1,4.61,4.73s-2.1,4.67-4.61,4.67v2.39ZM55.4,23.06c-4.03,0-7.12,3.03-7.12,7.12v9.45s-.06,1.23.41,2.1c.41.58,1.05,1.05,1.63,1.17.41-.06.53-.64.53-.64v-6.48c1.23.93,2.8,1.58,4.55,1.58h0v-2.45h0c-2.57,0-4.61-2.16-4.61-4.67s2.1-4.73,4.61-4.73h0v-2.45h0Z"/>
</svg>