<?xml version="1.0" encoding="UTF-8"?>
<svg id="Layer_1" data-name="Layer 1" xmlns="http://www.w3.org/2000/svg" viewBox="0 0 172 62">
  <defs>
    <style>
      .cls-1 {
        fill: #ee7623;
      }

      .cls-2 {
        fill: #ce0e2d;
      }
    </style>
  </defs>
  <g>
    <g>
      <path class="cls-1" d="M122.8,33.76c-1.55,0-2.35,1.01-2.49,1.21-.4-.74-1.14-1.21-2.09-1.21-1.41,0-2.15.81-2.29.94-.07-.2-.34-.81-1.21-.81-.27,0-.61.07-.67.07.07.2.2,1.01.2,2.09v4.98h1.82v-5.05c.07,0,.74-.74,1.55-.74s1.21.61,1.21,1.48v4.37h1.82v-5.05c.07-.07.67-.74,1.55-.74.81,0,1.21.61,1.21,1.48v4.37h1.82v-4.64c0-1.68-.94-2.76-2.42-2.76Z"/>
      <path class="cls-1" d="M102.82,39.75c-1.21,0-2.15-1.01-2.15-2.29,0-1.41,1.01-2.29,2.15-2.29.61,0,.87.2,1.28.2s.67-.2.87-.61c.13-.2.2-.34.2-.34-.07-.07-1.01-.67-2.56-.67-2.29,0-3.7,1.61-3.7,3.77,0,2.29,1.55,3.7,3.7,3.7,1.55,0,2.42-.61,2.62-.74l-.61-1.28c-.34.13-1.01.54-1.82.54Z"/>
      <path class="cls-1" d="M82.77,33.76c-1.75,0-3.23,1.41-3.23,3.77s1.41,3.7,3.57,3.7c1.68,0,2.56-.74,2.69-.81,0,0-.13-.27-.2-.34-.27-.4-.54-.54-.81-.54-.61,0-.67.27-1.48.27-1.41,0-1.88-1.08-1.88-1.82h4.64v-.54c.07-2.22-1.28-3.7-3.3-3.7ZM81.42,36.72c0-.81.61-1.55,1.35-1.55.87,0,1.41.81,1.41,1.55h-2.76Z"/>
      <path class="cls-1" d="M89.16,39.07v-7.47c0-.87-.54-1.48-1.41-1.48h-.4v9.69c0,.87.54,1.41,1.48,1.41,1.21,0,1.55-.87,1.55-1.61-.07,0-.27.13-.54.13-.34,0-.67-.27-.67-.67Z"/>
      <path class="cls-1" d="M77.05,38.81v-3.5h1.55l.54-1.35h-2.09v-2.15h-.2c-.81,0-1.68.34-1.68,2.15h-1.35v1.35h1.35v4.17c0,1.21.67,1.82,1.68,1.82.81,0,1.82-.27,1.82-1.82-.07.07-.47.27-.87.27-.54-.07-.74-.4-.74-.94Z"/>
    </g>
    <path class="cls-1" d="M94.2,33.76c-1.75,0-3.23,1.41-3.23,3.77s1.41,3.7,3.57,3.7c1.68,0,2.56-.74,2.69-.81,0,0-.13-.27-.2-.34-.27-.4-.54-.54-.81-.54-.61,0-.67.27-1.48.27-1.41,0-1.88-1.08-1.88-1.82h4.64v-.54c.07-2.22-1.28-3.7-3.3-3.7ZM92.86,36.72c0-.81.61-1.55,1.35-1.55.87,0,1.41.81,1.41,1.55h-2.76Z"/>
    <path class="cls-1" d="M109.34,41.23c-2.22,0-3.57-1.48-3.57-3.77s1.35-3.77,3.57-3.77,3.57,1.48,3.57,3.77-1.21,3.77-3.57,3.77ZM109.34,39.88c1.14,0,1.75-.94,1.75-2.35s-.61-2.35-1.75-2.35c-1.08,0-1.75.94-1.75,2.35s.61,2.35,1.75,2.35Z"/>
  </g>
  <g>
    <g>
      <path class="cls-2" d="M50.54,33.15c-1.08-.54-2.02-.94-2.02-1.75,0-.67.54-1.08,1.55-1.08.4,0,.67.07,1.01.13.13,0,.34.07.47.07.87,0,1.41-.54,1.75-1.55l.13-.4c-.13-.07-1.61-.67-3.5-.67-3.03,0-4.58,1.95-4.58,3.9,0,1.01.34,1.75.81,2.29.61.74,1.55,1.21,2.42,1.61,1.21.61,2.35,1.08,2.35,1.95,0,.81-.81,1.28-1.95,1.28-1.48,0-2.83-.87-3.03-.94l-1.21,2.35c.2.13,1.82,1.14,4.44,1.14,2.83,0,4.91-1.61,4.91-4.1.07-2.56-1.88-3.5-3.57-4.24Z"/>
      <path class="cls-2" d="M61.64,34.3l5.11-6.26h-3.63l-4.04,5.38h-.07v-5.38h-2.96v13.19h.2c1.28,0,2.83-.61,2.83-2.76v-3.03h.07l4.17,5.65h3.84l-5.52-6.8Z"/>
    </g>
    <g>
      <path class="cls-2" d="M66.89,13.84c-1.08.2-2.62,1.14-2.62,2.83,0,1.55,1.28,2.49,1.28,4.44,0,1.48-.81,2.56-1.75,3.09.34,0,.74-.07,1.21-.07.94,0,1.48.07,1.48.07l4.71-5.79c-1.28-1.88-2.83-3.36-4.31-4.58Z"/>
      <path class="cls-2" d="M70.86,29.52c.61-.94.67-2.42.74-3.9.07-1.41.34-2.42,2.22-2.49.4,0,.81.07,1.55.07,2.76,0,4.51-.94,5.65-1.55-2.29-1.48-5.58-2.96-9.76-3.09-.27.74-2.35,6.59-2.49,7.06,0,0,.4.47.87,1.21.61,1.08.94,2.02,1.21,2.69Z"/>
    </g>
  </g>
  <g>
    <path class="cls-1" d="M60.83,24.74c-.27,0-.34-.13-.4-.4,0-.27-1.21-11.1-1.41-12.72,0-.27-.07-.67-.07-.81,0-.27.13-.4.34-.4.54,0,3.63.74,6.86,2.96-.94.27-2.62,1.21-2.62,3.23,0,1.75,1.28,2.76,1.28,4.51.07,2.96-3.23,3.63-3.97,3.63Z"/>
    <path class="cls-1" d="M71.06,30.26c.07.13.07.27.13.34.07.13.2.2.27.2s.13,0,.27-.07c.27-.13,10.09-4.71,11.57-5.38.2-.13.61-.27.74-.34s.2-.2.2-.34c0-.07,0-.13-.07-.2-.2-.27-1.14-1.35-2.76-2.42-1.28.67-3.23,1.75-6.19,1.82-.74,0-.87-.07-1.35-.07-1.41,0-1.82.61-1.82,1.88v.94c0,1.08-.13,2.62-1.01,3.63Z"/>
  </g>
</svg>