<?xml version="1.0" encoding="UTF-8"?>
<svg id="Layer_1" data-name="Layer 1" xmlns="http://www.w3.org/2000/svg" xmlns:xlink="http://www.w3.org/1999/xlink" viewBox="0 0 172 62">
  <defs>
    <style>
      .cls-1 {
        fill: #94b6dc;
      }

      .cls-2 {
        fill: url(#_무제_그라디언트_5);
      }

      .cls-3 {
        fill: #636a6c;
      }
    </style>
    <radialGradient id="_무제_그라디언트_5" data-name="무제 그라디언트 5" cx="-1629.47" cy="-1193.21" fx="-1629.47" fy="-1193.21" r="24" gradientTransform="translate(728.32 522.69) scale(.42)" gradientUnits="userSpaceOnUse">
      <stop offset="0" stop-color="#fff"/>
      <stop offset="1" stop-color="#007cbc"/>
    </radialGradient>
  </defs>
  <polygon class="cls-3" points="123.5 36.51 132.25 36.51 132.25 35.6 125.02 35.6 125.02 32.43 123.5 32.43 123.5 36.51"/>
  <polygon class="cls-3" points="130.67 30.12 122.52 30.12 122.52 31.03 125.81 31.03 125.81 33.53 127.39 33.53 127.39 31.03 130.67 31.03 130.67 31.95 128.48 31.95 128.48 32.8 130.67 32.8 130.67 34.26 132.25 34.26 132.25 23.98 130.67 23.98 130.67 30.12"/>
  <path class="cls-3" d="M125.93,29.27c1.64,0,2.98-1.16,2.98-2.62s-1.34-2.62-2.98-2.62-2.98,1.16-2.98,2.62c.06,1.4,1.34,2.62,2.98,2.62h0ZM125.93,24.89c.85,0,1.52.79,1.52,1.76s-.67,1.76-1.52,1.76-1.52-.79-1.52-1.76.73-1.76,1.52-1.76h0Z"/>
  <polygon class="cls-3" points="111.88 28.42 114.92 28.42 114.92 29.88 110.36 29.88 110.36 30.79 121.06 30.79 121.06 29.88 116.5 29.88 116.5 28.42 119.79 28.42 119.79 27.51 113.4 27.51 113.4 25.01 119.79 25.01 119.79 24.1 111.88 24.1 111.88 28.42"/>
  <polygon class="cls-3" points="111.82 32.92 117.96 32.92 117.96 36.57 119.54 36.57 119.54 32.01 111.82 32.01 111.82 32.92"/>
  <polygon class="cls-3" points="84.39 24.22 76.06 24.22 76.06 25.13 82.81 25.13 82.81 29.09 74.9 29.09 74.9 30 85.54 30 85.54 29.09 84.39 29.09 84.39 24.22"/>
  <path class="cls-3" d="M76.48,36.39h7.54v-5.23h-7.54v5.23h0ZM78.06,32.07h4.44v3.47h-4.44v-3.47h0Z"/>
  <path class="cls-3" d="M104.95,25.13v-.79h-5.84v.91h4.14c0,2.31-2.07,4.14-4.14,4.38v.91c2.13-.24,5.84-1.58,5.84-5.41h0Z"/>
  <polygon class="cls-3" points="106.47 30.85 108.05 30.85 108.05 27.45 109.57 27.45 109.57 26.53 108.05 26.53 108.05 23.98 106.47 23.98 106.47 30.85"/>
  <path class="cls-3" d="M100.63,36.39h7.42v-4.87h-7.42v4.87h0ZM102.15,32.43h4.32v3.04h-4.32v-3.04h0Z"/>
  <polygon class="cls-3" points="91.26 32.01 91.26 29.57 93.51 29.57 93.51 32.01 94.91 32.01 94.91 29.57 97.95 29.57 97.95 28.66 86.82 28.66 86.82 29.57 89.86 29.57 89.86 32.01 91.26 32.01"/>
  <path class="cls-3" d="M88.46,33.95c0-1.64,1.76-2.98,3.89-2.98s3.89,1.34,3.89,2.98-1.76,2.98-3.89,2.98-3.89-1.34-3.89-2.98h0ZM92.42,35.96c1.22,0,2.19-.91,2.19-2.07s-.97-2.07-2.19-2.07-2.19.91-2.19,2.07.97,2.07,2.19,2.07h0Z"/>
  <path class="cls-3" d="M89.19,26.53c0-1.52,1.4-2.8,3.22-2.8s3.22,1.22,3.22,2.8-1.4,2.8-3.22,2.8-3.22-1.28-3.22-2.8h0ZM92.42,28.48c.91,0,1.58-.85,1.58-1.95s-.73-1.95-1.58-1.95c-.91,0-1.58.85-1.58,1.95s.67,1.95,1.58,1.95h0Z"/>
  <path class="cls-1" d="M57.14,13.7c-.73,0-1.4.18-2.13.3l.91,3.35,1.22-3.65h0Z"/>
  <path class="cls-1" d="M60.73,14.19c-.85-.3-1.76-.49-2.68-.49l-.73,4.01,3.41-3.53h0Z"/>
  <path class="cls-1" d="M54.1,14.37c-.61.24-1.16.49-1.7.85l2.13,2.43-.43-3.28h0Z"/>
  <path class="cls-1" d="M67.05,20.69c-.43-1.4-1.16-2.74-2.19-3.83l-5.78,3.16,7.97.67h0Z"/>
  <path class="cls-1" d="M67.05,26.23c.49-1.7.49-3.53.06-5.17l-8.15.36,8.09,4.8h0Z"/>
  <path class="cls-1" d="M51.54,15.77c-.3.24-.61.49-.85.79-.18.18-.36.43-.55.61l3.22,1.4-1.82-2.8h0Z"/>
  <path class="cls-1" d="M64.44,16.44c-.91-.85-1.89-1.52-2.92-1.95l-3.04,4.2,5.96-2.25h0Z"/>
  <path class="cls-1" d="M58.36,22.7l8.64,3.71c-.49,1.46-1.28,2.86-2.43,4.01-.24.24-.49.43-.73.61l-5.47-8.33"/>
  <path class="cls-1" d="M49.54,17.9c-.49.67-.79,1.4-1.09,2.13l4.26-.18-3.16-1.95h0Z"/>
  <path class="cls-1" d="M60.55,31.46c.18-1.7,0-3.35-.61-4.8l3.83,4.44c-1.09.85-2.31,1.46-3.53,1.82.12-.49.24-.97.3-1.46"/>
  <circle class="cls-2" cx="50.81" cy="30.3" r="9.79"/>
</svg>