<?xml version="1.0" encoding="UTF-8"?>
<svg id="Layer_1" data-name="Layer 1" xmlns="http://www.w3.org/2000/svg" viewBox="0 0 172 62">
  <defs>
    <style>
      .cls-1 {
        fill: #0064aa;
      }

      .cls-2 {
        fill: #00aee5;
      }

      .cls-3 {
        fill: #f9be00;
      }

      .cls-4 {
        fill: #8dc21f;
      }
    </style>
  </defs>
  <path class="cls-2" d="M56.78,29.26c-1.68.61-4.78,1.28-4.31-1.55.4-2.56,3.7-4.78,6.39-5.99,1.01-.47,3.16-1.14,4.1-.54.81.47,1.28.34,1.35-.4.07-1.01-.81-1.88-1.68-2.15-.47-.13-1.01-.2-1.48-.2-2.22,0-4.71,1.28-7.4,3.16-2.15,1.48-4.71,4.44-4.71,6.86,0,1.14.54,2.09,1.95,2.76,2.83,1.35,5.45-.2,7.6-1.41.61-.34.94-.61,1.01-.94.07-.67-1.41-.13-2.83.4Z"/>
  <path class="cls-2" d="M65.32,29.46c-.54.2-1.14.34-1.75.4-1.41.07-1.61-.61-1.48-.74.74,0,2.02-.34,2.76-.61,1.41-.47,3.9-1.75,4.04-3.36,0-.4-.2-.74-.54-.94-1.75-1.01-4.58.54-6.12,1.75-1.21.94-3.16,3.63-1.14,4.64,1.08.61,2.49.54,3.63.2.61-.13,1.21-.47,1.55-.74s.61-.67.54-.94c-.2-.4-1.21.2-1.48.34h0ZM63.37,26.91h0c.47-.47,1.68-1.08,2.35-1.28.27-.07.81-.13.47.27-.2.27-.54.47-.87.61-.34.13-1.14.54-1.48.67,0,0-.81.34-.87.13.07-.07.34-.27.4-.4Z"/>
  <path class="cls-2" d="M75.62,24.96c-1.68-.47-3.63,1.08-3.97,1.35-.2.2.54-1.35.4-1.75-.4-1.01-2.49-1.14-2.35-.27.13,1.35-.4,3.43-1.75,5.45-.13.2-.54.61-.13.81,1.21.61,2.56-.94,3.09-1.55.87-1.08,1.48-2.22,2.76-2.35,1.01-.13,1.35.94,1.55,2.49.07.67.13,2.29,1.55,1.95.87-.27.61-5.65-1.14-6.12Z"/>
  <path class="cls-2" d="M94.79,24.55c-.34-.54-.87-.54-1.35-.54-1.75.2-3.5,1.61-3.63,1.68.34-.74.54-1.41.2-1.82-.13-.2-1.01-.67-1.55-.27-.4.27-.27,1.14-.87,2.83-.4,1.14-1.28,2.69-1.75,3.84-.2.4.13.67.54.67,1.35.13,1.82-1.14,2.29-1.95.87-1.41,1.01-1.61,1.95-2.22,1.21-.74,2.62-.87,3.84-1.28.47-.13.61-.54.34-.94Z"/>
  <path class="cls-2" d="M98.9,28.59c-.34-.47-.54-.67-.94-.81-1.28-.4-2.29.81-3.23,1.14-.07.07-.54.2-.61.07-.2-.47.61-1.14.87-1.35.61-.4,2.15-1.28,2.76-.47.2.2.34.4.61.4.87.07,1.35-.74,1.35-1.48,0-.4-.07-.74-.27-1.01-.87-1.21-2.96-.2-3.97.4-.74.47-1.41.94-2.02,1.48-.54.47-1.01,1.01-1.41,1.61-.34.47-.61,1.14-.61,1.68.07,1.14,1.75.87,2.56.61,1.35-.54,2.49-1.48,3.03-1.61.54-.13.67.94,2.29,1.95.47.27,1.35.07,1.55-.54.2-.2-.74-.54-1.95-2.09Z"/>
  <path class="cls-2" d="M107.98,18.77c-.2-.4-1.35-.34-1.75-.13-1.21.47-2.56,3.16-3.23,4.44-.87,1.75-4.1,8.88.54,9.02.61,0,.94-.07,1.41-.4.47-.34.67-1.14,0-.94-.2.07-1.08.13-1.35.13-3.23-.34,1.21-7.4,3.77-10.76.87-1.08.61-1.35.61-1.35Z"/>
  <path class="cls-2" d="M85.24,27.18c-.47.34-2.76,2.62-4.17,2.35-1.68-.27.13-4.37,2.22-7.8,0,0,3.03-4.98,5.05-7.67.34-.4.61-.87.94-1.28.47-.67.94-1.01,0-1.55-.34-.2-.67-.27-1.08-.27-.74,0-1.61.4-2.22,1.14-.2.34-.87,1.21-1.68,2.56-2.22,3.36-4.44,7.87-4.44,7.87-1.61,3.43-2.35,6.19-1.48,7.94.34.61,1.08.87,2.02.87,1.61,0,3.84-.81,5.45-2.42.67-.61.27-2.49-.61-1.75Z"/>
  <path class="cls-4" d="M99.43,17.89c.81-.2,4.91-1.08,4.1-1.75-.27-.2-.67-.27-1.35-.2-.27.07-.54.13-1.01.2,0,0-17.36,2.89-31.42.4-.67-.13-1.14-.2-1.41-.2-1.41,0-1.55.54-1.35,1.08.27.74,1.48,1.95,3.03,2.22,12.45,2.22,29.4-1.75,29.4-1.75Z"/>
  <polygon class="cls-1" points="72.72 44.33 74.74 44.33 75.82 36.8 73.8 36.8 72.72 44.33"/>
  <path class="cls-1" d="M98.83,36.6c-.74,0-1.41.2-2.15.74.07-.47.54-3.77.54-3.77h-1.88l-1.55,10.76h2.02s.81-5.65.81-5.79c.4-.2.81-.34,1.28-.34.4,0,.74.13.87.34s.2.47.2.81l-.74,5.05h2.02l.74-4.98c.13-.87,0-1.61-.47-2.09-.27-.47-.87-.74-1.68-.74Z"/>
  <path class="cls-1" d="M123.25,37.27c-.4-.47-1.01-.67-1.82-.67-.74,0-1.41.2-2.15.74,0-.2.07-.54.07-.54h-1.88l-1.08,7.54h2.02l.81-5.79c.4-.2.81-.34,1.28-.34.4,0,.74.13.87.34.2.2.2.47.2.81l-.74,5.05h2.02l.74-4.98c.27-.94.13-1.61-.34-2.15Z"/>
  <path class="cls-1" d="M113.23,36.53c-2.56,0-3.97,2.09-4.31,4.04-.2,1.28.07,2.35.67,3.03.54.61,1.35.94,2.35.94,2.56,0,3.97-2.09,4.31-4.04.2-1.28-.07-2.35-.67-3.03-.47-.61-1.28-.94-2.35-.94h0ZM114.17,40.57h0c-.27,1.75-.87,2.56-1.88,2.56-.34,0-.61-.13-.81-.34-.4-.54-.4-1.48-.27-2.15.27-1.68.87-2.62,1.88-2.62.34,0,.61.13.81.34.4.54.34,1.48.27,2.22Z"/>
  <path class="cls-1" d="M85.31,36.6c-1.14,0-1.88.4-2.49.94-.47-.81-1.35-.94-1.88-.94-.74,0-1.41.2-2.09.74,0-.2.07-.47.07-.47h-1.88l-1.08,7.54h2.02s.81-5.65.81-5.79c.4-.2.81-.34,1.28-.34.34,0,.67.13.81.34.2.2.2.47.2.81l-.74,5.05h2.02l.74-4.98c.07-.2.07-.47.07-.67v-.13c.4-.27.87-.4,1.35-.4.34,0,.67.13.81.34s.2.47.2.81l-.74,5.05h2.02l.74-4.98c.13-.94,0-1.61-.4-2.09-.61-.74-1.35-.81-1.82-.81Z"/>
  <path class="cls-1" d="M75.95,33.9c-.2-.2-.4-.34-.74-.34-.61,0-1.14.47-1.21,1.08-.07.27.07.61.2.81.2.2.4.34.74.34.61,0,1.14-.47,1.21-1.08.07-.34,0-.61-.2-.81Z"/>
  <path class="cls-1" d="M107.91,37.4c-.47-.61-1.28-.87-2.22-.87-2.09,0-3.7,1.55-4.04,3.9-.2,1.28.07,2.35.67,3.09.61.67,1.48,1.01,2.62,1.01,1.61,0,2.56-.54,2.56-.54l.2-1.68s-.87.54-2.02.54c-.74,0-1.35-.2-1.61-.54-.2-.27-.34-.61-.34-1.08,0-.13,0-.27.07-.4h4.51c.27-.81.27-1.68.27-1.68-.07-.67-.27-1.28-.67-1.75h0ZM106.5,39.49h-2.62c.13-.54.47-1.48,1.55-1.48.34,0,.61.13.81.34.13.2.2.4.27.74.07-.07.07.13,0,.4Z"/>
  <path class="cls-1" d="M92.24,38.21c.87,0,1.41.47,1.41.47l.34-1.68s-.61-.4-1.82-.4c-2.56,0-3.77,2.09-4.1,4.04-.2,1.35,0,2.42.61,3.09.54.61,1.28.87,2.29.87,1.21,0,2.09-.47,2.09-.47l.2-1.68s-.74.54-1.55.54c-.54,0-.94-.13-1.14-.4-.34-.4-.47-1.08-.34-2.02.13-.94.54-2.35,2.02-2.35Z"/>
  <path class="cls-1" d="M69.76,35.86c1.55,0,2.35.67,2.35.67l.4-1.95s-.87-.47-2.56-.47c-3.16,0-5.38,1.95-5.79,5.18-.07.34-.07.67-.07,1.01,0,1.14.34,2.15.94,2.83.74.87,1.95,1.35,3.5,1.35,1.95,0,2.89-.54,2.89-.54l.81-5.52h-3.63l-.27,1.68h1.61c0,.27-.34,2.29-.34,2.49-.27.13-.67.13-1.01.13-.81,0-1.41-.27-1.82-.67-.47-.61-.67-1.48-.47-2.76.34-2.15,1.61-3.43,3.43-3.43Z"/>
  <path class="cls-3" d="M85.91,17.56c.81-1.21,1.68-2.49,2.42-3.5.34-.4.61-.87.94-1.28.47-.67.94-1.01,0-1.55-.34-.2-.67-.27-1.08-.27-.74,0-1.61.4-2.22,1.14-.2.34-.87,1.21-1.68,2.56-.61.94-1.21,1.88-1.75,2.89h3.36Z"/>
  <path class="cls-1" d="M82.55,17.56c-.54.94-1.08,1.88-1.48,2.69,1.08-.07,2.15-.07,3.23-.2.47-.74,1.01-1.61,1.61-2.56-1.08.07-2.22.07-3.36.07Z"/>
</svg>