<?xml version="1.0" encoding="UTF-8"?>
<svg id="Layer_1" data-name="Layer 1" xmlns="http://www.w3.org/2000/svg" viewBox="0 0 172 62">
  <defs>
    <style>
      .cls-1 {
        fill: #082f67;
      }

      .cls-2 {
        fill: #fe660d;
      }
    </style>
  </defs>
  <g>
    <path class="cls-1" d="M89.54,38.66l-1.21,6.8h-3.5c-.4,0-.67-.07-.81-.27-.13-.13-.2-.4-.13-.67l1.01-5.85h4.64ZM86.04,39.8l-.81,4.64h1.95l.81-4.64h-1.95ZM92.23,38.52l-1.41,7.87h-1.35l1.41-7.87h1.35Z"/>
    <path class="cls-1" d="M97.41,38.66l-.67,3.63h-1.82l-.4,2.15h2.42l1.08-5.99h1.35l-.54,3.16h1.01l.54-3.16h1.35l-1.41,7.87h-1.35l.67-3.7h-.94l-.67,3.77h-1.35l.13-.94h-2.62c-.4,0-.67-.07-.81-.2-.2-.13-.27-.4-.2-.67l.54-3.09h1.75l.34-1.82h-1.75l.2-1.01h3.16Z"/>
    <path class="cls-1" d="M106.76,42.22c-.2,1.08-.54,1.88-1.01,2.56s-1.08,1.08-1.68,1.08c-.67,0-1.08-.34-1.35-1.08-.2-.67-.2-1.55-.07-2.62.2-1.01.47-1.88.94-2.56.47-.74,1.08-1.08,1.75-1.08.54,0,1.01.27,1.21.81.27.54.34,1.21.27,2.02.07,0,.07.27-.07.87ZM106.29,42.69l.2-1.01h.87l.54-3.09h1.35l-1.41,7.87h-1.35l.67-3.77h-.87ZM104.47,40.14c-.2.47-.4,1.14-.54,1.95-.13.87-.2,1.55-.13,2.02.07.54.2.81.47.81s.47-.27.74-.81c.2-.54.4-1.21.54-2.02.13-.81.2-1.48.13-1.95-.07-.54-.2-.81-.47-.81-.2,0-.47.27-.74.81ZM111.27,38.52l-1.41,7.87h-1.35l1.41-7.87h1.35Z"/>
    <path class="cls-1" d="M115.44,38.59c-.2,1.01-.2,1.82-.07,2.35.13.54.4,1.01.87,1.28l-.81.61c-.27-.2-.54-.47-.81-.81-.13-.2-.27-.4-.4-.74-.2.27-.4.47-.67.74-.34.34-.67.61-1.08.81l-.61-.61c.54-.34,1.01-.74,1.28-1.28.4-.61.67-1.41.87-2.42h1.41v.07ZM118.74,38.52l-.81,4.51h-1.35l.4-2.22h-1.01l.13-.87h1.01l.27-1.41h1.35ZM120.75,38.52l-.81,4.51h-1.35l.81-4.51h1.35ZM117.86,44.91c.54.4,1.14.61,1.88.74l-.74.81c-.67-.13-1.28-.34-1.75-.61-.54-.27-.87-.61-1.08-1.01-.34.4-.81.74-1.48,1.01-.67.34-1.41.54-2.15.61l-.4-.74c.81-.13,1.55-.34,2.22-.74.81-.47,1.28-1.01,1.35-1.61h1.35c0,.54.2,1.08.81,1.55Z"/>
  </g>
  <g>
    <path class="cls-1" d="M52.73,25.54c-.07.61-1.35,9.15-1.41,9.96h2.76c.07-.61,1.35-9.15,1.41-9.96h-2.76Z"/>
    <path class="cls-1" d="M75.21,25.54c-.07.61-1.35,9.15-1.41,9.96h6.46c.07-.47.2-1.61.34-2.15h-3.9l.27-1.82h3.57c.07-.4.2-1.48.27-2.02h-3.57l.27-1.82h3.77c.07-.47.2-1.61.34-2.15-.81,0-5.79,0-6.39,0Z"/>
    <path class="cls-1" d="M44.66,31.25s2.29-5.25,2.49-5.72h3.43c0,.67-.47,9.28-.47,9.96h-2.49l.4-7s-2.83,6.53-2.96,7h-1.95l-.87-7c-.07.34-1.01,4.98-1.48,7h-2.49c.27-.87,2.15-9.49,2.29-9.96h3.3l.81,5.72Z"/>
    <path class="cls-1" d="M70.36,33.54s.2,1.61.27,2.02h2.62c-.13-.81-1.61-9.42-1.68-9.96h-3.36c-.2.4-3.97,9.02-4.44,9.96h2.69c.13-.34.81-2.02.81-2.02h3.09ZM68.07,31.46l1.55-3.7.54,3.7h-2.09Z"/>
    <path class="cls-1" d="M59.33,27.42h.61c.4,0,.87.07,1.14.4.2.27.27.61.2,1.01,0,0-.07.74-.61,1.01,0,0-.34.2-.94.27h-1.21l2.35,5.45h2.69l-2.02-4.17c1.21-.2,2.15-.61,2.42-2.49,0-.27.07-.47.07-.67,0-.67-.2-1.28-.54-1.68-.67-.74-1.82-.94-2.62-.94h-3.77c-.07.61-1.35,9.15-1.41,9.96h2.49c.07-.61,1.14-8.14,1.14-8.14"/>
    <path class="cls-2" d="M136.3,12.82c-1.61,6.66-7.33,10.23-10.7,12.18l-.13-.2c1.41-1.14,6.12-4.64,7.67-10.43l3.16-1.55Z"/>
    <g>
      <path class="cls-1" d="M113.22,29.51q.07,0,.13-.07c0,.07-.07.07-.13.07h0Z"/>
      <path class="cls-1" d="M114.36,29.24c-.2.07-.4.13-.61.13.13,0,.34-.07.61-.13Z"/>
      <path class="cls-1" d="M114.97,29.1c-.13,0-.27.07-.4.07.2,0,.27-.07.4-.07Z"/>
      <path class="cls-1" d="M118.6,28.02h0c-.27.07-.61.2-.87.27.34-.07.61-.13.87-.27Z"/>
      <path class="cls-1" d="M117.59,28.36c-.13.07-.27.07-.4.13.2-.07.34-.07.4-.13Z"/>
      <path class="cls-1" d="M117.12,28.5c-.4.13-.81.27-1.28.34.4-.07.81-.2,1.28-.34Z"/>
      <path class="cls-1" d="M115.64,28.97c-.13.07-.27.07-.4.07.13,0,.27-.07.4-.07Z"/>
      <path class="cls-1" d="M117.59,25.54c-.07.4-.27,1.75-.34,2.35,1.95-.54,4.31-1.35,6.46-2.35h-6.12Z"/>
      <path class="cls-1" d="M99.56,29.98c-.27-.2-.54-.34-.87-.47l-.74-.34h0c-.2-.13-.81-.47-.81-1.01,0-.27.13-.47.27-.67.2-.2.61-.27.94-.2.47.07,1.01.4,1.61.87.27-.54.81-1.61,1.01-1.95-.67-.54-1.35-.87-2.35-1.01-1.21-.2-2.42.07-3.23.74-.67.54-1.14,1.28-1.21,2.22v.47c0,.47.07.81.2,1.14h.2c1.28.13,3.03.2,4.98.2Z"/>
      <path class="cls-1" d="M112.55,27.69h3.77c.07-.47.2-1.61.34-2.15h-6.32c-.07.27-.27,1.95-.54,3.9.87-.13,1.75-.27,2.62-.4l.13-1.35Z"/>
      <path class="cls-1" d="M118.6,28.02h0c-.27.07-.54.2-.87.27q-.07,0-.13.07c-.13.07-.27.07-.4.13-.07,0-.13,0-.13.07-.4.13-.81.27-1.28.34-.07,0-.13.07-.2.07-.13.07-.27.07-.4.07-.07,0-.13.07-.27.07s-.27.07-.4.07c-.07,0-.2.07-.27.07-.2.07-.4.13-.61.13-.13,0-.2.07-.34.07q-.07,0-.13.07h0c-1.14.27-2.35.47-3.57.74h-.07c-.27.07-.47.07-.74.13h-.13c-.27.07-.47.07-.74.13h-.07c-1.35.2-2.83.34-4.31.47h0c-.2,0-.47.07-.67.07h-.07c-.27,0-.47.07-.74.07h-.07c-.27,0-.47,0-.74.07h-.07c-.27,0-.54,0-.74.07h0c-1.28.07-2.56.07-3.9.07h-1.14c-1.08,0-2.22-.07-3.36-.13h0c-1.75-.07-3.5-.27-5.38-.47l2.15-2.02s1.21.4,2.96.67c-.34-1.95-.61-3.63-.67-3.9h-3.36c-.2.4-3.97,9.02-4.44,9.96h2.69c.13-.34,1.01-2.49,1.01-2.49h2.76s.27,2.09.34,2.49h2.62c-.07-.34-.34-1.82-.61-3.57,1.88.13,3.77.13,5.52.13.07.13.13.34.13.47v.2c-.07.2-.13.4-.34.54-.34.27-.87.2-1.21.13-.87-.13-1.55-.81-2.09-1.35-.34.54-1.08,1.75-1.28,2.09,1.01.94,2.09,1.48,3.23,1.61,1.14.2,2.29-.07,3.16-.74.74-.54,1.21-1.35,1.35-2.29.07-.27.07-.54.07-.81,1.88-.07,3.43-.2,4.44-.27.34.27.47.54.47.87v.2c-.07.2-.13.4-.34.54-.34.27-.87.2-1.21.13-.87-.13-1.55-.81-2.09-1.35-.34.54-1.08,1.75-1.28,2.09,1.01.94,2.09,1.48,3.23,1.61,1.14.2,2.29-.07,3.16-.74.74-.54,1.21-1.35,1.35-2.29.07-.54.07-1.01-.07-1.48.4-.07.81-.13,1.21-.2-.27,2.09-.61,4.04-.61,4.44h6.46c.07-.47.2-1.61.34-2.15h-3.9l.27-1.82h3.57c.07-.4.2-1.28.27-1.82.47-.13.74-.27.74-.27,0,0,1.21-.34,2.76-.94-.2,1.55-.87,6.32-1.01,7h2.76c.07-.61,1.08-7.47,1.08-7.47h2.02c.07-.4.27-1.82.34-2.42-1.14.67-3.16,1.55-5.99,2.49Z"/>
      <path class="cls-1" d="M106.49,29.51l-.74-.34h0c-.2-.13-.81-.47-.81-1.01,0-.27.13-.47.27-.67.2-.2.61-.27.94-.2.47.07,1.01.4,1.61.87.27-.54.81-1.61,1.01-1.95-.67-.54-1.35-.87-2.35-1.01-1.21-.2-2.42.07-3.23.74-.67.54-1.14,1.28-1.21,2.22v.47c0,.54.13.94.34,1.35,1.48-.07,3.03-.13,4.64-.27-.13-.07-.27-.13-.47-.2Z"/>
    </g>
  </g>
</svg>