<?xml version="1.0" encoding="UTF-8"?>
<svg id="Layer_1" data-name="Layer 1" xmlns="http://www.w3.org/2000/svg" viewBox="0 0 172 62">
  <defs>
    <style>
      .cls-1 {
        fill: #fff;
      }

      .cls-2 {
        fill: #004098;
      }

      .cls-3 {
        fill: #263c93;
      }
    </style>
  </defs>
  <g>
    <path class="cls-2" d="M132.59,25.63h4.17c1.7,0,2.98.6,3.66,2.13.51,1.19.6,3.92.6,4.35,0,2.98-.26,4.69-.85,5.62-.77,1.19-2.13,1.79-4.52,1.79h-3.15l.09-13.89h0ZM134.29,37.9h1.62c2.39,0,3.32-.94,3.32-4.17v-2.81c0-2.81-.85-3.83-2.64-3.83h-2.3v10.82h0Z"/>
    <path class="cls-2" d="M124.75,35.43v.43c0,1.87,1.19,2.47,2.3,2.47,1.36,0,2.47-.6,2.47-2.22,0-3.07-6.13-2.73-6.13-6.9,0-2.47,1.7-3.75,4-3.75,2.47,0,3.92,1.19,3.75,4.09h-1.79c0-1.53-.43-2.56-2.13-2.56-1.02,0-2.13.51-2.13,2.04,0,3.07,6.13,2.64,6.13,6.99,0,2.9-1.96,3.83-4.26,3.83-4,0-4-3.07-4-4.43h1.79Z"/>
    <g>
      <polygon class="cls-2" points="107.2 25.29 107.2 32.79 109.07 32.79 109.07 29.81 110.61 29.81 110.61 28.27 109.07 28.27 109.07 25.29 107.2 25.29"/>
      <path class="cls-2" d="M100.47,39.43v-6.05h8.6v6.05h-8.6ZM107.28,37.99v-3.15h-5.11v3.15h5.11Z"/>
      <polygon class="cls-2" points="121.43 25.29 121.43 32.79 119.64 32.79 119.64 29.81 117.34 29.81 117.34 28.27 119.64 28.27 119.64 25.29 121.43 25.29"/>
      <path class="cls-2" d="M117,39.86c-2.64,0-4.77-1.53-4.77-3.41s2.13-3.41,4.77-3.41,4.77,1.53,4.77,3.41c-.09,1.87-2.22,3.41-4.77,3.41ZM119.89,36.37c0-1.02-1.36-1.96-2.98-1.96s-2.98.85-2.98,1.96c0,1.02,1.36,1.96,2.98,1.96,1.7,0,2.98-.85,2.98-1.96Z"/>
      <path class="cls-2" d="M102.94,25.55s-.26,4,2.98,5.71l-.94,1.28s-2.39-1.62-2.9-3.32c-.51,1.7-2.9,3.32-2.9,3.32l-.94-1.28c3.24-1.7,3.07-5.71,3.07-5.71,0,0,1.62,0,1.62,0Z"/>
      <path class="cls-2" d="M114.27,29.3c-.51,1.7-2.73,3.15-2.73,3.15l-.94-1.28c3.07-1.53,2.81-5.54,2.81-5.54h1.7s-.26,4,2.81,5.54l-.94,1.28s-2.22-1.45-2.73-3.15Z"/>
    </g>
    <path class="cls-2" d="M143.58,35.43v.43c0,1.87,1.19,2.47,2.3,2.47,1.36,0,2.47-.6,2.47-2.22,0-3.07-6.13-2.73-6.13-6.9,0-2.47,1.7-3.75,4-3.75,2.47,0,3.92,1.19,3.75,4.09h-1.79c0-1.53-.43-2.56-2.13-2.56-1.02,0-2.13.51-2.13,2.04,0,3.07,6.13,2.64,6.13,6.99,0,2.9-1.96,3.83-4.26,3.83-4,0-4-3.07-4-4.43h1.79Z"/>
  </g>
  <path class="cls-3" d="M92.42,27.23c.9,5-12.7,11.5-30.3,14.6s-32.6,1.5-33.5-3.5,12.7-11.5,30.3-14.6c17.7-3,32.6-1.4,33.5,3.5"/>
  <polyline class="cls-1" points="75.82 34.63 75.72 29.53 77.42 29.53 77.42 36.03 75.02 36.03 73.42 30.63 73.42 30.63 73.42 36.03 71.82 36.03 71.82 29.53 74.32 29.53 75.82 34.63"/>
  <polyline class="cls-1" points="46.12 30.13 45.22 36.13 43.42 36.13 44.72 29.53 47.62 29.53 48.82 36.13 47.02 36.13 46.22 30.13"/>
  <polyline class="cls-1" points="53.82 34.53 54.62 29.53 57.32 29.53 57.52 36.13 55.82 36.13 55.82 30.13 55.72 30.13 54.62 36.13 53.02 36.13 51.92 30.13 51.82 30.13 51.82 36.13 50.12 36.13 50.32 29.53 53.02 29.53 53.82 34.53"/>
  <path class="cls-1" d="M40.72,34.23c.1.2,0,.4,0,.5-.1.2-.2.4-.6.4s-.7-.2-.7-.6v-.6h-1.8v.5c0,1.5,1.2,1.9,2.4,1.9s2.2-.4,2.3-1.5c.1-.6,0-.9,0-1.1-.3-1.4-2.8-1.8-3-2.6v-.3c0-.2.2-.4.6-.4s.6.2.6.6v.4h1.6v-.5c0-1.4-1.3-1.7-2.2-1.7-1.2,0-2.1.4-2.3,1.5,0,.3-.1.6,0,.9.4,1.4,2.7,1.7,3.1,2.6"/>
  <path class="cls-1" d="M62.12,34.23c.1.2,0,.4,0,.5-.1.2-.2.4-.6.4s-.7-.2-.7-.6v-.6h-1.8v.5c0,1.5,1.1,1.9,2.4,1.9,1.2,0,2.2-.4,2.3-1.5.1-.6,0-.9,0-1.1-.3-1.4-2.8-1.8-2.9-2.5v-.3c0-.2.2-.4.6-.4s.6.2.6.6v.4h1.6v-.5c0-1.4-1.3-1.6-2.2-1.6-1.2,0-2.1.4-2.3,1.4,0,.3-.1.6,0,.9.4,1.3,2.7,1.6,3,2.5"/>
  <path class="cls-1" d="M67.72,35.13c.5,0,.6-.3.6-.5v-5.1h1.7v5.1c-.1,1.2-1.1,1.6-2.3,1.6s-2.2-.4-2.3-1.6v-5.1h1.7v5.1c0,.2.1.5.6.5"/>
  <path class="cls-1" d="M81.42,35.03c.5,0,.6-.3.7-.5v-1.3h-.7v-1h2.3v2.2c-.1,1.2-1.2,1.6-2.3,1.6-1.2,0-2.2-.4-2.3-1.6v-3.6c.1-1.2,1.1-1.6,2.3-1.6s2.2.4,2.3,1.6v.6h-1.7v-.7c0-.1-.2-.5-.7-.5s-.6.3-.7.5v3.6c.2.4.4.7.8.7"/>
</svg>