<?xml version="1.0" encoding="UTF-8"?>
<svg id="Layer_1" data-name="Layer 1" xmlns="http://www.w3.org/2000/svg" viewBox="0 0 172 62">
  <defs>
    <style>
      .cls-1 {
        fill: #ee7623;
      }

      .cls-2 {
        fill: #ce0e2d;
      }
    </style>
  </defs>
  <g>
    <g>
      <g>
        <path class="cls-2" d="M62.27,34.86c-1.08-.54-2.02-.94-2.02-1.75,0-.67.54-1.14,1.55-1.14.4,0,.67.07,1.01.13.13,0,.34.07.47.07.87,0,1.41-.54,1.75-1.55l.13-.4c-.13-.07-1.61-.67-3.5-.67-3.03,0-4.58,1.95-4.58,3.9,0,1.01.34,1.75.81,2.29.61.74,1.55,1.21,2.42,1.61,1.21.61,2.35,1.08,2.35,1.95,0,.81-.81,1.28-1.95,1.28-1.48,0-2.83-.87-3.03-.94l-1.21,2.35c.2.13,1.82,1.14,4.44,1.14,2.83,0,4.91-1.61,4.91-4.1-.07-2.49-2.02-3.5-3.57-4.17Z"/>
        <path class="cls-2" d="M73.24,35.94l5.11-6.26h-3.7l-4.04,5.38h-.07v-5.38h-2.96v13.19h.2c1.28,0,2.83-.61,2.83-2.76v-3.03h.07l4.1,5.65h3.83l-5.38-6.8Z"/>
      </g>
      <g>
        <path class="cls-2" d="M78.48,15.48c-1.08.2-2.62,1.14-2.62,2.83,0,1.55,1.28,2.49,1.28,4.44,0,1.55-.81,2.56-1.75,3.09.34,0,.74-.07,1.21-.07.94,0,1.48.07,1.48.07l4.71-5.79c-1.28-1.82-2.83-3.36-4.31-4.58Z"/>
        <path class="cls-2" d="M82.45,31.16c.61-.94.67-2.42.74-3.9.07-1.41.34-2.49,2.22-2.49.4,0,.81.07,1.55.07,2.76,0,4.51-.94,5.65-1.55-2.29-1.48-5.58-2.96-9.76-3.09-.27.74-2.35,6.59-2.49,7.06,0,0,.4.47.87,1.21.61,1.08.94,2.02,1.21,2.69Z"/>
      </g>
    </g>
    <g>
      <path class="cls-1" d="M72.5,26.45c-.27,0-.34-.13-.4-.4,0-.27-1.21-11.1-1.41-12.72,0-.27-.07-.67-.07-.81,0-.27.13-.4.34-.4.54,0,3.63.74,6.86,2.96-.94.27-2.62,1.21-2.62,3.23,0,1.75,1.28,2.76,1.28,4.51,0,2.96-3.3,3.63-3.97,3.63Z"/>
      <path class="cls-1" d="M82.72,31.9c.07.13.07.27.13.34.07.13.2.2.27.2s.13,0,.27-.07c.27-.13,10.09-4.71,11.57-5.38.2-.13.61-.27.74-.34s.2-.2.2-.34c0-.07,0-.13-.07-.2-.2-.27-1.14-1.35-2.76-2.42-1.28.67-3.23,1.75-6.19,1.82-.74,0-.87-.07-1.35-.07-1.41,0-1.82.61-1.82,1.88v.94c-.07,1.08-.13,2.62-1.01,3.63Z"/>
    </g>
  </g>
  <g>
    <path class="cls-1" d="M101.76,41.25c-.34-.54-.81-1.14-1.21-1.82-.13-.2-.27-.4-.4-.67-.47.34-.94.81-.94,1.41,0,.67.47,1.28,1.48,1.28.4,0,.74-.13,1.08-.2ZM103.85,41.39c.34.47.61.81.74,1.08-.07.07-.13.07-.2.13-.13.13-.47.27-.81.27-.54,0-.81-.27-.94-.47l-.07-.07c-.61.34-1.35.54-2.15.54-1.82,0-2.89-1.21-2.89-2.62s.94-2.09,1.82-2.69c-.4-.74-.74-1.41-.74-2.02,0-1.14.81-2.09,2.29-2.09s2.29.94,2.29,1.82c0,1.08-.54,1.68-1.82,2.62.2.27.4.54.54.81.4.54.74,1.08,1.08,1.55.47-.54.81-1.01.94-1.28l1.21.67c-.13.34-.54,1.08-1.28,1.75ZM100.62,36.74c.74-.47,1.08-.87,1.08-1.35,0-.34-.2-.67-.81-.67-.4,0-.74.27-.74.81.07.34.27.81.47,1.21Z"/>
    <path class="cls-1" d="M95.77,40.78c-.13.07-1.01.61-2.09.61-2.09,0-3.03-1.68-3.03-3.23,0-1.75,1.14-3.23,3.03-3.23.54,0,.94.13,1.08.2.2.07.47.2.87.2.34,0,.61-.13.87-.54.13-.13.34-.47.34-.47-.07-.07-1.35-.94-3.3-.94-2.89,0-4.71,1.88-4.71,4.71s1.95,4.71,4.71,4.71c1.75,0,2.83-.67,3.03-.81l-.81-1.21Z"/>
    <path class="cls-1" d="M113.4,40.78c-.13.07-1.01.61-2.09.61-2.09,0-3.03-1.68-3.03-3.23,0-1.75,1.08-3.23,3.03-3.23.54,0,.94.13,1.08.2.2.07.47.2.87.2.34,0,.61-.13.87-.54.13-.13.34-.47.34-.47-.07-.07-1.35-.94-3.3-.94-2.89,0-4.71,1.88-4.71,4.71s1.95,4.71,4.71,4.71c1.75,0,2.83-.67,3.03-.81l-.81-1.21Z"/>
  </g>
</svg>