<?xml version="1.0" encoding="UTF-8"?>
<svg id="Layer_1" data-name="Layer 1" xmlns="http://www.w3.org/2000/svg" xmlns:xlink="http://www.w3.org/1999/xlink" viewBox="0 0 172 62">
  <defs>
    <style>
      .cls-1 {
        fill: #007dc4;
      }

      .cls-2 {
        fill: url(#_무제_그라디언트_13);
      }

      .cls-3 {
        fill: #fff;
      }

      .cls-4 {
        fill: #004181;
      }
    </style>
    <linearGradient id="_무제_그라디언트_13" data-name="무제 그라디언트 13" x1="119.37" y1="-151.2" x2="136.96" y2="-151.2" gradientTransform="translate(0 -115.27) scale(1 -1)" gradientUnits="userSpaceOnUse">
      <stop offset=".1" stop-color="#007dc4"/>
      <stop offset=".23" stop-color="#0083ca"/>
      <stop offset=".4" stop-color="#0094d9"/>
      <stop offset=".75" stop-color="#00b39b"/>
      <stop offset="1" stop-color="#71be44"/>
    </linearGradient>
  </defs>
  <g>
    <path class="cls-4" d="M40.08,27.18h-3.5v10.5h3.5c3.09,0,5.05-2.09,5.05-5.25.07-3.16-1.95-5.25-5.05-5.25ZM42.57,35.12c-.61.67-1.48,1.01-2.56,1.01h-1.75v-7.4h1.75c2.15,0,3.43,1.35,3.43,3.7,0,1.14-.27,2.09-.87,2.69Z"/>
    <path class="cls-4" d="M51.58,33.77h2.29c-.27,1.55-1.28,2.49-2.83,2.49-1.88,0-3.16-1.55-3.16-3.9,0-1.08.27-2.09.87-2.76.54-.74,1.35-1.08,2.29-1.08,1.28,0,2.09.54,2.56,1.82h1.75c-.47-2.15-2.02-3.43-4.31-3.43-2.83,0-4.84,2.29-4.84,5.38s2.09,5.38,4.91,5.38c2.62,0,4.44-1.95,4.44-4.78v-.81h-3.97v1.68h0Z"/>
    <path class="cls-4" d="M62.75,32.29h-.07.07c.81-.34,1.35-1.21,1.35-2.22,0-1.82-1.28-2.83-3.57-2.83h-3.63v10.5h3.97c2.22,0,3.57-1.08,3.57-2.96.07-1.21-.67-2.15-1.68-2.49ZM58.65,28.66h1.95c1.28,0,1.88.47,1.88,1.48s-.61,1.48-1.88,1.48h-1.95v-2.96ZM60.93,36.19h-2.29v-3.16h2.29c1.21,0,1.88.54,1.88,1.55-.07,1.01-.74,1.61-1.88,1.61Z"/>
    <path class="cls-4" d="M68.81,33.64c-.34,0-.61-.07-.81-.27-.2-.2-.2-.47-.2-.74v-3.97h3.09v-1.21h-4.58v5.52c0,.07-.07,1.01.47,1.48.47.4,1.01.47,1.55.47,0,0,1.68.07,3.09-.34l-.13-1.21s-1.28.27-2.49.27Z"/>
    <polygon class="cls-4" points="74.46 30.81 73.52 30.81 73.52 26.71 72.1 26.71 72.1 38.14 73.52 38.14 73.52 32.09 74.46 32.09 74.46 38.14 75.87 38.14 75.87 26.71 74.46 26.71 74.46 30.81"/>
    <path class="cls-4" d="M84.55,28.25c.2.13.2.4.2.74,0,.94-.2,2.22-.34,2.96l1.35.2c.4-1.82.47-3.7.47-3.7,0-.4-.07-.87-.4-1.21s-.81-.47-1.35-.47h-5.92v1.21h5.38c.2.07.4.07.61.27Z"/>
    <polygon class="cls-4" points="77.28 34.11 81.52 34.11 81.52 38.14 83 38.14 83 34.11 87.24 34.11 87.24 32.9 77.28 32.9 77.28 34.11"/>
    <path class="cls-4" d="M91.14,36.46c-.13-.13-.13-.4-.13-.61v-1.61h-1.48v2.09c0,.4.07.81.47,1.21.27.27.74.4,1.35.4h5.65v-1.21h-5.05c-.4-.07-.67-.13-.81-.27Z"/>
    <rect class="cls-4" x="88.12" y="32.22" width="9.96" height="1.21"/>
    <path class="cls-4" d="M90.6,30.81c.27.2.61.4,1.08.54.4.13.87.2,1.41.2s1.01-.07,1.41-.2.74-.27,1.08-.54c.27-.2.47-.47.67-.81.13-.34.2-.67.2-1.01s-.07-.67-.2-1.01-.34-.61-.67-.81c-.27-.2-.61-.4-1.08-.54-.4-.13-.87-.2-1.41-.2s-1.01.07-1.41.2-.74.34-1.08.54c-.27.2-.47.47-.67.81-.13.34-.2.67-.2,1.01s.07.74.2,1.01c.2.34.4.61.67.81ZM91.28,28.45c.07-.13.2-.27.4-.4.13-.13.34-.2.61-.27.27-.07.54-.07.81-.07.34,0,.61,0,.81.07.27.07.47.13.61.27s.27.27.4.4c.07.13.13.34.13.54s-.07.34-.13.54c-.07.13-.2.27-.4.4-.13.13-.34.2-.61.27-.27.07-.54.07-.81.07-.34,0-.61,0-.81-.07-.27-.07-.47-.13-.61-.27s-.27-.27-.4-.4c-.07-.13-.13-.34-.13-.54s.07-.4.13-.54Z"/>
    <polygon class="cls-4" points="106.95 26.71 106.95 29.06 106.01 29.06 106.01 26.71 104.67 26.71 104.67 32.76 106.01 32.76 106.01 30.27 106.95 30.27 106.95 32.76 108.3 32.76 108.3 26.71 106.95 26.71"/>
    <polygon class="cls-4" points="104.06 27.51 102.04 27.51 102.04 26.57 100.56 26.57 100.56 27.51 98.54 27.51 98.54 28.59 104.06 28.59 104.06 27.51"/>
    <path class="cls-4" d="M107.16,34.11c-.27-.2-.61-.4-1.08-.54-.4-.13-.87-.2-1.41-.2s-1.01.07-1.41.2-.74.34-1.08.54c-.27.2-.47.47-.67.81-.13.34-.2.67-.2,1.01,0,.4.07.74.2,1.01.13.34.34.61.67.81.27.2.61.4,1.08.54.4.13.87.2,1.41.2s1.01-.07,1.41-.2.74-.27,1.08-.54c.27-.2.47-.47.67-.81.13-.34.2-.67.2-1.01s-.07-.67-.2-1.01-.34-.61-.67-.81ZM106.55,36.46c-.07.13-.2.27-.4.4-.13.13-.34.2-.61.27-.27.07-.54.07-.81.07-.34,0-.61,0-.81-.07-.27-.07-.47-.13-.61-.27s-.27-.27-.4-.4c-.07-.13-.13-.34-.13-.54s.07-.34.13-.54c.07-.13.2-.27.4-.4.13-.13.34-.2.61-.27.27-.07.54-.07.81-.07.34,0,.61,0,.81.07.27.07.47.13.61.27s.27.27.4.4c.07.13.13.34.13.54-.07.2-.07.34-.13.54Z"/>
    <path class="cls-4" d="M103.05,32.42c.2-.2.34-.4.47-.67s.13-.54.13-.81-.07-.54-.13-.81c-.13-.27-.27-.47-.47-.67s-.47-.34-.74-.4c-.27-.13-.61-.13-1.01-.13s-.74.07-1.01.13c-.27.13-.54.27-.74.4-.2.2-.34.4-.47.67s-.13.54-.13.81.07.54.13.81c.13.27.27.47.47.67s.47.34.74.4c.27.07.61.13,1.01.13s.74-.07,1.01-.13c.27-.13.54-.27.74-.4ZM101.77,31.75c-.13.07-.27.07-.47.07s-.34,0-.47-.07-.27-.13-.34-.2-.13-.2-.2-.27c-.07-.13-.07-.2-.07-.34s0-.27.07-.34c.07-.13.13-.2.2-.27.07-.07.2-.13.34-.2s.27-.07.47-.07.34,0,.47.07.27.13.34.2.2.2.2.27c.07.13.07.2.07.34s0,.27-.07.34c-.07.13-.13.2-.2.27-.07.13-.2.2-.34.2Z"/>
  </g>
  <g>
    <g>
      <path class="cls-3" d="M125.12,23.68c-7.47,0-12.38,3.9-12.38,8.75s4.91,8.75,12.38,8.75,12.38-3.9,12.38-8.75-4.91-8.75-12.38-8.75Z"/>
      <path class="cls-1" d="M127.34,35.72c2.15-.34,9.28-1.82,8.41-5.92-.34-1.48-1.82-3.09-4.1-4.24-1.82-.81-4.04-1.28-6.53-1.28-6.93,0-11.77,3.63-11.77,8.21,0,3.16,2.35,5.85,6.12,7.27.74-2.15,3.9-3.36,7.87-4.04Z"/>
      <path class="cls-2" d="M125.12,37.13c-3.09.4-4.51,1.41-5.45,2.62,1.61.54,3.43.87,5.38.87,6.93,0,11.77-3.63,11.77-8.21,0-.4-.07-.81-.13-1.21-.2,5.32-8.14,5.52-11.57,5.92Z"/>
    </g>
    <g>
      <path class="cls-3" d="M118.39,28.12h-2.35v.07c.13.27.07.74.07,1.14v5.38h.07s1.08.07,2.09.07c2.09,0,3.5-1.41,3.5-3.5,0-1.95-1.35-3.16-3.36-3.16ZM117.18,28.72c.13,0,.54-.07.81-.07,1.75,0,2.62.87,2.62,2.69s-.74,2.83-2.22,2.83c-1.08,0-1.21-.07-1.21-.74v-4.71h0Z"/>
      <path class="cls-3" d="M128.01,34.64c-.07-.4-.07-.67-.07-.87v-2.29h-1.08l.07.07s.13.2.13.67c0,0,0,1.61-.07,1.95-.27.07-.61.07-.87.07-1.75,0-2.62-1.01-2.62-2.96,0-1.55,1.01-2.62,2.42-2.76.74-.07,1.48.13,1.95.54l.07.07v-.94h-.07c-.47-.07-1.01-.2-1.48-.2-2.56,0-4.04,1.35-4.04,3.57,0,2.35,1.82,3.23,3.57,3.23.67.07,1.41,0,2.09-.13h0Z"/>
      <path class="cls-3" d="M131.92,31.08c.61-.13,1.21-.74,1.21-1.55,0-.87-.81-1.41-2.15-1.41h-2.02v.07s.07.27.07.87v5.65h1.82c1.68,0,2.62-.74,2.62-2.02.07-.74-.61-1.41-1.55-1.61ZM130.1,31.41h.54c1.21,0,1.82.47,1.82,1.41s-.54,1.41-1.61,1.41c-.54,0-.74-.2-.74-.67v-2.15ZM130.1,28.66h.67c1.01,0,1.48.34,1.48,1.01,0,.81-.54,1.21-1.68,1.21h-.47v-2.22Z"/>
    </g>
  </g>
</svg>