<?xml version="1.0" encoding="UTF-8"?>
<svg id="Layer_1" data-name="Layer 1" xmlns="http://www.w3.org/2000/svg" viewBox="0 0 172 62">
  <defs>
    <style>
      .cls-1 {
        fill: #00a088;
      }

      .cls-2 {
        fill: #003791;
      }

      .cls-3 {
        fill: #0091d9;
      }
    </style>
  </defs>
  <path class="cls-2" d="M55.97,26.86h-.74l-1.88,5.38h.74c1.41,0,1.75-.34,2.56-2.69s.74-2.69-.67-2.69ZM64.85,29.55c-.81,2.29-.94,2.96.2,2.96s1.48-.61,2.29-2.96c.81-2.29.94-2.96-.2-2.96-1.08,0-1.48.61-2.29,2.96ZM76.29,19.53l-22.88-7.4-7.4,22.88,22.88,7.4,1.14-3.57-.47-6.46c-1.14,1.08-2.69,1.61-5.05,1.61-3.84,0-4.64-1.28-3.5-4.44,1.14-3.23,2.89-4.44,6.66-4.44.47,0,.94,0,1.35.07l-.27-3.3,6.93-.47.61-1.88ZM60.48,29.55c-.81,2.22-1.75,4.31-6.06,4.31h-5.38l3.03-8.54h5.38c4.31-.07,3.84,1.95,3.03,4.24Z"/>
  <path class="cls-1" d="M94.12,17.51l-1.48,13.32,4.24-5.58h4.71l.47,8.54h-3.97l.13-1.48h-2.96l-.94,1.48h-2.02l-.81,7.6,23.88,2.62,2.62-23.88-23.88-2.62ZM112.55,33.79h-4.1l-.61-5.32h-.07l-1.88,5.32h-3.5l3.03-8.54h4.17l.54,5.32h.07l1.88-5.32h3.5l-3.03,8.54ZM98.63,27h0l-2.35,3.63h2.09l.27-3.63Z"/>
  <path class="cls-3" d="M77.91,26.59c-1.14,0-1.48.61-2.29,2.96-.81,2.29-.94,2.96.2,2.96s1.48-.61,2.29-2.96c.87-2.35.94-2.96-.2-2.96ZM94.32,41.73l-2.89-.34.81-7.6h-1.95l2.22-2.96.54-4.98-.4-5.85-23.95,1.75.27,3.3c2.62.27,3.16,1.61,2.22,4.37-.4,1.21-.94,2.15-1.68,2.89l1.08,13.46,23.95-1.75-.2-2.29ZM75.35,33.99c-3.84,0-4.64-1.28-3.5-4.44,1.14-3.23,2.89-4.44,6.66-4.44s4.64,1.28,3.5,4.44-2.89,4.44-6.66,4.44ZM81.54,31.57l.13-.27h3.63l-.07.2c-.27.74.13,1.01.87,1.01s1.35-.34,1.48-.81c.61-1.68-5.52-.87-4.44-3.9.61-1.75,2.49-2.69,5.65-2.69s4.31.81,3.7,2.62h-3.5l.07-.2c.2-.47,0-.94-.74-.94-.81,0-1.28.4-1.41.74-.61,1.68,5.79.87,4.64,3.97-.67,1.82-2.69,2.62-5.99,2.62-3.16.07-4.64-.61-4.04-2.35Z"/>
</svg>