<?xml version="1.0" encoding="UTF-8"?>
<svg id="Layer_1" data-name="Layer 1" xmlns="http://www.w3.org/2000/svg" viewBox="0 0 172 62">
  <defs>
    <style>
      .cls-1 {
        fill: #f89b6c;
      }

      .cls-2 {
        fill: #fbb584;
      }

      .cls-3 {
        fill: #f37321;
      }
    </style>
  </defs>
  <path class="cls-2" d="M45.99,31.01c-.47-4.06,3.83-7.34,9.53-7.26,5.7.08,10.7,3.36,11.17,7.42s-3.83,7.34-9.53,7.26c-5.7,0-10.7-3.36-11.17-7.42M67.69,32.26c-.55-5.08-6.25-9.14-12.81-9.21-6.56-.08-11.48,3.98-10.93,9.06s6.25,9.14,12.81,9.21c6.56.08,11.48-3.98,10.93-9.06"/>
  <path class="cls-1" d="M57.78,41.4c-3.2,3.36-8.43,3.67-11.56.62-3.2-3.05-3.12-8.2.16-11.64,3.2-3.36,8.43-3.67,11.56-.62s3.12,8.28-.16,11.64M45.83,30.31c-3.75,3.9-3.83,10-.16,13.51,3.67,3.51,9.68,3.2,13.51-.7,3.75-3.9,3.83-10,.16-13.51-3.75-3.51-9.76-3.2-13.51.7"/>
  <path class="cls-3" d="M46.14,17.66c6.72-2.5,13.35,0,14.84,5.7s-2.81,12.34-9.53,14.84c-6.72,2.5-13.35,0-14.84-5.7-1.41-5.7,2.81-12.34,9.53-14.84M39.89,19.85c-6.95,5.54-8.75,13.51-3.98,17.88,4.76,4.37,14.29,3.44,21.32-2.11,6.95-5.54,8.75-13.51,3.98-17.88-4.76-4.37-14.29-3.44-21.32,2.11"/>
  <g>
    <polygon points="127.04 23.75 127.04 25.63 124.7 25.63 124.7 26.88 127.04 26.88 127.04 27.81 124.7 27.81 124.7 28.98 127.04 28.98 127.04 30.94 128.84 30.94 128.84 23.75 127.04 23.75"/>
    <path d="M124.15,25.16c0-.23,0-.86-.94-.86h-6.09v4.22c0,.23.16,2.03,2.34,2.03h4.76c-.08-.16-.08-5.39-.08-5.39ZM122.43,29.22h-2.89c-.62,0-.78-.55-.78-.78v-2.89h3.59v3.67h.08Z"/>
    <polygon points="113.3 26.41 112.36 26.41 112.36 23.91 110.64 23.91 110.64 30.7 112.36 30.7 112.36 27.73 113.3 27.73 113.3 31.01 115.02 31.01 115.02 23.75 113.3 23.75 113.3 26.41"/>
    <path d="M124.62,31.25c-2.26,0-4.06,1.41-4.06,3.2s1.8,3.2,4.06,3.2,4.06-1.41,4.06-3.2-1.8-3.2-4.06-3.2ZM124.62,36.4c-1.25,0-2.26-.86-2.26-1.95,0-1.17,1.02-1.95,2.26-1.95s2.26.78,2.26,1.95c.08,1.17-1.02,1.95-2.26,1.95Z"/>
    <path d="M110.56,31.25c-2.26,0-4.06,1.41-4.06,3.2s1.8,3.2,4.06,3.2,4.06-1.41,4.06-3.2-1.8-3.2-4.06-3.2ZM110.56,36.4c-1.25,0-2.26-.86-2.26-1.95,0-1.17,1.02-1.95,2.26-1.95s2.26.78,2.26,1.95-1.02,1.95-2.26,1.95Z"/>
    <path d="M84.01,24.38h-1.8v8.82h1.8v-4.45h1.87v-1.41h-1.87v-2.97Z"/>
    <path d="M76.36,35.47c-.23-.31-.31-.7-.31-1.17v-1.33h-1.8v2.03c0,.55.16,2.19,2.42,2.19h7.34v-1.41h-6.79c-.39,0-.7-.08-.86-.31Z"/>
    <rect x="74.33" y="23.75" width="4.14" height="1.17"/>
    <path d="M79.88,29.61c0-1.48-1.33-2.65-3.44-2.65s-3.44,1.17-3.44,2.65c0,1.25,1.41,2.65,3.44,2.65,2.03-.08,3.44-1.48,3.44-2.65ZM74.72,29.53c0-.86.78-1.48,1.72-1.48s1.72.62,1.72,1.48-.78,1.56-1.72,1.56c-1.02,0-1.72-.7-1.72-1.56Z"/>
    <path d="M80.42,25.39h-8.04v1.17h8.04v-1.17Z"/>
    <rect x="89.56" y="23.75" width="4.14" height="1.17"/>
    <path d="M99.24,24.38h-1.8v7.73c0,.86-.39,1.41-.78,1.64h0c-.62.47-2.03.47-2.03.47h-2.03v-2.03c1.48-.39,2.42-1.48,2.42-2.5,0-1.48-1.33-2.65-3.44-2.65s-3.44,1.17-3.44,2.65c0,1.09,1.02,2.26,2.66,2.58v1.95h-3.28v1.41h7.18c.08,0,2.03,0,2.66-.7l.08-.08v2.5h1.8v-7.11h1.87v-1.41h-1.87v-4.45ZM91.59,31.09c-.94,0-1.72-.7-1.72-1.56s.78-1.48,1.72-1.48,1.72.62,1.72,1.48c.08.86-.7,1.56-1.72,1.56Z"/>
    <path d="M95.65,25.39h-8.04v1.17h8.04v-1.17Z"/>
    <path d="M109.86,30.55v-1.25c-2.97-.94-2.73-5-2.73-5h-1.8s.23,4.06-2.73,5v1.25s2.03.08,3.59-2.42v-.08.08c1.56,2.5,3.67,2.42,3.67,2.42Z"/>
  </g>
</svg>