<?xml version="1.0" encoding="UTF-8"?>
<svg id="Layer_1" data-name="Layer 1" xmlns="http://www.w3.org/2000/svg" xmlns:xlink="http://www.w3.org/1999/xlink" viewBox="0 0 172 62">
  <defs>
    <style>
      .cls-1 {
        fill: url(#_무제_그라디언트);
      }

      .cls-2 {
        fill: url(#_무제_그라디언트_2);
      }

      .cls-3 {
        fill: url(#_무제_그라디언트_4);
      }

      .cls-4 {
        fill: #01346d;
      }

      .cls-5 {
        fill: url(#_무제_그라디언트_3);
      }
    </style>
    <radialGradient id="_무제_그라디언트" data-name="무제 그라디언트" cx="3074.58" cy="8090.18" fx="3074.58" fy="8090.18" r="18.15" gradientTransform="translate(-3667.53 1305.22) rotate(-90) scale(.42 .46)" gradientUnits="userSpaceOnUse">
      <stop offset="0" stop-color="#c2daed"/>
      <stop offset=".07" stop-color="#bad6eb"/>
      <stop offset=".17" stop-color="#a4cae6"/>
      <stop offset=".25" stop-color="#8dbde0"/>
      <stop offset=".37" stop-color="#7bacd4"/>
      <stop offset=".6" stop-color="#4b80b5"/>
      <stop offset=".7" stop-color="#346ba6"/>
      <stop offset=".83" stop-color="#235994"/>
      <stop offset="1" stop-color="#063a77"/>
    </radialGradient>
    <radialGradient id="_무제_그라디언트_2" data-name="무제 그라디언트 2" cx="4096.99" cy="-2172.65" fx="4096.99" fy="-2172.65" r="11.92" gradientTransform="translate(-1780.28 -956.37) scale(.45 -.45)" gradientUnits="userSpaceOnUse">
      <stop offset="0" stop-color="#c2daed"/>
      <stop offset=".07" stop-color="#bad6eb"/>
      <stop offset=".17" stop-color="#a4cae6"/>
      <stop offset=".25" stop-color="#8dbde0"/>
      <stop offset=".37" stop-color="#7bacd4"/>
      <stop offset=".6" stop-color="#4b80b5"/>
      <stop offset=".7" stop-color="#346ba6"/>
      <stop offset=".83" stop-color="#235994"/>
      <stop offset="1" stop-color="#063a77"/>
    </radialGradient>
    <radialGradient id="_무제_그라디언트_3" data-name="무제 그라디언트 3" cx="3339.01" cy="12720.64" fx="3339.01" fy="12720.64" r="18.15" gradientTransform="translate(5916.83 -1368.6) rotate(90) scale(.42 .46)" gradientUnits="userSpaceOnUse">
      <stop offset="0" stop-color="#c2daed"/>
      <stop offset=".07" stop-color="#bad6eb"/>
      <stop offset=".17" stop-color="#a4cae6"/>
      <stop offset=".25" stop-color="#8dbde0"/>
      <stop offset=".37" stop-color="#7bacd4"/>
      <stop offset=".6" stop-color="#4b80b5"/>
      <stop offset=".7" stop-color="#346ba6"/>
      <stop offset=".83" stop-color="#235994"/>
      <stop offset="1" stop-color="#063a77"/>
    </radialGradient>
    <radialGradient id="_무제_그라디언트_4" data-name="무제 그라디언트 4" cx="8838.78" cy="-1927.18" fx="8838.78" fy="-1927.18" r="11.92" gradientTransform="translate(4029.58 892.99) rotate(-180) scale(.45 -.45)" gradientUnits="userSpaceOnUse">
      <stop offset="0" stop-color="#c2daed"/>
      <stop offset=".07" stop-color="#bad6eb"/>
      <stop offset=".17" stop-color="#a4cae6"/>
      <stop offset=".25" stop-color="#8dbde0"/>
      <stop offset=".37" stop-color="#7bacd4"/>
      <stop offset=".6" stop-color="#4b80b5"/>
      <stop offset=".7" stop-color="#346ba6"/>
      <stop offset=".83" stop-color="#235994"/>
      <stop offset="1" stop-color="#063a77"/>
    </radialGradient>
  </defs>
  <g>
    <polygon class="cls-4" points="98.82 20.87 98.01 20.87 98.01 19.39 97.27 19.39 97.27 23.56 98.01 23.56 98.01 21.54 98.82 21.54 98.82 23.76 99.56 23.76 99.56 19.39 98.82 19.39 98.82 20.87"/>
    <path class="cls-4" d="M96.74,24.1c-1.55,0-2.76.74-2.76,1.61,0,.94,1.21,1.68,2.76,1.68s2.76-.74,2.76-1.68c0-.81-1.21-1.61-2.76-1.61ZM96.74,26.79c-1.08,0-2.02-.47-2.02-1.01s.87-1.01,2.02-1.01c1.08,0,2.02.47,2.02,1.01s-.94,1.01-2.02,1.01Z"/>
    <path class="cls-4" d="M96.47,21.88c0-.47-.2-.87-.54-1.21l-.07-.07h.74v-.61h-1.48v-.74h-.81v.74h-1.55v.61h.74l-.07.07c-.34.34-.54.74-.54,1.21,0,.87.81,1.61,1.75,1.61,1.08.07,1.82-.74,1.82-1.61ZM93.71,21.88c0-.61.47-1.08,1.01-1.08s1.01.47,1.01,1.08-.47,1.08-1.01,1.08c-.54-.07-1.01-.54-1.01-1.08Z"/>
    <path class="cls-4" d="M81.87,24.91h-3.7v-.87h-.81v2.76c0,.2.2.4.4.4h4.84v-3.09h-.81v.81h.07ZM81.87,26.59h-3.7v-.94h3.7v.94Z"/>
    <path class="cls-4" d="M81.87,20.94h-1.61c-.2-.87-1.01-1.55-2.02-1.55-1.14,0-2.09.87-2.09,1.88,0,1.08.94,1.88,2.09,1.88,1.01,0,1.88-.67,2.02-1.61h1.61v1.95h.81v-4.17h-.81v1.61ZM78.17,22.55c-.67,0-1.28-.61-1.28-1.28s.54-1.28,1.28-1.28c.67,0,1.28.61,1.28,1.28s-.54,1.28-1.28,1.28Z"/>
    <polygon class="cls-4" points="74 19.39 73.19 19.39 73.19 25.11 74 25.11 74 21.94 75.21 21.94 75.21 21.41 74 21.41 74 19.39"/>
    <path class="cls-4" d="M69.62,21.74h0c.47.74,1.14,1.41,2.02,1.88l.4-.47c-.47-.27-1.08-.74-1.48-1.48-.47-.87-.4-1.88-.4-1.88v-.2h-.81v.2s0,1.01-.4,1.88c-.4.74-1.08,1.21-1.48,1.48l.4.47c.67-.54,1.41-1.21,1.75-1.88Z"/>
    <path class="cls-4" d="M69.55,24.57h-.81v2.29c0,.2.2.4.4.4h4.91v-.67h-4.51v-2.02h0Z"/>
    <path class="cls-4" d="M86.24,24.77h-.81v2.09c0,.2.2.4.4.4h5.11v-.67h-4.71v-1.82h0Z"/>
    <rect class="cls-4" x="84.56" y="23.43" width="7.13" height=".67"/>
    <path class="cls-4" d="M88.12,22.75c1.55,0,2.83-.81,2.83-1.75s-1.28-1.75-2.83-1.75-2.83.81-2.83,1.75c0,.87,1.28,1.75,2.83,1.75ZM88.12,19.86c1.14,0,2.02.54,2.02,1.14s-.94,1.14-2.02,1.14c-1.14,0-2.02-.54-2.02-1.14,0-.74.87-1.14,2.02-1.14Z"/>
    <path class="cls-4" d="M112.82,22.42h2.09v.94h.81v-4.04h-.81v.94h-1.88c-.4-.54-1.01-.87-1.75-.87-1.14,0-2.09.87-2.09,1.88,0,1.08.94,1.88,2.09,1.88.54.07,1.14-.27,1.55-.74ZM113.22,21.74c.07-.2.07-.34.07-.54v-.4h1.68v1.01h-.07l-1.68-.07h0ZM109.99,21.2c0-.67.54-1.28,1.28-1.28.67,0,1.21.61,1.21,1.28,0,.74-.54,1.28-1.21,1.28-.74.07-1.28-.54-1.28-1.28Z"/>
    <path class="cls-4" d="M111.13,26.59v-.67h4.58v-1.55c0-.2-.2-.4-.4-.4h-4.91v.61h4.58v.67h-4.58v1.55c0,.2.2.4.4.4h5.11v-.61h-4.78Z"/>
    <rect class="cls-4" x="106.9" y="19.39" width=".74" height="7.8"/>
    <path class="cls-4" d="M105.42,20.87h0l-.94.07h-.07v-.61c0-.34-.13-.47-.54-.47h-2.62v.67h2.35v.4c0,1.68-.87,2.89-2.56,3.77l.34.47c.87-.34,1.55-.87,2.09-1.48h1.95v3.7h.74v-7.8h-.74v1.28h0ZM105.42,21.54v1.35h-1.55v-.07c.2-.4.34-.81.4-1.28h1.14Z"/>
  </g>
  <g>
    <g>
      <path class="cls-4" d="M114.09,36.68h3.16v2.22h1.41v-7.67h-1.41v1.68h-3.16v-1.28h-6.39v5.79c0,.34.34.67.74.67h5.65v-1.41ZM114.09,33.99h3.16v1.61h-3.16v-1.61ZM112.68,37.02h-3.63v-4.24h3.63v4.24Z"/>
      <path class="cls-4" d="M113.83,39.44c-2.69,0-4.84,1.28-4.84,2.89s2.15,2.89,4.84,2.89,4.84-1.28,4.84-2.89c-.07-1.61-2.22-2.89-4.84-2.89ZM113.83,44.08c-1.88,0-3.43-.81-3.43-1.75s1.55-1.75,3.43-1.75,3.5.81,3.5,1.75c-.07.94-1.61,1.75-3.5,1.75Z"/>
      <polygon class="cls-4" points="103.06 33.85 101.65 33.85 101.65 31.16 100.37 31.16 100.37 38.56 101.65 38.56 101.65 35 103.06 35 103.06 38.9 104.34 38.9 104.34 31.16 103.06 31.16 103.06 33.85"/>
      <path class="cls-4" d="M99.43,39.44c-2.69,0-4.84,1.28-4.84,2.89s2.15,2.89,4.84,2.89,4.84-1.28,4.84-2.89-2.15-2.89-4.84-2.89ZM99.43,44.08c-1.88,0-3.43-.81-3.43-1.75,0-1.01,1.55-1.75,3.43-1.75s3.43.81,3.43,1.75c.07.94-1.48,1.75-3.43,1.75Z"/>
      <path class="cls-4" d="M95.73,35l.07.13c.61,1.28,1.68,2.35,2.89,3.03l.61-.87c-.4-.27-2.89-1.95-2.89-5.58v-.34h-1.41v.34c0,3.57-2.49,5.32-2.89,5.58l.61.87c1.28-.67,2.29-1.75,2.89-3.03l.13-.13Z"/>
    </g>
    <g>
      <g>
        <path class="cls-4" d="M66.06,31.7h4.51c4.1,0,6.93,2.83,6.93,6.53v.07c0,3.7-2.83,6.53-6.93,6.53h-4.51v-13.12ZM70.63,43.41c3.3,0,5.45-2.22,5.45-5.11h0c0-2.89-2.09-5.18-5.45-5.18h-3.09v10.36l3.09-.07h0Z"/>
        <path class="cls-4" d="M87.25,38.03c1.01-.47,2.09-1.35,2.09-3.03v-.07c0-.87-.27-1.55-.87-2.09-.74-.74-1.95-1.14-3.43-1.14h-5.58v13.05h5.79c2.83,0,4.78-1.35,4.78-3.57h0c.07-1.82-1.21-2.76-2.76-3.16ZM80.99,32.98h3.97c1.88,0,2.89.87,2.89,2.15v.07c0,1.55-1.21,2.35-3.03,2.35h-2.96l-.81,1.28h3.97c2.29,0,3.5.81,3.5,2.22v.07c0,1.48-1.21,2.35-3.23,2.35h-4.37l.07-10.5h0Z"/>
      </g>
      <path class="cls-4" d="M61.95,31.7h2.15l-7.13,6.46,7.94,6.59h-2.29l-7.33-6.26h0v6.26h-1.41v-13.05h1.41v6.12h.07l6.59-6.12Z"/>
    </g>
  </g>
  <g>
    <g>
      <path class="cls-1" d="M55.9,20.6c-.2.47,0,1.35.27,1.82l3.9,6.19h-2.89c-.47,0-.87-.27-1.08-.54l-2.15-3.36c-.2-.34-.2-.81,0-1.14l1.95-2.96Z"/>
      <path class="cls-2" d="M57.58,23.63c-.13.13-.2.54-.07.87l-1.35-2.09c-.27-.47-.54-1.35-.27-1.82l.27-.4c.2-.34.61-.54,1.14-.54h2.83l-2.56,3.97Z"/>
    </g>
    <g>
      <path class="cls-5" d="M63.36,26.25c.2-.47,0-1.35-.27-1.82l-3.9-6.19h2.89c.47,0,.87.27,1.08.54l2.15,3.36c.2.34.2.81,0,1.14l-1.95,2.96Z"/>
      <path class="cls-3" d="M61.75,23.22c.13-.13.2-.54.07-.87l1.35,2.09c.27.47.54,1.35.27,1.82l-.27.4c-.2.34-.61.54-1.14.54h-2.83l2.56-3.97Z"/>
    </g>
  </g>
</svg>