<?xml version="1.0" encoding="UTF-8"?>
<svg id="Layer_1" data-name="Layer 1" xmlns="http://www.w3.org/2000/svg" xmlns:xlink="http://www.w3.org/1999/xlink" viewBox="0 0 172 62">
  <defs>
    <style>
      .cls-1 {
        fill: url(#_무제_그라디언트_17);
      }

      .cls-2 {
        fill: #005bac;
      }

      .cls-3 {
        fill: url(#_무제_그라디언트_18);
      }

      .cls-4 {
        fill: #515457;
      }
    </style>
    <radialGradient id="_무제_그라디언트_17" data-name="무제 그라디언트 17" cx="68.54" cy="841.11" fx="68.54" fy="841.11" r="11.21" gradientTransform="translate(0 868.73) scale(1 -1)" gradientUnits="userSpaceOnUse">
      <stop offset="0" stop-color="#00aedb"/>
      <stop offset=".2" stop-color="#00aedc"/>
      <stop offset="1" stop-color="#0066b2"/>
    </radialGradient>
    <radialGradient id="_무제_그라디언트_18" data-name="무제 그라디언트 18" cx="784.76" cy="-428.26" fx="784.76" fy="-428.26" r="2.05" gradientTransform="translate(-4229.5 -2317.94) scale(5.48 -5.48)" gradientUnits="userSpaceOnUse">
      <stop offset="0" stop-color="#00aedb"/>
      <stop offset=".2" stop-color="#00aedc"/>
      <stop offset="1" stop-color="#0066b2"/>
    </radialGradient>
  </defs>
  <g>
    <path class="cls-2" d="M108.92,24.22c-.81,0-1.08.27-1.28,1.01l-1.88,11.51h4.17l2.02-12.51h-3.03Z"/>
    <path class="cls-2" d="M61.15,23.89h-3.63c-.54,0-.87.2-1.21.54l-4.1,4.04,1.01-4.58h-3.3c-.81,0-1.08.27-1.28,1.01h0l-2.22,11.84h4.1l1.14-5.58,3.84,5.58h5.11l-5.11-7.27,5.65-5.58h0Z"/>
    <path class="cls-2" d="M117.13,33.78l1.68-9.55h-3.09c-.74,0-1.08.27-1.28.94l-1.88,11.57h9.89l.4-2.96h-5.72Z"/>
    <path class="cls-1" d="M94.93,36.74l4.17-8.48v-.27l1.61,8.75h4.31l-2.62-12.51h-3.9c-.61,0-.87.2-1.14.61l-5.11,10.16-3.7-3.3c1.68-.47,3.5-1.75,4.04-3.9.94-3.77-2.29-3.97-3.36-3.97h-5.92c-.74,0-.87.13-1.08.87l-1.14,5.32c-2.89-1.88-9.42-5.72-14.06-5.79-1.14,0-2.02.13-2.83.67q-.13.07-.2.07l.07-.13c.47-.61,1.48-1.61,3.23-2.09,0,0,2.76-.94,6.39,1.28,2.15,1.28,3.57,2.35,4.91,3.5-1.08-4.37-5.11-7.47-9.82-7.06-4.24.34-7.54,3.5-8.34,7.4,2.22-2.02,6.59-2.76,13.19-.47,1.48.54,2.83,1.08,4.1,1.61,1.14.54,2.29,1.14,3.5,1.82,2.49,1.41,5.25,3.43,7.54,5.85h6.19v.07M85.31,30.28c.13-.61.81-3.97.94-4.44h1.55s1.55-.07,1.01,1.95c-.07.07-.67,2.49-3.5,2.49h0Z"/>
    <path class="cls-3" d="M84.63,33.44c-.34,1.41-.67,3.23-.67,3.23h-4.31l1.01-4.64c-.94-.34-1.61-.54-1.95-.61-.81,3.97-4.04,7.06-8.28,7.47-2.76.2-5.32-.74-7.13-2.49h0s-1.82-1.61-1.68-3.97c.13-2.42,2.29-3.43,2.29-3.43,2.49-1.35,7.94-1.48,15.74,1.82-.07.13,2.56,1.14,4.98,2.62h0Z"/>
  </g>
  <g>
    <path class="cls-4" d="M84.43,40.84h-.54c.07.13.13.27.2.47.07.13.07.34.07.54,0,.34-.07.61-.13.87-.13.27-.27.47-.47.67s-.4.34-.67.4c-.27.13-.54.13-.87.13s-.61-.07-.87-.13c-.27-.07-.47-.27-.67-.4-.2-.2-.34-.4-.47-.67s-.13-.54-.13-.87c0-.2,0-.34.07-.54.07-.13.13-.34.2-.47h-.47v-1.08h1.82v-.74h1.14v.74h1.82v1.08h0ZM86.59,47.1h-5.38c-.27,0-.47-.07-.67-.27s-.27-.4-.27-.61v-2.09h1.21v1.88s.07.07.13.07h3.84v-6.53h1.14v1.48h1.21v1.08h-1.21v4.98ZM82.08,40.77c-.27,0-.54.07-.67.27-.2.2-.27.47-.27.74,0,.34.07.54.27.74.2.2.4.27.67.27s.54-.07.67-.27c.2-.2.27-.4.27-.74s-.07-.54-.27-.74c-.2-.2-.4-.27-.67-.27Z"/>
    <path class="cls-4" d="M94.66,42.12v-1.35q0-.07-.07-.13s-.07-.07-.13-.07h-5.52v-1.08h5.92c.27,0,.47.07.67.27s.27.4.27.61v1.68h.4v1.08h-3.23v1.35h1.95c.27,0,.47.07.67.27s.27.4.27.61v1.75h-1.21v-1.41q0-.07-.07-.13s-.07-.07-.13-.07h-5.52v-1.08h2.83v-1.35h-3.16v-1.08h6.06v.13Z"/>
    <path class="cls-4" d="M100.24,40.77c.07.34.2.61.47.74.27.2.61.34,1.08.34v1.08c-.54,0-.94-.07-1.35-.27-.34-.2-.67-.4-.87-.67-.2.27-.54.47-.87.67s-.81.27-1.35.27v-1.08c.47-.07.81-.2,1.08-.34.27-.2.4-.47.47-.74h-1.55v-1.08h1.55v-.74h1.21v.74h1.55v1.08h-1.41ZM98.63,47.1c-.27,0-.54-.07-.67-.27s-.27-.4-.27-.67v-1.48h5.58v-.4h-5.58v-1.01h6.12c.2,0,.34.07.47.2.13.13.13.27.13.47v1.75h-5.58v.47h5.65v1.08h-5.85v-.13ZM104.48,42.99h-1.21v-1.21h-1.14v-1.08h1.14v-1.21h1.21v3.5Z"/>
    <path class="cls-4" d="M106.63,42.86v-2.49c0-.27.07-.47.27-.61.2-.2.4-.27.67-.27h5.85v1.08h-5.52q-.07,0-.13.07v2.15s.07.07.13.07h5.45v1.08h-2.76v1.82h3.16v1.08h-7.54v-1.08h3.16v-1.82h-1.88c-.27,0-.47-.07-.67-.27-.13-.34-.2-.54-.2-.81Z"/>
    <path class="cls-4" d="M122.58,43.6h-1.55c.13.2.27.4.4.61.07.2.13.47.13.74,0,.34-.07.67-.2.94s-.27.54-.54.74c-.2.2-.54.34-.87.47s-.74.2-1.14.2-.81-.07-1.14-.2c-.34-.13-.61-.27-.87-.47-.2-.2-.4-.47-.54-.74s-.2-.61-.2-.94c0-.27.07-.54.13-.74.07-.2.2-.4.4-.61h-1.61v-1.08h2.49v-1.35h1.14v1.35h2.29v-1.82q0-.07-.07-.13s-.07-.07-.13-.07h-5.38v-1.08h5.92c.27,0,.47.07.67.27s.27.4.27.61v2.15h.4v1.14ZM118.75,43.67c-.47,0-.81.13-1.08.4-.27.27-.4.54-.4.94s.13.67.4.94c.27.27.61.4,1.08.4s.81-.13,1.08-.4c.27-.27.4-.54.4-.94s-.13-.67-.4-.94c-.2-.27-.61-.4-1.08-.4Z"/>
    <path class="cls-4" d="M128.37,44.34v1.08c-.67-.13-1.21-.4-1.61-.74-.4-.27-.67-.67-.94-1.14-.2.47-.54.81-.87,1.14-.4.34-1.01.61-1.61.74v-1.08c.74-.2,1.28-.67,1.61-1.41.2-.47.27-1.14.27-1.88v-1.55h1.28v1.55c0,.81.07,1.41.27,1.88.34.74.87,1.21,1.61,1.41ZM131.73,41.65v1.08h-1.21v4.44h-1.14v-7.6h1.14v2.15h1.21v-.07Z"/>
  </g>
</svg>