<?xml version="1.0" encoding="UTF-8"?>
<svg id="Layer_1" data-name="Layer 1" xmlns="http://www.w3.org/2000/svg" viewBox="0 0 172 62">
  <defs>
    <style>
      .cls-1 {
        fill: #fff;
      }

      .cls-2 {
        fill: #e00109;
      }
    </style>
  </defs>
  <path class="cls-2" d="M75.31,33.44v-7.67h-2.83v8.28c0,.61.47,1.14,1.14,1.14h7.2v-1.14h-4.91c-.34,0-.61-.27-.61-.61"/>
  <path class="cls-2" d="M119.78,26.84h5.38v-1.14h-7.67c-.61,0-1.14.47-1.14,1.14v7.2c0,.61.47,1.14,1.14,1.14h7.67v-1.14h-5.38c-.34,0-.54-.27-.54-.54v-2.76h5.85v-1.08h-5.85v-2.22c-.07-.34.2-.61.54-.61"/>
  <path class="cls-2" d="M57.88,41.51c-3.03,3.03-8.01,3.03-11.1,0l-5.65-5.65c-3.03-3.03-3.03-8.01,0-11.1l5.65-5.65c3.03-3.03,8.01-3.03,11.1,0l5.65,5.65c3.03,3.03,3.03,8.01,0,11.1l-5.65,5.65Z"/>
  <path class="cls-1" d="M49,38.62c-.47,0-.81-.34-.81-.81,0-.2.07-.4.2-.61.13-.13.34-.27.61-.27.47,0,.87.34.87.81s-.34.87-.87.87c.07,0,0,0,0,0"/>
  <path class="cls-1" d="M52.03,23.28c-.47,0-.81.13-1.14.4-.61.61-.94,1.95-.94,3.7.07,2.15.54,6.39,2.22,8.54.27.34.54.61.87.81.27.2.61.4,1.14.4.13,0,.27,0,.47-.07.94-.2,2.15-1.28,3.09-2.76.13-.2.4-.34.61-.34.13,0,.27.07.4.13.2.13.27.27.34.47.07.2,0,.4-.07.54-1.14,1.82-2.62,3.09-4.04,3.43h-.07c-.27.07-.47.07-.74.07-.87,0-1.55-.34-1.95-.61-.47-.27-.87-.67-1.21-1.14-2.35-3.03-2.56-8.81-2.56-9.42,0-1.55.2-3.57,1.41-4.78.61-.61,1.28-.87,2.15-.87h.13c.87,0,1.61.27,2.15.87,1.21,1.21,1.41,3.23,1.41,4.78s-.34,4.64-1.95,7.4c-.13.2-.4.34-.67.34-.13,0-.27-.07-.4-.13-.34-.2-.47-.67-.27-1.01,1.14-1.95,1.68-4.04,1.75-6.66,0-1.75-.34-3.03-.94-3.7-.27-.27-.67-.4-1.14-.4,0,0-.07,0-.07,0Z"/>
  <path class="cls-2" d="M87.08,25.36c-3.7,0-5.92,2.29-5.92,5.11s2.22,5.11,5.92,5.11,5.92-2.29,5.92-5.11-2.22-5.11-5.92-5.11M87.08,34.45c-1.75,0-3.09-1.82-3.09-4.04s1.35-4.04,3.09-4.04,3.09,1.82,3.09,4.04-1.35,4.04-3.09,4.04"/>
  <polygon class="cls-2" points="93.47 26.84 97.37 26.84 97.37 35.12 100.34 35.12 100.34 26.84 103.63 26.84 103.63 25.77 93.47 25.77 93.47 26.84"/>
  <polygon class="cls-2" points="104.64 26.84 107.94 26.84 107.94 35.12 110.9 35.12 110.9 26.84 114.8 26.84 114.8 25.77 104.64 25.77 104.64 26.84"/>
</svg>