<?xml version="1.0" encoding="UTF-8"?>
<svg id="Layer_1" data-name="Layer 1" xmlns="http://www.w3.org/2000/svg" viewBox="0 0 172 62">
  <defs>
    <style>
      .cls-1 {
        fill: #df0011;
      }

      .cls-2 {
        fill: #fff;
      }
    </style>
  </defs>
  <rect class="cls-1" x="39.7" y="17.47" width="85.83" height="9.33"/>
  <path class="cls-2" d="M95.64,22.61c0,1.5-1.25,2.69-2.76,2.69s-2.76-1.19-2.76-2.69,1.25-2.69,2.76-2.69,2.76,1.19,2.76,2.69Z"/>
  <path d="M125.52,28.93v4.13l-6.58,5.83h6.58v3.63h-12.59v-4.13l6.64-5.95h-6.7v-3.51h12.65Z"/>
  <path d="M39.7,28.93h7.71l1.75,7.46h.06l1.75-7.46h7.71v13.59h-4.7l-.06-10.71h-.06l-2.69,10.71h-4.26l-2.57-10.71h-.06l-.06,10.71h-4.45v-13.59h-.06Z"/>
  <path d="M60.75,28.93h11.78v3.26h-6.7v1.94h6.39v3.26h-6.39v1.88h6.83v3.26h-11.97v-13.59h.06Z"/>
  <path d="M111.49,32.94h-4.64v9.59h-5.2v-9.59h-4.64v-4.01h14.47v4.01Z"/>
  <path d="M79.48,31.94h1.44c1.07,0,2.07.19,2.07,1.38,0,1.38-1.07,1.5-2.13,1.5h-1.38v-2.88ZM74.47,42.53h5.2v-4.64h1.19c.63,0,1.19.06,1.5.69.44.81.5,2.94.75,3.95h5.45c-.56-1.32-.5-3.45-1.32-4.89-.5-.75-1.19-1.25-2.32-1.44v-.06c1.94-.44,3.26-1.5,3.26-3.63,0-2.63-2-3.63-5.26-3.63h-8.46v13.66Z"/>
  <path d="M95.52,28.93v13.59h-5.26v-13.59h5.26Z"/>
</svg>