<?xml version="1.0" encoding="UTF-8"?>
<svg id="Layer_1" data-name="Layer 1" xmlns="http://www.w3.org/2000/svg" viewBox="0 0 172 62">
  <defs>
    <style>
      .cls-1 {
        fill: #231815;
      }

      .cls-2 {
        fill: #ffd900;
      }
    </style>
  </defs>
  <g>
    <path class="cls-2" d="M43.06,22.37l-4.17,16.28s3.83-5.38,8.54,0l-4.37-16.28Z"/>
    <path class="cls-2" d="M43.13,21.69c-5.18,0-9.35,4.17-9.35,9.35s4.17,9.35,9.35,9.35,9.35-4.17,9.35-9.35c0-5.18-4.17-9.35-9.35-9.35M50.12,35.89l-1.08-.2h0c-.34.4-.74.81-1.14,1.21l.07,1.14-1.35.81-.81-.67h0c-.47.2-1.01.34-1.55.4l-.47,1.01h-1.55l-.34-1.01h.07c-.54-.07-1.01-.2-1.48-.4l-.94.67-1.35-.74.2-1.08h0c-.4-.34-.74-.67-1.08-1.08l-1.14.07-.81-1.35.67-.81h0c-.2-.47-.34-1.01-.47-1.61l-1.01-.47v-1.55l1.01-.34v.07c.07-.54.2-1.08.4-1.61l-.61-.94.81-1.35,1.01.2h0c.27-.34.61-.67,1.01-1.01l-.07-1.14,1.35-.81.81.67h0c.47-.2,1.01-.34,1.55-.4l.47-1.01h1.55l.34,1.01h-.07c.54.07,1.08.2,1.55.4l.94-.61,1.35.81-.2,1.01h0c.4.34.74.67,1.08,1.08l1.14-.07.81,1.35-.67.81h0c.2.47.34.94.4,1.48l1.01.47v1.55l-1.01.34v-.07c-.07.54-.2,1.01-.34,1.48l.67.94-.74,1.35Z"/>
  </g>
  <path class="cls-1" d="M59.95,28.42v1.35h2.42v2.62h-1.01v-1.75h-4.71v-.94h2.22v-1.35h-3.09v-.94h5.25c.07-.27.13-.54.2-.87s.13-.67.13-1.01h-4.71v-.94h5.85c0,.13,0,.4-.07.67-.07.34-.07.61-.13.81-.07.34-.13.54-.13.74-.07.2-.07.4-.13.61h1.21v.94h-3.3v.07Z"/>
  <path class="cls-1" d="M67.89,28.76v-4.1h1.01v1.14h1.88v-1.14h1.01v4.1h-3.9ZM73.47,32.06c-.47.27-1.21.47-2.15.47s-1.68-.13-2.15-.47c-.47-.27-.74-.67-.74-1.14s.27-.81.74-1.14c.47-.27,1.21-.47,2.15-.47s1.68.13,2.15.47c.47.27.74.67.74,1.14s-.27.81-.74,1.14M70.78,26.74h-1.88v1.08h1.88v-1.08ZM72.59,30.37c-.34-.13-.74-.2-1.28-.2s-1.01.07-1.35.2-.47.27-.47.54.13.4.47.54c.34.13.74.2,1.35.2.54,0,.94-.07,1.28-.2.34-.13.47-.27.47-.54s-.13-.4-.47-.54M74.01,27.08v2.02h-1.01v-4.78h1.01v1.82h1.01v.94h-1.01Z"/>
  <path class="cls-1" d="M82.96,30.84c-.81.07-1.82.13-2.96.13h-.81v-.94h1.41v-2.42h1.01v2.42c.34,0,.87,0,1.55-.07.74-.07,1.14-.07,1.28-.13v.94c-.13,0-.67,0-1.48.07M83.83,26.27c0,.4-.07.74-.13,1.08-.07.47-.13.87-.13,1.14-.07.34-.07.47-.07.47h-1.01c0-.07.07-.4.13-1.14.07-.67.13-1.28.13-1.75h-3.23v-.94h4.31c.07.4,0,.74,0,1.14M85.71,28.62v3.77h-1.01v-8.07h1.01v3.36h1.08v.94h-1.08Z"/>
  <path class="cls-1" d="M90.96,25.53h4.78v.81h-4.78v-.81ZM94.93,28.89c-.4.27-.87.4-1.55.4-.61,0-1.14-.13-1.55-.4-.4-.27-.61-.61-.61-.94,0-.4.2-.67.61-.94s.94-.34,1.55-.34c.67,0,1.14.13,1.55.34.4.27.54.54.54.94,0,.4-.2.67-.54.94M96.34,32.39v-1.61h-4.51v-.94h5.52v2.56h-1.01ZM92.11,24.32h2.49v.81h-2.49v-.81ZM94.12,27.55c-.2-.07-.47-.13-.81-.13s-.61.07-.81.13c-.2.07-.27.2-.27.4s.07.34.27.4.47.13.81.13.61-.07.81-.13c.2-.13.27-.27.27-.4.07-.2-.07-.34-.27-.4M97.35,27.48v2.02h-1.01v-5.18h1.01v2.15h1.01v.94h-1.01v.07Z"/>
  <path class="cls-1" d="M108.32,25.39v-1.08h1.01v5.79h-1.01v-2.29h-1.82c-.2.27-.4.47-.74.61-.27.13-.61.2-.94.2-.61,0-1.08-.2-1.48-.61s-.61-.87-.61-1.48c0-.54.2-1.08.61-1.48s.87-.61,1.48-.61c.34,0,.67.07.94.2.27.13.54.34.67.54h1.88v.2ZM104.08,25.87c-.2.2-.27.47-.27.81s.07.54.27.81c.2.2.47.34.81.34s.61-.13.81-.34c.2-.2.27-.47.27-.81s-.07-.61-.27-.81c-.2-.2-.47-.34-.81-.34-.4,0-.67.07-.81.34M103.88,32.19v-2.56h1.01v1.68h4.64v.94h-5.65v-.07ZM108.32,27.01v-.74h-1.41v.81h1.41v-.07Z"/>
  <path class="cls-1" d="M118.14,29.03v3.36h-1.01v-3.36h-3.03v-.94h5.18c.07-.2.13-.61.2-1.08.07-.47.13-.94.13-1.35h-4.71v-.94h5.85c0,.13,0,.4-.07.81s-.07.81-.13,1.08-.07.61-.13.87-.13.47-.13.61h1.28v.94h-3.43Z"/>
  <path class="cls-1" d="M125.68,31.52v-.94h3.23v-1.55h1.08v1.55h3.23v.94h-7.54ZM129.04,27.68c-.2.2-.4.4-.67.61s-.54.4-.87.54c-.27.13-.54.27-.74.34l-.61-.74c.27-.13.54-.27.87-.47.34-.2.67-.4.94-.67s.54-.61.67-.94.2-.74.2-1.08v-.67h1.14v.67c0,.4.07.74.2,1.08.13.34.34.67.67.94s.67.54,1.01.67c.34.2.61.34.87.47l-.61.74c-.2-.07-.4-.2-.74-.34s-.61-.34-.87-.54-.47-.4-.67-.61-.34-.4-.4-.61c-.07.2-.2.34-.4.61"/>
  <path class="cls-1" d="M58.87,37.84h-.54l-.34-.94h-1.68l-.34.94h-.54l1.41-3.84h.67l1.35,3.84ZM57.79,36.36l-.61-1.68-.61,1.68h1.21Z"/>
  <path class="cls-1" d="M61.7,35.02v2.56c0,.4-.13.74-.4.94-.2.2-.47.27-.87.27-.34,0-.67-.07-.87-.27s-.34-.4-.34-.67h.54c0,.13.07.2.2.34.13.07.27.13.54.13.47,0,.67-.2.67-.67v-.34c-.2.27-.54.34-.81.34-.34,0-.67-.13-.87-.4s-.34-.61-.34-1.01.13-.74.34-.94c.2-.27.54-.4.87-.4s.61.13.81.34v-.27h.54v.07ZM60.42,37.1c.2,0,.4-.07.54-.2.13-.13.2-.34.2-.61s-.07-.47-.2-.61c-.13-.13-.34-.2-.54-.2s-.4.07-.54.2c-.13.13-.2.34-.2.61s.07.47.2.61.34.2.54.2"/>
  <path class="cls-1" d="M64.79,36.63h-2.02c0,.2.07.4.2.54.13.13.34.2.47.2s.34-.07.4-.13.13-.13.2-.27h.61c-.07.27-.2.47-.4.61-.2.2-.54.27-.87.27-.4,0-.67-.13-.94-.4s-.4-.67-.4-1.08.13-.81.34-1.08c.27-.27.54-.4.94-.4s.67.13.94.4c.47.34.61.81.54,1.35M62.77,36.16h1.41c0-.2-.13-.4-.2-.47-.13-.13-.27-.2-.47-.2s-.34.07-.47.2c-.13.07-.27.27-.27.47"/>
  <path class="cls-1" d="M67.62,35.96v1.88h-.54v-1.61c0-.47-.2-.67-.54-.67-.2,0-.34.07-.47.2-.13.13-.2.34-.2.54v1.55h-.54v-2.76h.54v.27c.2-.27.47-.34.81-.34h.13c.27,0,.47.13.61.34.13.13.2.4.2.61"/>
  <path class="cls-1" d="M70.04,36.9h.61c-.07.27-.2.54-.4.67-.2.2-.47.34-.81.34-.4,0-.74-.13-.94-.4-.27-.27-.34-.61-.34-1.08,0-.4.13-.81.34-1.08.27-.27.54-.4.94-.4.34,0,.61.13.87.34.2.2.34.4.4.67h-.61c0-.13-.07-.2-.2-.34s-.27-.13-.47-.13-.4.07-.54.27-.2.4-.2.67.07.54.2.67c.13.2.34.27.54.27.13,0,.34-.07.4-.13.07-.07.2-.2.2-.34"/>
  <path class="cls-1" d="M73.33,35.08l-1.21,3.23c-.07.2-.2.34-.34.4s-.27.07-.47.07h-.2v-.47h.27c.13,0,.2-.07.27-.2l.13-.27-1.01-2.76h.61l.74,1.95.74-1.95h.47Z"/>
  <path class="cls-1" d="M76.36,35.55h-.4v2.29h-.54v-2.29h-.34v-.47h.34v-.34c0-.27.07-.4.13-.54.13-.13.27-.2.47-.2h.34v.47c-.13,0-.27,0-.27.07-.07.07-.07.13-.07.27v.2h.4v.54h-.07Z"/>
  <path class="cls-1" d="M77.91,34.95c.4,0,.74.13.94.4.27.27.34.61.34,1.08,0,.4-.13.81-.34,1.08-.27.27-.54.4-.94.4s-.74-.13-.94-.4c-.27-.27-.34-.61-.34-1.08,0-.4.13-.81.34-1.08.27-.27.54-.4.94-.4M77.91,37.37c.2,0,.4-.07.54-.27.13-.2.2-.4.2-.67s-.07-.54-.2-.67c-.13-.2-.34-.27-.54-.27s-.4.07-.54.27-.2.4-.2.67.07.54.2.67c.13.2.34.27.54.27"/>
  <path class="cls-1" d="M81.14,34.95v.61c-.2,0-.34.07-.47.13-.27.13-.4.47-.4.87v1.28h-.54v-2.76h.54v.34c.13-.2.27-.34.47-.4.07,0,.13-.07.27-.07.07,0,.13,0,.13,0"/>
  <path class="cls-1" d="M84.57,34.01c.47,0,.87.2,1.21.54.27.34.47.81.47,1.35s-.13,1.01-.47,1.35-.67.54-1.21.54h-1.28v-3.84h1.28v.07ZM84.5,37.3c.34,0,.67-.13.87-.4s.27-.54.27-.94-.07-.74-.27-.94c-.2-.27-.47-.4-.87-.4h-.61v2.76h.61v-.07Z"/>
  <path class="cls-1" d="M89.28,36.63h-2.02c0,.2.07.4.2.54s.34.2.47.2.34-.07.4-.13.13-.13.2-.27h.61c-.07.27-.2.47-.4.61-.2.2-.54.27-.87.27-.4,0-.67-.13-.94-.4s-.4-.67-.4-1.08.13-.81.34-1.08c.27-.27.54-.4.94-.4s.67.13.94.4c.4.34.54.81.54,1.35M87.19,36.16h1.41c0-.2-.13-.4-.2-.47-.13-.13-.27-.2-.47-.2s-.34.07-.47.2c-.13.07-.2.27-.27.47"/>
  <path class="cls-1" d="M90.76,35.55h-.4v2.29h-.54v-2.29h-.34v-.47h.34v-.34c0-.27.07-.4.13-.54.13-.13.27-.2.47-.2h.34v.47c-.13,0-.27,0-.27.07-.07.07-.07.13-.07.27v.2h.4v.54h-.07Z"/>
  <path class="cls-1" d="M93.65,36.63h-2.02c0,.2.07.4.2.54s.34.2.47.2.34-.07.4-.13.13-.13.2-.27h.61c-.07.27-.2.47-.4.61-.2.2-.54.27-.87.27-.4,0-.67-.13-.94-.4s-.4-.67-.4-1.08.13-.81.34-1.08c.27-.27.54-.4.94-.4s.67.13.94.4c.4.34.54.81.54,1.35M91.57,36.16h1.41c0-.2-.13-.4-.2-.47-.13-.13-.27-.2-.47-.2s-.34.07-.47.2c-.13.07-.2.27-.27.47"/>
  <path class="cls-1" d="M96.48,35.96v1.88h-.54v-1.61c0-.47-.2-.67-.54-.67-.2,0-.34.07-.47.2-.13.13-.2.34-.2.54v1.55h-.54v-2.76h.54v.27c.2-.27.47-.34.81-.34h.13c.27,0,.47.13.61.34.13.13.2.4.2.61"/>
  <path class="cls-1" d="M98.77,36.36c.34.2.47.4.47.67s-.13.47-.34.61c-.2.2-.47.27-.81.27-.4,0-.74-.13-.94-.4-.2-.2-.27-.4-.27-.67h.54c0,.13.07.27.2.34.13.07.27.13.47.13.34,0,.54-.13.54-.34,0-.13-.07-.27-.27-.34-.13-.07-.27-.07-.47-.13-.2-.07-.34-.07-.4-.13-.4-.13-.54-.4-.54-.74,0-.2.13-.4.34-.54.2-.2.47-.27.81-.27s.61.13.81.34c.2.2.27.4.27.61h-.54c0-.07-.07-.2-.13-.27-.13-.07-.27-.13-.4-.13s-.27,0-.4.07c-.07.07-.13.13-.13.2s0,.13.07.2c.07.07.13.07.27.13.13.07.27.07.4.07.2.2.34.27.47.34"/>
  <path class="cls-1" d="M102.2,36.63h-2.02c0,.2.07.4.2.54s.34.2.47.2.34-.07.4-.13.13-.13.2-.27h.61c-.07.27-.2.47-.4.61-.2.2-.54.27-.87.27-.4,0-.67-.13-.94-.4s-.4-.67-.4-1.08.13-.81.34-1.08c.27-.27.54-.4.94-.4s.67.13.94.4c.4.34.54.81.54,1.35M100.11,36.16h1.41c0-.2-.13-.4-.2-.47-.13-.13-.27-.2-.47-.2s-.34.07-.47.2c-.13.07-.2.27-.27.47"/>
  <path class="cls-1" d="M105.63,34.01c.47,0,.87.2,1.21.54.27.34.47.81.47,1.35s-.13,1.01-.47,1.35-.67.54-1.21.54h-1.28v-3.84h1.28v.07ZM105.49,37.3c.4,0,.67-.13.87-.4s.27-.54.27-.94-.07-.74-.27-.94c-.2-.27-.47-.4-.87-.4h-.61v2.76h.61v-.07Z"/>
  <path class="cls-1" d="M110.27,36.63h-2.02c0,.2.07.4.2.54s.34.2.47.2.34-.07.4-.13.13-.13.2-.27h.61c-.07.27-.2.47-.4.61-.2.2-.54.27-.87.27-.4,0-.67-.13-.94-.4s-.4-.67-.4-1.08.13-.81.34-1.08c.27-.27.54-.4.94-.4s.67.13.94.4c.47.34.61.81.54,1.35M108.25,36.16h1.41c0-.2-.13-.4-.2-.47-.13-.13-.27-.2-.47-.2s-.34.07-.47.2c-.13.07-.2.27-.27.47"/>
  <polygon class="cls-1" points="113.03 35.08 112.02 37.84 111.42 37.84 110.41 35.08 111.01 35.08 111.68 37.1 112.42 35.08 113.03 35.08"/>
  <path class="cls-1" d="M115.79,36.63h-2.02c0,.2.07.4.2.54s.34.2.47.2.34-.07.4-.13.13-.13.2-.27h.61c-.07.27-.2.47-.4.61-.2.2-.54.27-.87.27-.4,0-.67-.13-.94-.4s-.4-.67-.4-1.08.13-.81.34-1.08c.27-.27.54-.4.94-.4s.67.13.94.4c.4.34.54.81.54,1.35M113.77,36.16h1.41c0-.2-.07-.4-.2-.47-.13-.13-.27-.2-.47-.2s-.34.07-.47.2c-.2.07-.27.27-.27.47"/>
  <rect class="cls-1" x="116.33" y="34.01" width=".54" height="3.84"/>
  <path class="cls-1" d="M118.68,34.95c.4,0,.74.13.94.4.27.27.34.61.34,1.08,0,.4-.13.81-.34,1.08-.27.27-.54.4-.94.4s-.74-.13-.94-.4c-.27-.27-.34-.61-.34-1.08,0-.4.13-.81.34-1.08s.54-.4.94-.4M118.68,37.37c.2,0,.4-.07.54-.27.13-.2.2-.4.2-.67s-.07-.54-.2-.67c-.13-.2-.34-.27-.54-.27s-.4.07-.54.27c-.13.2-.2.4-.2.67s.07.54.2.67c.13.2.34.27.54.27"/>
  <path class="cls-1" d="M121.91,34.95c.34,0,.67.13.87.4s.34.61.34,1.08-.13.81-.34,1.08-.54.4-.87.4-.61-.13-.81-.34v1.21h-.54v-3.7h.54v.27c.2-.27.47-.4.81-.4M121.78,37.37c.2,0,.4-.07.54-.27.13-.2.2-.4.2-.67s-.07-.54-.2-.67c-.13-.2-.34-.27-.54-.27s-.4.07-.54.27c-.13.2-.2.4-.2.67s.07.54.2.67c.13.2.34.27.54.27"/>
  <path class="cls-1" d="M127.16,35.96v1.88h-.54v-1.68c0-.2,0-.4-.07-.47-.07-.13-.2-.13-.34-.13s-.27.07-.4.2c-.07.13-.13.27-.13.54v1.61h-.54v-1.68c0-.2,0-.4-.07-.47-.07-.13-.2-.13-.34-.13s-.27.07-.34.2c-.07.13-.13.27-.13.54v1.61h-.54v-2.89h.54v.27c.2-.27.47-.4.81-.34.27,0,.47.13.61.4.2-.27.47-.4.81-.4h.13c.2,0,.4.13.54.34-.07.13,0,.34,0,.61"/>
  <path class="cls-1" d="M130.25,36.63h-2.02c0,.2.07.4.2.54s.34.2.47.2.34-.07.4-.13.13-.13.2-.27h.61c-.07.27-.2.47-.4.61-.2.2-.54.27-.87.27-.4,0-.67-.13-.94-.4s-.4-.67-.4-1.08.13-.81.34-1.08c.27-.27.54-.4.94-.4s.67.13.94.4c.4.34.54.81.54,1.35M128.17,36.16h1.41c0-.2-.07-.4-.2-.47-.13-.13-.27-.2-.47-.2s-.34.07-.47.2c-.13.07-.2.27-.27.47"/>
  <path class="cls-1" d="M133.08,35.96v1.88h-.54v-1.61c0-.47-.2-.67-.54-.67-.2,0-.34.07-.47.2-.13.13-.2.34-.2.54v1.55h-.54v-2.76h.54v.27c.2-.27.47-.34.81-.34h.13c.27,0,.47.13.61.34.13.13.2.4.2.61"/>
  <path class="cls-1" d="M134.69,37.84h-.34c-.13,0-.34-.07-.47-.2-.07-.13-.13-.27-.13-.54v-1.48h-.34v-.54h.34v-.87h.54v.87h.4v.47h-.4v1.41c0,.13,0,.2.07.27s.13.07.27.07v.54h.07Z"/>
</svg>