<?xml version="1.0" encoding="UTF-8"?>
<svg id="Layer_1" data-name="Layer 1" xmlns="http://www.w3.org/2000/svg" viewBox="0 0 172 62">
  <defs>
    <style>
      .cls-1 {
        fill: #003668;
      }

      .cls-2 {
        fill: #58595b;
      }

      .cls-3 {
        fill: #e6002d;
      }
    </style>
  </defs>
  <g>
    <path class="cls-2" d="M76.43,34.13h-1.35v-7.54h-4.17v-1.21h5.52v8.75ZM78.92,24.64h1.35v10.9h-1.35v-10.9Z"/>
    <path class="cls-2" d="M89.14,30.29v1.14h-7.27v-1.14h2.96v-.61c-.07,0-.2-.07-.27-.07-.27-.13-.47-.27-.67-.4-.2-.2-.34-.4-.47-.61-.13-.27-.2-.47-.2-.81,0-.27.07-.54.2-.81.07-.13.13-.27.27-.4h-1.68v-1.14h2.69v-.94h1.48v.94h2.56v1.14h-1.55c.13.13.2.27.27.4.13.27.2.54.2.81s-.07.54-.2.81-.27.47-.47.61c-.2.2-.47.34-.74.4-.07,0-.13.07-.2.07v.67h3.09v-.07h0ZM82.62,32.38h8.75v3.16h-1.35v-2.02h-7.4v-1.14ZM86.45,27.74c0-.27-.13-.47-.34-.67s-.47-.27-.74-.27-.54.07-.74.27c-.2.2-.27.4-.27.67s.07.47.27.67.4.27.74.27c.27,0,.54-.07.74-.27s.34-.4.34-.67ZM90.02,24.64h1.35v7.13h-1.35v-7.13Z"/>
    <path class="cls-2" d="M93.38,26.53v-1.21h5.32v1.21h-2.22l2.42,7.27-1.14.34-1.75-5.25-1.68,5.32-1.21-.34,2.42-7.4h-2.15v.07ZM100.65,35.47h-1.28v-10.83h1.28v4.51h1.28v-4.51h1.28v10.9h-1.28v-5.11h-1.28v5.05Z"/>
    <path class="cls-2" d="M104.82,26.12v-1.14h6.26v1.14h-2.69l2.76,3.36-.94.81-2.22-2.83-2.22,2.96-1.01-.81,2.76-3.57h-2.69v.07h0ZM113.56,33.25c0,.34-.07.74-.2,1.01-.13.34-.34.61-.61.87s-.54.47-.87.61c-.34.13-.74.2-1.08.2-.4,0-.74-.07-1.08-.2-.34-.13-.67-.34-.87-.61-.27-.27-.47-.54-.61-.87s-.2-.67-.2-1.01.07-.74.2-1.01c.13-.34.34-.61.61-.87s.54-.47.87-.61c.34-.13.74-.2,1.08-.2.4,0,.74.07,1.08.2.34.13.67.34.87.61.27.27.47.54.61.87,0,.27.2.61.2,1.01ZM112.22,33.25c0-.4-.13-.74-.47-1.08-.27-.27-.67-.47-1.08-.47s-.74.13-1.08.47c-.27.27-.47.67-.47,1.08s.13.74.47,1.08c.27.27.67.4,1.08.4s.74-.13,1.08-.4c.27-.34.47-.67.47-1.08ZM113.03,30.43v-2.35h-2.02v-1.14h2.02v-2.22h1.35v5.79h-1.35v-.07Z"/>
    <path class="cls-2" d="M115.92,31.57h10.02v1.21h-4.31v2.83h-1.35v-2.83h-4.31l-.07-1.21h0ZM118.07,26.26h5.72v-1.41h1.35v5.25h-8.41v-5.25h1.35v1.41ZM123.79,27.4h-5.72v1.48h5.72v-1.48Z"/>
  </g>
  <g>
    <path class="cls-1" d="M58.73,29.08c-2.29-1.55-5.25-.94-6.8,1.41-1.28,1.95-3.23,2.22-3.97,2.22-2.49,0-4.1-1.75-4.64-3.5h0v-.13c-.2-.74-.27-1.08-.27-1.88,0-4.31,4.37-9.02,10.7-9.02s10.16,4.91,11.1,7.67q0-.07-.07-.13c-1.82-5.38-6.93-9.22-12.92-9.22-7.54,0-13.66,6.12-13.66,13.66,0,6.73,4.84,12.51,11.57,12.51,5.38,0,8.95-3.03,10.63-7.13,1.01-2.42.34-5.05-1.68-6.46Z"/>
    <path class="cls-3" d="M64.92,26.06c-.81-2.69-4.51-7.94-11.24-7.94-6.32,0-10.7,4.78-10.7,9.02,0,.81.07,1.14.27,1.88-.07-.34-.13-.67-.13-.94,0-4.44,4.44-7.54,9.02-7.54,6.19,0,11.24,5.05,11.24,11.24,0,4.84-2.83,9.08-6.86,11.1h0c5.25-1.88,9.02-6.93,9.02-12.78.07-1.41-.2-2.62-.61-4.04Z"/>
  </g>
</svg>