<?xml version="1.0" encoding="UTF-8"?>
<svg id="Layer_1" data-name="Layer 1" xmlns="http://www.w3.org/2000/svg" viewBox="0 0 172 62">
  <defs>
    <style>
      .cls-1 {
        fill: #003668;
      }

      .cls-2 {
        fill: #58595b;
      }

      .cls-3 {
        fill: #e6002d;
      }
    </style>
  </defs>
  <g>
    <path class="cls-1" d="M59,31.67c-2.35-1.61-5.32-.94-6.93,1.48-1.35,2.02-3.3,2.22-4.04,2.22-2.49,0-4.24-1.75-4.71-3.57h0v-.13c-.2-.74-.27-1.14-.27-1.95,0-4.37,4.44-9.22,10.9-9.22s10.36,5.05,11.3,7.8q0-.07-.07-.13c-1.88-5.45-7.06-9.35-13.12-9.35-7.67,0-13.86,6.19-13.86,13.86,0,6.86,4.91,12.72,11.77,12.72,5.45,0,9.15-3.09,10.83-7.27.94-2.35.27-5.05-1.82-6.46Z"/>
    <path class="cls-3" d="M65.32,28.58c-.81-2.69-4.58-8.07-11.44-8.07-6.46,0-10.9,4.84-10.9,9.22,0,.81.07,1.14.27,1.95-.07-.34-.13-.67-.13-1.01,0-4.51,4.51-7.67,9.22-7.67,6.32,0,11.44,5.11,11.44,11.44,0,4.98-2.83,9.22-7,11.3h0c5.32-1.95,9.15-7.06,9.15-13.05,0-1.41-.2-2.69-.61-4.1Z"/>
  </g>
  <g>
    <path class="cls-2" d="M79.45,32.28h-5.85v-4.98h1.35v1.28h3.16v-1.28h1.35v4.98ZM74.34,33.22h1.35v1.08h5.99v-1.08h1.35v4.84h-8.68v-4.84ZM78.11,29.79h-3.16v1.41h3.16v-1.41ZM81.67,35.37h-5.99v1.55h5.99v-1.55ZM81.67,27.16h1.35v5.25h-1.35v-2.15h-1.61v-1.21h1.61v-1.88Z"/>
    <path class="cls-2" d="M85.91,35.37v-1.21h10.16v1.21h-4.44v2.83h-1.41v-2.83h-4.31ZM86.72,27.5h8.54v4.98h-8.54v-4.98ZM93.92,28.71h-5.85v2.56h5.85v-2.56Z"/>
    <path class="cls-2" d="M98.56,34.16h10.16v1.21h-4.44v2.83h-1.35v-2.83h-4.37v-1.21ZM100.71,28.78h5.85v-1.41h1.35v5.32h-8.54v-5.32h1.35v1.41ZM106.57,29.92h-5.85v1.55h5.85v-1.55Z"/>
  </g>
</svg>