<?xml version="1.0" encoding="UTF-8"?>
<svg id="Layer_1" data-name="Layer 1" xmlns="http://www.w3.org/2000/svg" viewBox="0 0 172 62">
  <defs>
    <style>
      .cls-1 {
        fill: #fff;
      }

      .cls-2 {
        fill: #263c93;
      }
    </style>
  </defs>
  <path class="cls-2" d="M80.33,25.68c.76,4.21-10.7,9.69-25.53,12.3-14.83,2.61-27.47,1.26-28.22-2.95s10.7-9.69,25.53-12.3c14.91-2.53,27.47-1.18,28.22,2.95"/>
  <polyline class="cls-1" points="66.34 31.92 66.26 27.62 67.69 27.62 67.69 33.1 65.67 33.1 64.32 28.55 64.32 28.55 64.32 33.1 62.97 33.1 62.97 27.62 65.08 27.62 66.34 31.92"/>
  <polyline class="cls-1" points="41.32 28.12 40.56 33.18 39.04 33.18 40.14 27.62 42.58 27.62 43.59 33.18 42.08 33.18 41.4 28.12"/>
  <polyline class="cls-1" points="47.8 31.83 48.48 27.62 50.75 27.62 50.92 33.18 49.49 33.18 49.49 28.12 49.41 28.12 48.48 33.18 47.13 33.18 46.2 28.12 46.12 28.12 46.12 33.18 44.69 33.18 44.86 27.62 47.13 27.62 47.8 31.83"/>
  <path class="cls-1" d="M36.77,31.58c.08.17,0,.34,0,.42-.08.17-.17.34-.51.34s-.59-.17-.59-.51v-.51h-1.52v.42c0,1.26,1.01,1.6,2.02,1.6s1.85-.34,1.94-1.26c.08-.51,0-.76,0-.93-.25-1.18-2.36-1.52-2.53-2.19v-.25c0-.17.17-.34.51-.34s.51.17.51.51v.34h1.35v-.42c0-1.18-1.1-1.43-1.85-1.43-1.01,0-1.77.34-1.94,1.26,0,.25-.08.51,0,.76.34,1.18,2.27,1.43,2.61,2.19"/>
  <path class="cls-1" d="M54.8,31.58c.08.17,0,.34,0,.42-.08.17-.17.34-.51.34s-.59-.17-.59-.51v-.51h-1.52v.42c0,1.26.93,1.6,2.02,1.6,1.01,0,1.85-.34,1.94-1.26.08-.51,0-.76,0-.93-.25-1.18-2.36-1.52-2.44-2.11v-.25c0-.17.17-.34.51-.34s.51.17.51.51v.34h1.35v-.42c0-1.18-1.1-1.35-1.85-1.35-1.01,0-1.77.34-1.94,1.18,0,.25-.08.51,0,.76.34,1.1,2.27,1.35,2.53,2.11"/>
  <path class="cls-1" d="M59.52,32.34c.42,0,.51-.25.51-.42v-4.3h1.43v4.3c-.08,1.01-.93,1.35-1.94,1.35s-1.85-.34-1.94-1.35v-4.3h1.43v4.3c0,.17.08.42.51.42"/>
  <path class="cls-1" d="M71.06,32.25c.42,0,.51-.25.59-.42v-1.1h-.59v-.84h1.94v1.85c-.08,1.01-1.01,1.35-1.94,1.35-1.01,0-1.85-.34-1.94-1.35v-3.03c.08-1.01.93-1.35,1.94-1.35s1.85.34,1.94,1.35v.51h-1.43v-.59c0-.08-.17-.42-.59-.42s-.51.25-.59.42v3.03c.17.34.34.59.67.59"/>
  <path class="cls-2" d="M123.38,30.74c-.17-.08-.34-.17-.51-.25h0c.08,0,.17.08.25.08-2.78-1.35-3.03-3.79-3.03-4.63v-.59h-1.52v.59c0,.84-.25,3.29-3.03,4.63.08,0,.17-.08.25-.08h0c-.17.08-.34.17-.51.25-.08,0-.08.08-.17.08l.51,1.1s.25-.08.59-.25c0,0,.08,0,.08-.08.17-.08.42-.25.67-.34.42-.25.93-.59,1.35-1.01.25-.25.51-.51.76-.84.08-.08.08-.17.17-.25h0v-.08c.08-.08.08-.17.08-.25,0,.08.08.17.17.25v.08h0c.08.08.08.17.17.25.25.25.51.59.76.84.42.42.93.76,1.35,1.01.25.17.42.25.67.34,0,0,.08,0,.08.08.34.17.59.25.59.25l.51-1.1c-.17-.08-.25-.08-.25-.08"/>
  <rect class="cls-2" x="114.36" y="33.94" width="9.69" height="1.18"/>
  <path class="cls-2" d="M86.98,31.66h6.91v4.89h-6.91v-4.89ZM92.46,32.84h-4.13v2.53h4.13v-2.53Z"/>
  <path class="cls-2" d="M88.92,25.43s-.17,3.2,2.44,4.55l-.76,1.01s-1.94-1.26-2.36-2.61c-.42,1.35-2.36,2.61-2.36,2.61l-.76-1.01c2.61-1.35,2.44-4.55,2.44-4.55h1.35Z"/>
  <polygon class="cls-2" points="92.37 25.18 92.37 31.16 93.81 31.16 93.81 28.97 95.07 28.97 95.07 27.7 93.81 27.7 93.81 25.18 92.37 25.18"/>
  <path class="cls-2" d="M97.85,28.38c-.42,1.35-2.19,2.53-2.19,2.53l-.76-1.01c2.44-1.26,2.27-4.47,2.27-4.47h1.35s-.17,3.2,2.27,4.47l-.76,1.01s-1.69-1.18-2.19-2.53"/>
  <path class="cls-2" d="M100.12,36.8c-2.11,0-3.88-1.26-3.88-2.86s1.77-2.86,3.88-2.86,3.88,1.26,3.88,2.86-1.77,2.86-3.88,2.86M102.48,34.02c0-.93-1.1-1.6-2.44-1.6s-2.44.76-2.44,1.6c0,.93,1.1,1.6,2.44,1.6,1.35,0,2.44-.76,2.44-1.6"/>
  <polygon class="cls-2" points="103.66 25.18 103.66 31.16 102.23 31.16 102.23 28.38 100.38 28.38 100.38 27.2 102.23 27.2 102.23 25.18 103.66 25.18"/>
  <path class="cls-2" d="M132.81,28.29h-1.35v-1.77h1.26v-1.1h-6.99v1.1h1.35v1.77h-1.43v1.1h7.25v-1.1h-.08ZM128.35,26.52h1.85v1.77h-1.85v-1.77Z"/>
  <rect class="cls-2" x="124.81" y="30.06" width="8.93" height="1.1"/>
  <polygon class="cls-2" points="125.57 32.93 131.64 32.93 131.64 33.6 125.57 33.6 125.57 34.61 125.57 34.61 125.57 35.45 125.57 35.45 125.57 36.55 132.98 36.55 132.98 35.45 126.92 35.45 126.92 34.61 132.98 34.61 132.98 34.61 132.98 33.6 132.98 32.93 132.98 32.34 132.98 31.92 125.57 31.92 125.57 32.93"/>
  <polygon class="cls-2" points="140.06 28.88 139.05 28.88 139.05 30.15 140.06 30.15 140.06 36.55 141.32 36.55 141.32 25.18 140.06 25.18 140.06 28.88"/>
  <rect class="cls-2" x="141.75" y="25.18" width="1.26" height="11.37"/>
  <polygon class="cls-2" points="136.27 30.15 138.54 30.15 138.54 29.81 138.54 29.05 138.54 27.03 138.54 25.77 138.54 25.68 134.84 25.68 134.84 27.03 137.2 27.03 137.2 29.05 136.27 29.05 134.92 29.05 134.84 29.05 134.84 34.28 134.92 34.28 136.27 34.28 138.8 34.28 138.8 32.93 136.27 32.93 136.27 30.15"/>
  <path class="cls-2" d="M146.97,25.51c-1.69,0-2.7,2.11-2.7,4.63s1.01,4.63,2.7,4.63,2.7-2.11,2.7-4.63-1.01-4.63-2.7-4.63M146.97,33.6c-.67,0-1.18-1.6-1.18-3.45s.51-3.45,1.18-3.45,1.18,1.6,1.18,3.45-.42,3.45-1.18,3.45"/>
  <polygon class="cls-2" points="106.02 26.02 105.26 26.02 105.26 33.85 106.02 33.85 106.61 33.85 110.82 33.85 110.82 32.67 106.7 32.67 106.7 27.11 110.82 27.11 110.82 26.02 106.61 26.02 106.02 26.02"/>
  <rect class="cls-2" x="112" y="25.18" width="1.43" height="11.29"/>
  <rect class="cls-2" x="150.58" y="25.18" width="1.43" height="11.29"/>
</svg>