<?xml version="1.0" encoding="UTF-8"?>
<svg id="Layer_1" data-name="Layer 1" xmlns="http://www.w3.org/2000/svg" viewBox="0 0 172 62">
  <defs>
    <style>
      .cls-1 {
        fill: #7d7d7d;
      }

      .cls-2 {
        fill: #fff;
      }

      .cls-3 {
        fill: #c6004e;
      }
    </style>
  </defs>
  <g>
    <path class="cls-3" d="M62.76,43.19c7.91,0,14.38-6.47,14.38-14.38s-6.47-14.38-14.38-14.38-14.38,6.47-14.38,14.38,6.33,14.38,14.38,14.38Z"/>
    <polygon class="cls-2" points="62.11 22.49 62.11 35.14 66.14 35.14 66.14 33.99 63.26 33.99 63.26 22.49 62.11 22.49"/>
    <path class="cls-2" d="M58.16,25.94c.93,0,1.73-.79,1.73-1.73s-.79-1.73-1.73-1.73-1.73.79-1.73,1.73.72,1.73,1.73,1.73Z"/>
    <path class="cls-2" d="M63.26,16.81h-.58c-6.61,0-12.01,5.39-12.01,12.01,0,3.24,1.22,6.25,3.52,8.48,2.3,2.3,5.32,3.52,8.48,3.52s6.25-1.22,8.48-3.52c2.3-2.3,3.52-5.32,3.52-8.48v-.58h-8.55v1.08h7.48v.14c-.36,5.68-5.1,10.21-10.86,10.21-2.95,0-5.68-1.15-7.69-3.16-2.08-2.08-3.16-4.82-3.16-7.69s1.15-5.68,3.16-7.69c2.08-2.08,4.82-3.24,7.69-3.24h.58v-1.08s-.07,0-.07,0Z"/>
  </g>
  <g>
    <polygon class="cls-1" points="84.32 37.44 96.69 37.44 96.69 33.7 89.14 33.7 88.78 33.7 88.78 33.27 88.78 20.19 84.32 20.19 84.32 37.44"/>
    <path class="cls-1" d="M111.79,21.41c-1.44-1.08-3.24-1.65-5.46-1.65-2.59,0-4.82.79-6.33,2.3-1.58,1.58-2.44,3.88-2.44,6.76,0,3.02.86,5.54,2.52,7.19,1.29,1.29,2.95,1.94,4.89,1.94,4.24,0,5.18-2.52,5.18-2.52v2.01h3.81v-9.78h-7.62v3.02h3.45s.07,3.81-3.59,3.81c-.93,0-1.73-.36-2.37-.93-1.01-1.01-1.51-2.59-1.51-4.74,0-3.52,1.44-5.68,3.74-5.68,1.44,0,2.59.93,2.88,2.3h4.89c-.14-1.94-.65-2.95-2.01-4.03Z"/>
  </g>
</svg>