<?xml version="1.0" encoding="UTF-8"?>
<svg id="Layer_1" data-name="Layer 1" xmlns="http://www.w3.org/2000/svg" viewBox="0 0 172 62">
  <defs>
    <style>
      .cls-1 {
        fill: #fff;
      }

      .cls-2 {
        fill: #c6074b;
      }

      .cls-3 {
        fill: #717071;
      }
    </style>
  </defs>
  <path class="cls-2" d="M44.67,18.22c-7.68,0-13.96,6.28-13.96,13.96s6.28,13.96,13.96,13.96,13.96-6.28,13.96-13.96-6.28-13.96-13.96-13.96"/>
  <path class="cls-1" d="M56.4,31.63v.56c0,6.49-5.24,11.73-11.73,11.73s-11.73-5.24-11.73-11.73,5.24-11.73,11.73-11.73h.56v1.12h-.56c-5.86,0-10.61,4.75-10.61,10.61s4.75,10.61,10.61,10.61,10.33-4.47,10.61-10.05h-7.26v-1.12h8.38ZM44.12,26.04v12.29h3.91v-1.12h-2.79v-11.17h-1.12ZM38.53,27.72c0,.91.77,1.68,1.68,1.68s1.68-.77,1.68-1.68-.77-1.68-1.68-1.68-1.68.77-1.68,1.68"/>
  <path class="cls-3" d="M70.08,23.81h-4.47v16.75h12.08v-3.63h-7.68v-13.12h.07ZM87.12,34.07h3.42s0,3.7-3.49,3.7c-.91,0-1.68-.35-2.3-.91-.98-.98-1.47-2.58-1.47-4.61,0-3.42,1.4-5.51,3.63-5.51,1.4,0,2.51.91,2.79,2.23h4.75c-.21-1.95-.77-2.93-2.09-3.98-1.4-1.05-3.14-1.61-5.31-1.61-2.51,0-4.68.77-6.14,2.23-1.54,1.54-2.37,3.77-2.37,6.56,0,2.93.84,5.38,2.44,6.98,1.19,1.26,2.86,1.88,4.75,1.88,4.12,0,5.03-2.44,5.03-2.44v1.95h3.7v-9.49h-7.33v3h0ZM129.07,23.81v-4.68h-3.77v4.68h-4.68v3.77h4.68v4.68h3.77v-4.68h4.68v-3.77h-4.68ZM113.02,33.51c0,2.3-.49,3.91-2.93,3.91-1.88,0-2.79-1.19-2.79-3.63v-9.98h-4.47v10.26c0,4.47,2.58,6.91,7.33,6.91s7.33-2.44,7.33-6.98v-10.19h-4.47v9.7h0Z"/>
</svg>