<?xml version="1.0" encoding="UTF-8"?>
<svg id="Layer_1" data-name="Layer 1" xmlns="http://www.w3.org/2000/svg" viewBox="0 0 172 62">
  <defs>
    <style>
      .cls-1 {
        fill: #003668;
      }

      .cls-2 {
        fill: #58595b;
      }

      .cls-3 {
        fill: #e6002d;
      }
    </style>
  </defs>
  <g>
    <path class="cls-1" d="M59,31.76c-2.35-1.61-5.32-.94-6.93,1.48-1.35,2.02-3.3,2.22-4.04,2.22-2.49,0-4.24-1.75-4.71-3.57h0v-.13c-.2-.74-.27-1.14-.27-1.95,0-4.37,4.44-9.22,10.9-9.22s10.36,5.05,11.3,7.8q0-.07-.07-.13c-1.88-5.45-7.06-9.35-13.12-9.35-7.67,0-13.86,6.19-13.86,13.86,0,6.86,4.91,12.72,11.77,12.72,5.45,0,9.15-3.09,10.83-7.27.94-2.35.27-5.05-1.82-6.46Z"/>
    <path class="cls-3" d="M65.39,28.66c-.81-2.69-4.58-8.07-11.44-8.07-6.46,0-10.9,4.84-10.9,9.22,0,.81.07,1.14.27,1.95-.07-.34-.13-.67-.13-1.01,0-4.51,4.51-7.67,9.22-7.67,6.32,0,11.44,5.11,11.44,11.44,0,4.98-2.83,9.22-7,11.3h0c5.32-1.95,9.15-7.06,9.15-13.05,0-1.41-.2-2.69-.61-4.1Z"/>
  </g>
  <g>
    <path class="cls-2" d="M82.95,33.58h-10.16v-1.14h4.44v-.74h-3.57v-4.37h8.54v1.14h-7.2v.54h7.2v1.01h-7.2v.54h7.2v1.08h-3.63v.74h4.44v1.21h-.07ZM80.6,36.33c0,.34-.07.67-.2,1.01s-.34.54-.61.81c-.27.2-.54.4-.87.54-.34.13-.67.2-1.08.2s-.74-.07-1.08-.2c-.34-.13-.61-.34-.87-.54-.27-.2-.4-.47-.61-.81-.13-.34-.2-.61-.2-1.01,0-.34.07-.67.2-.94s.34-.54.61-.81c.27-.2.54-.4.87-.54.34-.13.67-.2,1.08-.2s.74.07,1.08.2c.34.13.61.34.87.54.27.2.4.47.61.81.13.27.2.61.2.94ZM79.25,36.27c0-.4-.13-.67-.4-.94-.27-.27-.61-.4-.94-.4-.4,0-.74.13-1.01.4s-.4.61-.4.94c0,.4.13.67.4.94.27.27.61.4,1.01.4s.67-.13.94-.4c.27-.2.4-.54.4-.94Z"/>
    <path class="cls-2" d="M91.09,29.81c0,.34-.07.67-.2,1.01s-.34.61-.61.81c-.27.27-.54.4-.87.54-.34.13-.67.2-1.08.2s-.74-.07-1.08-.2c-.34-.13-.61-.34-.87-.54-.27-.2-.4-.47-.61-.81-.13-.34-.2-.61-.2-1.01,0-.34.07-.67.2-1.01s.34-.61.61-.81c.27-.2.54-.4.87-.54.34-.13.67-.2,1.08-.2s.74.07,1.08.2c.34.13.61.34.87.54.27.27.4.54.61.81.13.34.2.67.2,1.01ZM86.38,33.04h8.68v3.03h-7.33v.94h7.47v1.14h-8.81v-3.09h7.33v-.94h-7.33v-1.08ZM89.81,29.81c0-.4-.13-.74-.4-1.01-.27-.27-.61-.4-1.01-.4s-.74.13-1.01.4-.4.61-.4,1.01.13.74.4,1.01c.27.27.61.4,1.01.4s.74-.13,1.01-.4c.27-.27.4-.61.4-1.01ZM93.72,27.25h1.41v5.05h-1.41v-5.05Z"/>
    <path class="cls-2" d="M98.09,34.25h10.16v1.21h-4.44v2.83h-1.41v-2.83h-4.37v-1.21h.07ZM100.31,28.87h5.85v-1.41h1.35v5.32h-8.54v-5.32h1.35v1.41ZM106.1,30.01h-5.85v1.55h5.85v-1.55Z"/>
  </g>
</svg>