<?xml version="1.0" encoding="UTF-8"?>
<svg id="Layer_1" data-name="Layer 1" xmlns="http://www.w3.org/2000/svg" viewBox="0 0 172 62">
  <defs>
    <style>
      .cls-1 {
        fill: #008375;
      }

      .cls-2 {
        fill: #231815;
      }

      .cls-3 {
        fill: #d50037;
      }
    </style>
  </defs>
  <path class="cls-1" d="M46.43,32.34c-.07-.34-.13-.61-.27-.87-.4-.81-.94-1.55-1.75-2.02-1.28-.74-2.76-.74-4.04,0-.54.34-1.01.81-1.35,1.41-.13.2-.2.4-.27.61-.34,1.08-.34,2.42.27,3.43.2.34.47.61.81.74.34.13.74.13,1.08-.07.4-.27.47-.74.4-1.21-.07-.54-.13-1.08.07-1.61.07-.2.13-.34.27-.47.07-.07.2-.13.27-.2.2-.13.47-.13.67-.13.4.07.74.4.94.74.2.4.2.81.27,1.21.07,1.82-.34,3.7-.81,5.45-.07.2-.07.34-.13.54-.07.13-.13.34,0,.47q.07.07.13.13c.27.13.47-.07.67-.27,1.08-1.08,1.75-2.49,2.22-3.9.2-.54.34-1.08.4-1.61.2-.74.27-1.61.13-2.35"/>
  <path class="cls-1" d="M54.1,23.93c0-.27-.27-.47-.47-.47-.27,0-.54.13-.74.27-4.71,1.82-9.96,2.15-14.94,1.41-.87-.13-1.68-.27-2.56-.4-.54-.07-1.08-.2-1.61-.27-.47-.07-1.01-.07-1.41.27-.47.4-.47,1.21-.2,1.75.34.61.94,1.08,1.55,1.48.61.34,1.28.74,2.02.67,1.88-.13,3.77-.34,5.65-.54,3.23-.4,6.59-.81,9.55-2.09,1.01-.4,1.95-.94,2.83-1.55.07-.13.34-.34.34-.54"/>
  <path class="cls-3" d="M40.65,22.31c0,1.01.81,1.82,1.82,1.82s1.82-.81,1.82-1.82c0-.13-.07-.34-.07-.47-.13-.34-.34-.47-.34-.87,0-.54-.67-.54-1.08-.54s-.87.07-1.21.27c-.27.13-.54.4-.74.67-.13.2-.2.54-.2.94h0"/>
  <path class="cls-2" d="M58.01,26.62v-1.41h2.09v1.41h2.76v1.35h-1.48c.67.81,1.08,1.88,1.08,3.23,0,2.49-1.41,4.37-3.43,4.37s-3.5-1.88-3.5-4.37c0-1.28.4-2.42,1.08-3.23h-1.35v-1.35h2.76ZM59.08,28.03c-.81,0-1.48,1.28-1.48,3.16s.61,3.03,1.41,3.03,1.48-1.21,1.48-3.03c0-2.02-.61-3.16-1.41-3.16M66.21,30.66v8.07h-2.02v-13.46h2.02v4.1h1.95v1.35h-1.95v-.07Z"/>
  <path class="cls-2" d="M71.46,33.48h3.36c.94,0,1.61.07,2.42-.4v-7.87h2.02v4.1h1.95v1.35h-1.95v8.07h-2.02v-4.31c-.67.34-1.61.4-2.49.4h-4.44c-.87,0-1.55-.87-1.55-1.82v-7.13h2.02v7.13c0,.27.2.47.67.47"/>
  <path class="cls-2" d="M90.03,30.72c.27-.74.34-1.75.34-2.69v-1.14h-7.06v-1.35h9.08v2.49c0,1.01-.13,2.02-.4,2.76h1.82v1.35h-12.04v-1.35h8.28v-.07ZM92.32,33.41v5.45h-7.74c-.74,0-1.35-.81-1.35-1.82v-3.63h9.08ZM85.26,34.76v2.22c0,.4.27.54.61.54h4.51v-2.76h-5.11Z"/>
  <path class="cls-2" d="M100.8,24.87c2.22,0,3.7,1.75,3.7,3.57,0,.81-.27,1.61-.81,2.22h3.09v1.35h-2.49v2.69h0c.13.34.27.74.27,1.14,0,2.02-1.88,3.3-3.77,3.3-2.02,0-3.77-1.28-3.77-3.3,0-.4.07-.81.27-1.14h0v-2.69h-2.49v-1.35h3.09c-.54-.61-.81-1.41-.81-2.22,0-1.75,1.48-3.57,3.7-3.57M100.8,33.89c-.81,0-1.75.67-1.75,1.95,0,1.21.87,1.95,1.75,1.95.81,0,1.75-.67,1.75-1.95,0-1.14-.87-1.95-1.75-1.95M100.8,26.22c-1.01,0-1.75,1.08-1.68,2.22,0,1.14.74,2.22,1.68,2.22s1.68-1.08,1.68-2.22-.74-2.22-1.68-2.22M102.34,32h-3.03v.81c.47-.2,1.01-.27,1.55-.27s1.08.13,1.55.27v-.81h-.07Z"/>
  <path class="cls-2" d="M115.8,35.43c.47-1.08.61-2.49.61-3.9v-4.24h-7.06v-1.35h9.08v5.52c0,1.61-.2,2.96-.67,3.9h2.15v1.35h-12.04v-1.35h7.94v.07Z"/>
  <path class="cls-2" d="M120.85,31.87h12.04v1.35h-5.05v1.35h-2.02v-1.35h-5.05v-1.35h.07ZM131.54,30.99h-7.67c-.81,0-1.55-.87-1.55-1.82v-1.68h7.06v-.81h-7.06v-1.35h9.08v2.22c0,.67-.47,1.28-1.01,1.28h-6.12v.27c0,.27.2.54.61.54h6.59v1.35h.07ZM124.35,35.16h5.05v-1.21h2.02v4.91h-7.54c-.81,0-1.55-.81-1.55-1.82v-3.09h2.02v1.21ZM124.35,36.44v.4c0,.4.27.61.61.61h4.51v-1.08h-5.11v.07Z"/>
</svg>