<?xml version="1.0" encoding="UTF-8"?>
<svg id="Layer_1" data-name="Layer 1" xmlns="http://www.w3.org/2000/svg" xmlns:xlink="http://www.w3.org/1999/xlink" viewBox="0 0 172 62">
  <defs>
    <style>
      .cls-1 {
        fill: url(#_무제_그라디언트_8);
      }

      .cls-2 {
        fill: #00478b;
      }

      .cls-3 {
        fill: url(#_무제_그라디언트_6);
      }

      .cls-4 {
        fill: url(#_무제_그라디언트_7);
      }
    </style>
    <linearGradient id="_무제_그라디언트_6" data-name="무제 그라디언트 6" x1="-1157.16" y1="1988.56" x2="-1178.74" y2="1966.98" gradientTransform="translate(1008.38 1651.87) scale(.82 -.82)" gradientUnits="userSpaceOnUse">
      <stop offset=".1" stop-color="#fff"/>
      <stop offset=".25" stop-color="#c6eaf7"/>
      <stop offset=".46" stop-color="#80d0ed"/>
      <stop offset=".64" stop-color="#49bbe5"/>
      <stop offset=".8" stop-color="#21acdf"/>
      <stop offset=".92" stop-color="#09a3db"/>
      <stop offset="1" stop-color="#00a0da"/>
    </linearGradient>
    <linearGradient id="_무제_그라디언트_7" data-name="무제 그라디언트 7" x1="-780.37" y1="1972.21" x2="-769.36" y2="1991.84" gradientTransform="translate(687.62 1651.87) scale(.82 -.82)" gradientUnits="userSpaceOnUse">
      <stop offset="0" stop-color="#fff"/>
      <stop offset="1" stop-color="#00a0da"/>
    </linearGradient>
    <linearGradient id="_무제_그라디언트_8" data-name="무제 그라디언트 8" x1="-1177.44" y1="1970.93" x2="-1162" y2="1986.37" gradientTransform="translate(1008.38 1651.87) scale(.82 -.82)" gradientUnits="userSpaceOnUse">
      <stop offset=".05" stop-color="#fff"/>
      <stop offset=".15" stop-color="#cbecf7"/>
      <stop offset=".28" stop-color="#96d8f0"/>
      <stop offset=".4" stop-color="#68c7e9"/>
      <stop offset=".52" stop-color="#43b9e4"/>
      <stop offset=".65" stop-color="#25aedf"/>
      <stop offset=".77" stop-color="#11a6dc"/>
      <stop offset=".89" stop-color="#04a2db"/>
      <stop offset="1" stop-color="#00a0da"/>
    </linearGradient>
  </defs>
  <g>
    <path class="cls-3" d="M66.57,32.5c-.4-3.77-2.49-6.32-6.46-6.59-2.15-.13-4.84.81-6.86,3.5,1.68-2.09,4.1-2.49,5.85-1.48,2.69,1.55,2.62,7-1.08,10.43-.94.87-4.31,3.5-9.08,2.42-4.84-1.14-8.21-5.38-8.54-9.96h0c-.13-1.48.13-3.16.94-4.71-1.08,1.95-1.68,4.17-1.68,6.53,0,7.4,6.06,13.46,13.46,13.46s13.46-6.06,13.46-13.46q0-.07,0-.13Z"/>
    <path class="cls-4" d="M53.11,19.18c-5.05,0-9.49,2.83-11.77,6.93-.74,1.61-1.08,3.3-.94,4.71.2,2.09,1.41,3.83,3.63,4.37,3.3.81,5.92-1.01,8.95-5.45.07-.13.13-.2.2-.34,2.02-2.76,4.71-3.63,6.86-3.5,3.97.2,6.06,2.83,6.46,6.59,0-7.4-5.99-13.32-13.39-13.32Z"/>
    <path class="cls-1" d="M44.1,35.26c-2.29-.61-3.43-2.29-3.63-4.37h0c.34,4.58,3.7,8.81,8.54,9.96,4.78,1.08,8.14-1.55,9.08-2.42,3.7-3.43,3.77-8.88,1.08-10.43-1.75-1.01-4.17-.61-5.85,1.48-.07.07-.13.2-.2.34-3.09,4.44-5.72,6.26-9.02,5.45Z"/>
  </g>
  <g>
    <path class="cls-2" d="M96.85,38.83h1.55v-4.91h-3.43v-1.88h4.78v-1.28h-11.1v1.28h4.78v1.88h-3.57v1.28h7v3.63Z"/>
    <path class="cls-2" d="M96.91,27.86v3.36h.94s.61-.87.61-2.49v-2.15h-8.61v1.28h7.06Z"/>
    <rect class="cls-2" x="102.3" y="32.77" width="11.17" height="1.28"/>
    <path class="cls-2" d="M105.19,37.48v-2.56h-1.55v3.16c0,.4.34.67.67.67h7.94v-1.28h-7.06Z"/>
    <path class="cls-2" d="M107.88,26.04c-2.02,0-3.63,1.35-3.63,2.96s1.68,2.96,3.63,2.96,3.63-1.35,3.63-2.96-1.61-2.96-3.63-2.96ZM107.88,30.75c-1.21,0-2.09-.67-2.09-1.68s.87-1.68,2.09-1.68,2.09.74,2.09,1.68-.87,1.68-2.09,1.68Z"/>
    <path class="cls-2" d="M78.21,37.48v-3.03h-1.55v3.63c0,.4.34.67.67.67h7.74v-1.28c.07,0-6.8,0-6.86,0Z"/>
    <path class="cls-2" d="M85.01,29.34v-2.89h-1.55v8.41h1.14s.4-1.28.4-2.76v-1.55h1.61v-1.28c0,.07-1.55.07-1.61.07Z"/>
    <path class="cls-2" d="M79.22,27.25v-1.14h-1.68v1.14h-2.89v1.28h2.35s1.28-.4,1.35-.4l1.35.4h2.35v-1.28h-2.83Z"/>
    <path class="cls-2" d="M78.34,27.73c-1.82,0-3.09,1.08-3.09,2.62,0,1.68,1.41,3.03,3.09,3.03s3.09-1.35,3.09-3.03c0-1.55-1.28-2.62-3.09-2.62ZM78.34,32.17c-.87,0-1.61-.81-1.61-1.82s.74-1.82,1.61-1.82,1.61.81,1.61,1.82c.07,1.01-.67,1.82-1.61,1.82Z"/>
    <path class="cls-2" d="M124.7,26.45v2.49h-.94v-2.49h-1.48v6.86h1.48v-3.16h.94v3.09h1.08s.4-1.14.4-2.76v-4.04h-1.48Z"/>
    <path class="cls-2" d="M119.25,27.25v-1.08h-1.61v1.08h-2.35v1.28h1.82s1.28-.4,1.35-.4l1.35.4h1.82v-1.28h-2.35Z"/>
    <path class="cls-2" d="M118.44,27.66c-1.61,0-2.69,1.01-2.69,2.42,0,1.55,1.21,2.83,2.69,2.83s2.76-1.28,2.76-2.83c0-1.41-1.14-2.42-2.76-2.42ZM118.44,31.7c-.67,0-1.28-.74-1.28-1.55,0-.87.61-1.55,1.28-1.55s1.28.74,1.28,1.55c0,.81-.54,1.55-1.28,1.55Z"/>
    <path class="cls-2" d="M122.35,32.97c-1.88,0-3.5,1.35-3.5,2.96s1.61,2.96,3.5,2.96,3.5-1.35,3.5-2.96c0-1.68-1.61-2.96-3.5-2.96ZM122.35,37.62c-1.14,0-2.02-.74-2.02-1.75s.87-1.75,2.02-1.75,2.02.74,2.02,1.75c0,1.08-.87,1.75-2.02,1.75Z"/>
  </g>
</svg>