<?xml version="1.0" encoding="UTF-8"?>
<svg id="Layer_1" data-name="Layer 1" xmlns="http://www.w3.org/2000/svg" viewBox="0 0 172 62">
  <defs>
    <style>
      .cls-1 {
        fill: #253151;
      }

      .cls-2 {
        fill: #ff4100;
      }

      .cls-3 {
        fill: #ffa300;
      }

      .cls-4 {
        fill: #82c62f;
      }

      .cls-5 {
        fill: #157cb6;
      }
    </style>
  </defs>
  <path class="cls-4" d="M48.2,34.95s-.81-1.08,3.7-4.24c0,0,1.14-.94,2.49.07,0,0,1.08.74.61,1.75,0,0-.74,1.75-4.98,2.69-.34.07-.81.2-1.21.13.13,0-.4,0-.61-.4h0Z"/>
  <path class="cls-3" d="M47.79,37.71s.4-1.08,7.06-.61c0,0,1.75.07,1.82,1.41,0,0,.13,1.01-1.28,1.41,0,0-2.35.67-6.46-1.01-.34-.13-.81-.34-1.08-.54.07-.07-.34-.34-.07-.67h0Z"/>
  <path class="cls-5" d="M48.26,26.13s7.6-5.52,9.76-3.09c0,0,2.49,2.89-3.7,4.51,0,0-9.28,1.75-8.34,7.33,0,0,.2,1.35.67,2.69,0,0,.94,3.43-1.41,4.1,0,0-3.16.87-3.16-7.47,0,0,.27-3.43-2.22-5.05,0,0-2.35-1.95-2.89-2.22,0,0-2.02-1.55-.81-3.7,0,0,1.41-1.95,3.84,1.35,0,0,2.96,4.31,5.79,2.89.07.07,1.41-.61,2.49-1.35h0Z"/>
  <path class="cls-2" d="M46.04,23.44c-.4,1.41-1.61,2.22-2.69,1.95-1.08-.34-1.68-1.68-1.28-3.09s1.61-2.22,2.69-1.95c1.14.34,1.68,1.75,1.28,3.09h0Z"/>
  <path class="cls-1" d="M82.58,25.26h-8.61v1.01h6.66v2.22h-7.13v1.01h3.9v1.21h-3.43v1.01h6.66v2.22h.2c.4,0,.74-.07,1.08-.2.47-.13.67-.4.67-.74v-.4h0v-1.95h-3.36v-1.21h3.84v-1.01h-.47v-3.16h0Z"/>
  <path class="cls-1" d="M91.53,29.3h0v2.62h.2c.4,0,.74-.07,1.08-.2.47-.13.67-.4.67-.74v-1.68h0v-3.97h-8.61v1.08h6.66v2.89h0Z"/>
  <polygon class="cls-1" points="90.65 28.35 88.7 28.35 88.7 32.32 88.03 32.32 88.03 28.35 86.01 28.35 86.01 32.32 84.39 32.32 84.39 33.27 94.02 33.27 94.02 32.32 90.65 32.32 90.65 28.35"/>
  <path class="cls-1" d="M119.11,32.32h6.19v-2.49h-8.14v1.01h6.19v.47h-6.19v1.55c0,.34.13.54.4.74.27.2.61.27,1.14.27h6.73v-1.01h-6.26v-.54h-.07Z"/>
  <path class="cls-1" d="M125.3,25.13h-1.95v4.31h.2c.4,0,.74-.07,1.08-.2.47-.13.67-.4.67-.74v-.54h1.14v-1.08h-1.14v-1.75h0Z"/>
  <path class="cls-1" d="M95.23,29.97h2.02v1.01h-1.48v1.01h6.66v1.95h.2c.4,0,.74-.07,1.08-.2.47-.13.67-.4.67-.74v-2.09h-1.35v-1.01h1.95v-.87h-9.69v.94h-.07ZM99.33,29.97h1.61v1.01h-1.61v-1.01h0Z"/>
  <path class="cls-1" d="M96.84,28.15c.81.4,1.88.54,3.23.54s2.49-.2,3.23-.54c.74-.34,1.08-.74,1.08-1.28s-.34-.94-1.08-1.28c-.81-.34-1.88-.54-3.23-.54-1.41,0-2.49.2-3.23.54-.74.34-1.08.74-1.08,1.28s.34.94,1.08,1.28h0ZM98.32,26.34c.4-.13,1.01-.2,1.75-.2s1.35.07,1.82.2c.4.13.61.34.61.54s-.2.4-.61.54c-.4.13-1.01.27-1.82.27-.74,0-1.35-.07-1.75-.27-.4-.13-.61-.34-.61-.54s.2-.4.61-.54h0Z"/>
  <path class="cls-1" d="M65.35,30.51c.87,0,1.61-.13,2.22-.47.54-.27.87-.61,1.01-1.08.13-.54.07-.94-.2-1.35s-.81-.74-1.55-.87h1.75v-.94h-2.15v-.74h-1.88v.74h-2.29v.94h1.75c-.74.2-1.21.47-1.48.87-.27.4-.34.81-.2,1.35.13.4.47.81,1.01,1.08.47.27,1.21.47,2.02.47h0ZM64.34,27.61c.27-.2.61-.34,1.01-.34.47,0,.81.13,1.08.34s.34.47.34.81c0,.27-.13.54-.4.74-.27.2-.61.34-1.08.34-.4,0-.81-.13-1.01-.34s-.34-.47-.34-.74c.07-.34.2-.61.4-.81h0Z"/>
  <path class="cls-1" d="M71.34,25.13h-1.95v6.39h.2c.4,0,.74-.07,1.08-.2.47-.13.67-.4.67-.74v-1.75h1.14v-1.08h-1.14v-2.62h0Z"/>
  <path class="cls-1" d="M64.61,30.98h-1.95v1.95c0,.27.07.54.27.67s.47.2.81.2h7.67v-1.01h-6.8v-1.82h0Z"/>
  <path class="cls-1" d="M109.89,25.26h-4.24v1.01h2.29v7.2h.2c.4,0,.74-.07,1.08-.2.47-.13.67-.4.67-.74v-7.27h0Z"/>
  <path class="cls-1" d="M115.01,25.13h-1.82v3.3h-.67v-3.3h-1.88v8.81h.2c.34,0,.67-.07,1.01-.2.4-.13.67-.4.67-.74v-3.57h.67v4.44h.2c.34,0,.67-.07,1.01-.2.4-.13.67-.4.67-.74v-3.36h0v-4.44h-.07Z"/>
  <path class="cls-1" d="M120.86,29.23c.47,0,.87-.07,1.08-.2.2-.13.34-.4.34-.74v-3.03h-1.95v.87h-1.75v-.87h-1.95v3.03c0,.34.13.61.34.74s.61.2,1.08.2h2.83ZM118.57,27.08h1.75v1.21h-1.75v-1.21h0Z"/>
  <path class="cls-1" d="M130.08,29.97h-2.76v-1.01h7.4v-3.9h1.95v6.46c0,.34-.2.54-.67.74-.34.13-.67.2-1.08.2h-.2v-1.08h-1.55v-.87h1.55v-.47h-2.69v1.41h-1.95v-1.48h0Z"/>
  <path class="cls-1" d="M128.53,28.15c.61.4,1.41.54,2.42.54s1.82-.2,2.42-.54c.54-.34.81-.74.81-1.28s-.27-.94-.81-1.28c-.61-.4-1.41-.54-2.42-.54s-1.82.2-2.42.54c-.54.34-.81.74-.81,1.28.07.54.34.94.81,1.28h0ZM129.88,26.27c.27-.2.61-.27,1.08-.27s.81.07,1.08.27c.2.13.34.34.34.61s-.13.4-.34.61c-.27.2-.61.27-1.08.27s-.81-.07-1.08-.27c-.2-.13-.34-.34-.34-.61,0-.2.13-.4.34-.61h0Z"/>
  <path class="cls-1" d="M129.88,32.86h6.8v1.01h-7.27c-.54,0-.94-.07-1.14-.2-.2-.13-.34-.4-.34-.74v-1.48h1.95v1.41h0Z"/>
  <path class="cls-1" d="M62.66,35.62h.34v1.14h0c.07-.07.13-.2.2-.27l.74-.87h.4l-.87,1.01.94,1.41h-.34l-.81-1.21-.2.27v.94h-.34v-2.42h-.07Z"/>
  <path class="cls-1" d="M65.42,38.04c-.67,0-1.08-.47-1.08-1.21s.47-1.28,1.14-1.28,1.08.54,1.08,1.21c0,.87-.47,1.28-1.14,1.28h0ZM65.49,37.84c.47,0,.74-.47.74-1.01,0-.47-.27-1.01-.74-1.01-.54,0-.81.47-.81,1.01s.27,1.01.81,1.01h0Z"/>
  <path class="cls-1" d="M66.97,35.62c.13,0,.4-.07.61-.07.34,0,.54.07.67.2.13.13.2.27.2.47,0,.34-.2.54-.47.61h0c.2.07.27.27.34.47.07.34.13.54.2.67h-.34c-.07-.07-.07-.27-.13-.61s-.2-.47-.47-.47h-.27v1.08h-.34v-2.35h0ZM67.3,36.77h.34c.34,0,.54-.2.54-.47,0-.34-.2-.47-.54-.47h-.34v.94h0Z"/>
  <polygon class="cls-1" points="70.13 36.9 69.19 36.9 69.19 37.77 70.27 37.77 70.27 38.04 68.92 38.04 68.92 35.62 70.2 35.62 70.2 35.89 69.19 35.89 69.19 36.63 70.13 36.63 70.13 36.9"/>
  <path class="cls-1" d="M71.07,37.24l-.27.74h-.34l.81-2.42h.4l.81,2.42h-.34l-.27-.74h-.81ZM71.88,37.03l-.27-.67c-.07-.13-.07-.27-.13-.47h0c0,.13-.07.27-.13.47l-.27.67h.81Z"/>
  <path class="cls-1" d="M72.89,38.04v-2.42h.34l.74,1.21c.2.27.34.54.4.81h0c0-.34-.07-.61-.07-1.01v-1.01h.27v2.42h-.34l-.74-1.21c-.2-.27-.34-.54-.47-.81h0v2.02h-.13Z"/>
  <polygon class="cls-1" points="77.2 36.9 76.32 36.9 76.32 37.77 77.33 37.77 77.33 38.04 75.98 38.04 75.98 35.62 77.26 35.62 77.26 35.89 76.32 35.89 76.32 36.63 77.2 36.63 77.2 36.9"/>
  <path class="cls-1" d="M77.73,35.62c.2,0,.4-.07.67-.07.47,0,.74.07,1.01.27.2.2.34.47.34.87s-.13.74-.34.94-.61.34-1.08.34h-.54v-2.35h-.07ZM78.07,37.77h.34c.67,0,1.01-.4,1.01-1.01s-.34-.94-1.01-.94h-.34v1.95h0Z"/>
  <path class="cls-1" d="M80.42,35.62v1.41c0,.54.27.74.54.74.34,0,.61-.27.61-.74v-1.41h.34v1.41c0,.74-.4,1.08-.94,1.08-.47,0-.87-.27-.87-1.01v-1.41h.34v-.07Z"/>
  <path class="cls-1" d="M84.12,37.98c-.13.07-.34.13-.61.13-.67,0-1.21-.4-1.21-1.21,0-.74.54-1.28,1.28-1.28.27,0,.47.07.61.13l-.07.27c-.13-.07-.27-.07-.47-.07-.54,0-.94.34-.94,1.01,0,.61.34.94.94.94.2,0,.4-.07.54-.07l-.07.13h0Z"/>
  <path class="cls-1" d="M84.93,37.24l-.27.74h-.34l.81-2.42h.4l.81,2.42h-.34l-.27-.74h-.81ZM85.74,37.03l-.27-.67c-.07-.13-.07-.27-.13-.47h0c0,.13-.07.27-.13.47l-.27.67h.81Z"/>
  <polygon class="cls-1" points="86.88 35.89 86.14 35.89 86.14 35.62 87.96 35.62 87.96 35.89 87.22 35.89 87.22 38.04 86.88 38.04 86.88 35.89"/>
  <polygon class="cls-1" points="88.57 35.62 88.57 38.04 88.23 38.04 88.23 35.62 88.57 35.62"/>
  <path class="cls-1" d="M90.05,38.04c-.67,0-1.08-.47-1.08-1.21s.47-1.28,1.14-1.28,1.08.54,1.08,1.21c-.07.87-.54,1.28-1.14,1.28h0ZM90.05,37.84c.47,0,.81-.47.81-1.01,0-.47-.27-1.01-.74-1.01-.54,0-.81.47-.81,1.01-.07.54.2,1.01.74,1.01h0Z"/>
  <path class="cls-1" d="M91.53,38.04v-2.42h.34l.74,1.21c.2.27.34.54.4.81h0c0-.34-.07-.61-.07-1.01v-1.01h.27v2.42h-.34l-.74-1.21c-.2-.27-.34-.54-.47-.81h0v2.02h-.13Z"/>
  <path class="cls-1" d="M94.28,37.24l-.27.74h-.34l.81-2.42h.4l.81,2.42h-.34l-.27-.74h-.81ZM95.09,37.03l-.27-.67c-.07-.13-.07-.27-.13-.47h0c0,.13-.07.27-.13.47l-.27.67h.81Z"/>
  <polygon class="cls-1" points="96.1 35.62 96.44 35.62 96.44 37.77 97.45 37.77 97.45 38.04 96.1 38.04 96.1 35.62"/>
  <path class="cls-1" d="M98.52,35.62c.2,0,.4-.07.67-.07.47,0,.74.07,1.01.27.2.2.34.47.34.87s-.13.74-.34.94-.61.34-1.08.34h-.54v-2.35h-.07ZM98.86,37.77h.34c.67,0,1.01-.4,1.01-1.01s-.34-.94-1.01-.94h-.34v1.95h0Z"/>
  <polygon class="cls-1" points="102.16 36.9 101.21 36.9 101.21 37.77 102.29 37.77 102.29 38.04 100.95 38.04 100.95 35.62 102.22 35.62 102.22 35.89 101.21 35.89 101.21 36.63 102.16 36.63 102.16 36.9"/>
  <path class="cls-1" d="M103.23,38.04l-.81-2.42h.34l.4,1.21c.07.34.2.61.27.87h0c.07-.27.13-.61.27-.87l.4-1.21h.34l-.87,2.42h-.34Z"/>
  <polygon class="cls-1" points="105.99 36.9 105.05 36.9 105.05 37.77 106.06 37.77 106.06 38.04 104.71 38.04 104.71 35.62 105.99 35.62 105.99 35.89 105.05 35.89 105.05 36.63 105.99 36.63 105.99 36.9"/>
  <polygon class="cls-1" points="106.46 35.62 106.8 35.62 106.8 37.77 107.81 37.77 107.81 38.04 106.46 38.04 106.46 35.62"/>
  <path class="cls-1" d="M108.95,38.04c-.67,0-1.08-.47-1.08-1.21s.47-1.28,1.14-1.28,1.08.54,1.08,1.21c0,.87-.54,1.28-1.14,1.28h0ZM109.02,37.84c.47,0,.74-.47.74-1.01,0-.47-.27-1.01-.74-1.01-.54,0-.81.47-.81,1.01,0,.54.27,1.01.81,1.01h0Z"/>
  <path class="cls-1" d="M110.5,35.62c.13,0,.34-.07.61-.07.34,0,.54.07.67.2.13.13.2.27.2.54,0,.2-.07.4-.2.54-.13.2-.4.27-.74.27h-.27v.94h-.27v-2.42h0ZM110.84,36.83h.27c.4,0,.61-.2.61-.54s-.2-.47-.54-.47h-.27v1.01h-.07Z"/>
  <path class="cls-1" d="M114.47,36.97c0-.34-.07-.74-.07-1.01h0c-.07.27-.2.61-.34.94l-.4,1.14h-.27l-.4-1.14c-.13-.34-.2-.67-.27-.94h0c0,.27,0,.67-.07,1.08l-.07,1.01h-.27l.13-2.42h.4l.4,1.14c.13.27.2.54.27.81h0c.07-.27.13-.54.27-.81l.4-1.14h.4l.13,2.42h-.34l.07-1.08h0Z"/>
  <polygon class="cls-1" points="116.55 36.9 115.61 36.9 115.61 37.77 116.62 37.77 116.62 38.04 115.28 38.04 115.28 35.62 116.55 35.62 116.55 35.89 115.61 35.89 115.61 36.63 116.55 36.63 116.55 36.9"/>
  <path class="cls-1" d="M117.03,38.04v-2.42h.34l.74,1.21c.2.27.34.54.4.81h0c0-.34-.07-.61-.07-1.01v-1.01h.27v2.42h-.13l-.74-1.21c-.13-.27-.34-.54-.47-.81h0v2.02h-.34Z"/>
  <polygon class="cls-1" points="119.85 35.89 119.11 35.89 119.11 35.62 120.93 35.62 120.93 35.89 120.19 35.89 120.19 38.04 119.85 38.04 119.85 35.89"/>
  <polygon class="cls-1" points="122.27 35.62 122.27 38.04 121.94 38.04 121.94 35.62 122.27 35.62"/>
  <path class="cls-1" d="M122.81,38.04v-2.42h.34l.74,1.21c.2.27.34.54.4.81h0c0-.34-.07-.61-.07-1.01v-1.01h.27v2.42h-.34l-.74-1.21c-.2-.27-.34-.54-.47-.81h0v2.02h-.13Z"/>
  <path class="cls-1" d="M125.1,37.64c.13.07.34.13.54.13.34,0,.54-.13.54-.4,0-.2-.13-.34-.47-.47-.4-.13-.61-.34-.61-.67,0-.4.34-.67.81-.67.27,0,.4.07.54.13l-.07.27c-.07-.07-.27-.13-.47-.13-.34,0-.47.2-.47.34,0,.2.13.34.47.47.4.13.61.34.61.74s-.27.67-.87.67c-.2,0-.47-.07-.61-.13l.07-.27h0Z"/>
  <polygon class="cls-1" points="127.39 35.89 126.65 35.89 126.65 35.62 128.46 35.62 128.46 35.89 127.72 35.89 127.72 38.04 127.39 38.04 127.39 35.89"/>
  <polygon class="cls-1" points="130.01 35.89 129.27 35.89 129.27 35.62 131.09 35.62 131.09 35.89 130.35 35.89 130.35 38.04 130.01 38.04 130.01 35.89"/>
  <polygon class="cls-1" points="129 35.62 129 38.04 128.66 38.04 128.66 35.62 129 35.62"/>
  <path class="cls-1" d="M131.63,35.62v1.41c0,.54.27.74.54.74.34,0,.61-.27.61-.74v-1.41h.34v1.41c0,.74-.4,1.08-.94,1.08-.47,0-.87-.27-.87-1.01v-1.41h.34v-.07Z"/>
  <polygon class="cls-1" points="134.05 35.89 133.31 35.89 133.31 35.62 135.12 35.62 135.12 35.89 134.38 35.89 134.38 38.04 134.05 38.04 134.05 35.89"/>
  <polygon class="cls-1" points="136.6 36.9 135.66 36.9 135.66 37.77 136.74 37.77 136.74 38.04 135.39 38.04 135.39 35.62 136.67 35.62 136.67 35.89 135.66 35.89 135.66 36.63 136.6 36.63 136.6 36.9"/>
</svg>